<?xml version="1.0" encoding="UTF-8"?>
<svg id="uuid-7d3c68f9-880a-475d-a690-99a0f1f5ceff" data-name="Ebene 2" xmlns="http://www.w3.org/2000/svg" viewBox="0 0 91.08 155.72">
  <g id="uuid-ee4c70a8-5ec1-4e1c-9465-e7260420f549" data-name="Ebene 1">
    <g id="uuid-e0f67635-3ab1-4495-9c29-17e5efb3278e" data-name="Generatives Objekt">
      <g>
        <path d="M50.29,131.06c-1.24,3.18-.14,14.34,4.13,7.65.68,2.9,2.89,3.49,3.93.41,2.44,3.65,3.91.72,4.34-2.27,11.8,7.08-2.01,18.7-9.41,9.3,6.39,11.47-18.4,13.16-16.64,2.17.13-.83,1.11-1.71.93-2.58-6.6,10.17-21.21-1.57-9.41-8.89.35,2.76,2.15,5.76,4.55,2.48,1.33,2.99,3.14,1.97,3.72-.62,4.48,6.22,5.39-3.57,4.34-7.03,2.67-1.31,6.41.17,9.51-.62Z" fill="#5a837b"/>
        <g>
          <path d="M33.75,129.4c.42.1,1.75.19,2.07.62.71.98.92,7.32.62,8.68-.58,2.59-2.39,3.61-3.72.62-1.25-2.82-.6-7.11.62-9.92.13.02.3-.03.41,0Z" fill="#ffb84b"/>
          <path d="M33.34,129.4c-1.22,2.82-1.87,7.11-.62,9.92-2.4,3.28-4.2.28-4.55-2.48-.2-1.6.06-5.39,1.03-6.72,1.27-1.75,2.4-1.06,4.13-.72Z" fill="#ff9a38"/>
          <path d="M40.78,131.68c1.05,3.45.14,13.25-4.34,7.03.3-1.36.09-7.7-.62-8.68,1.91-2.28,4.2-.84,4.96,1.65Z" fill="#ff9a38"/>
        </g>
        <g>
          <path d="M62.69,136.85c-.43,2.99-1.9,5.92-4.34,2.27.63-1.88.57-8.13-.83-9.51,4.9-2.57,5.66,3.76,5.17,7.24Z" fill="#ff9a38"/>
          <path d="M57.31,129.4c.26.13.19.19.21.21,1.4,1.38,1.46,7.63.83,9.51-1.04,3.08-3.25,2.49-3.93-.41-.28-1.2.03-8.13.62-8.89.17-.22,1.88-.6,2.27-.41Z" fill="#ffb84b"/>
          <path d="M55.04,129.82c-.59.76-.9,7.68-.62,8.89-4.27,6.7-5.38-4.47-4.13-7.65.77-1.98,3.23-2.91,4.75-1.24Z" fill="#ff9a38"/>
        </g>
      </g>
      <g>
        <path d="M16.18,53.54c2.89.23,7.71,6.14,8.68,8.79,4.02,10.92-7.84,36.75-7.44,51.58.07,2.78.52,5.34.93,8.06C3.55,108.29-7.74,76.97,6.67,59.84c1.66-1.98,6.87-6.52,9.51-6.3Z" fill="#8db5b0"/>
        <g>
          <path d="M76.13,53.75c2.17.35,6.15,3.61,7.65,5.27,15.35,17.11,4.04,49.02-11.06,62.94l.93-7.65c.28-7.55-1.24-14.89-3.1-22.12,5.18-4.36,10.6-12.63,10.96-19.53.35-6.9-3.67-13.1-6.82-18.91.37-.04,1.1-.06,1.45,0Z" fill="#6c9892"/>
          <path d="M74.68,53.75c3.15,5.81,7.17,12.02,6.82,18.91-.35,6.9-5.77,15.17-10.96,19.53-2.3-8.95-7.87-21.5-4.13-30.49,1.11-2.67,5.27-7.64,8.27-7.96Z" fill="#8db5b0"/>
        </g>
        <g>
          <path d="M76.13,53.75c-.35-.06-1.08-.04-1.45,0-3,.32-7.16,5.29-8.27,7.96-3.73,8.99,1.84,21.54,4.13,30.49,1.86,7.23,3.38,14.57,3.1,22.12-.51-.38.05-.96-.62-.1-.99,1.26-1.8,3.19-2.89,4.55-3.58,4.46-7.97,7.69-12.82,10.65-.39-.19-2.1.19-2.27.41-1.52-1.67-3.98-.74-4.75,1.24-3.1.79-6.84-.69-9.51.62-.76-2.49-3.05-3.94-4.96-1.65-.31-.43-1.65-.52-2.07-.62-6.75-3.76-12.33-8.87-16.33-15.5-.4-14.82,11.46-40.66,7.44-51.58-.97-2.64-5.79-8.55-8.68-8.79l.62-3.31c6.65,6.46,17.1,6.85,24.81,2.07,1.17,2.04,2.54,4.02,3.82,5.99,1.23-1.98,2.47-3.97,3.62-5.99,8.16,5.08,19.34,4.27,25.84-3.1.71,1.24,1.39,3.11,1.24,4.55Z" fill="#daebde"/>
          <g>
            <g>
              <path d="M57.93,71.94c-2.82,2.82-7.22,2.55-10.13,0-.42-3.38,1.52-1.53,3.41-1.45,2.38.11,4.3-.29,6.61-.62.98.6.28,1.29.1,2.07Z" fill="#addcd0"/>
              <path d="M57.93,71.94c-1.67,7.46-9.45,5.46-10.13,0,2.91,2.55,7.31,2.82,10.13,0Z" fill="#75c8a9"/>
            </g>
            <g>
              <path d="M43.05,71.94c-2.83,2.74-7.23,2.55-10.13,0-.15-.76-.44-1.61.31-2.07,3.52,1.05,6.74.15,10.03.31.13.64-.09,1.17-.21,1.76Z" fill="#addcd0"/>
              <path d="M43.05,71.94c-1.28,6.53-8.86,6.46-10.13,0,2.9,2.55,7.3,2.74,10.13,0Z" fill="#75c8a9"/>
            </g>
            <g>
              <path d="M36.02,79.79c-2.92,2.62-6.97,2.55-9.92,0-.66-3.44,3.41-1.15,5.89-1.24,1.74-.06,4.41-2.19,4.03,1.24Z" fill="#addcd0"/>
              <path d="M36.02,79.79c-.11.95-1.75,3.59-2.58,4.13-3.25,2.11-6.71-.87-7.34-4.13,2.96,2.55,7,2.62,9.92,0Z" fill="#75c8a9"/>
            </g>
            <g>
              <path d="M43.05,88.68c-1.08.38-2.02,1.45-3.2,1.65-2.55.44-4.77-.23-6.72-1.86-.68-3.43,3.04-1.25,5.27-1.24,2.12,0,5.46-2.39,4.65,1.45Z" fill="#addcd0"/>
              <path d="M43.05,88.68c-1.3,6.14-8.71,5.94-9.92-.21,1.95,1.63,4.17,2.3,6.72,1.86,1.19-.2,2.13-1.28,3.2-1.65Z" fill="#75c8a9"/>
            </g>
            <g>
              <path d="M50.49,114.93c-2.05,2.36-8.13,2.7-9.72,0-.34-.58-.56-.79-.41-1.55.17-.11.39-.47.52-.52.29-.1,4.91.67,6.2.62,1.72-.07,4.2-2.08,3.41,1.45Z" fill="#addcd0"/>
              <path d="M50.49,114.93c-1.42,6.33-8.64,6.36-9.72,0,1.59,2.7,7.66,2.36,9.72,0Z" fill="#75c8a9"/>
            </g>
            <g>
              <path d="M64.76,96.95c-2.52,2.8-6.97,3.07-9.72.41-.09-.45-.55-1.77.1-2.07,1.94.1,3.59.65,5.58.62,1.8-.03,4.44-2.09,4.03,1.03Z" fill="#addcd0"/>
              <path d="M55.04,97.36c2.75,2.65,7.19,2.38,9.72-.41-.82,6.22-8.36,6.99-9.72.41Z" fill="#75c8a9"/>
            </g>
            <g>
              <path d="M57.93,88.47c-2.83,2.48-7.12,2.68-9.92,0-.63-3.45,2.89-1.22,5.27-1.24,1.88-.01,5.35-2.27,4.65,1.24Z" fill="#addcd0"/>
              <path d="M57.93,88.47c-1.21,6.09-8.75,6.44-9.92,0,2.8,2.68,7.1,2.48,9.92,0Z" fill="#75c8a9"/>
            </g>
            <g>
              <path d="M64.76,79.79c-2.76,2.44-7.04,2.76-9.72,0-.08-.43-.56-1.56.1-1.86.63-.28,4.29.67,5.58.62,1.75-.07,4.68-2.25,4.03,1.24Z" fill="#addcd0"/>
              <path d="M64.76,79.79c-1.17,6.27-8.55,6.44-9.72,0,2.68,2.76,6.95,2.44,9.72,0Z" fill="#75c8a9"/>
            </g>
            <g>
              <path d="M43.05,106.04c-2.94,2.56-6.96,2.58-9.92,0-.7-3.63,2.35-1.3,4.44-1.24,1.81.05,3.53-.88,5.37-.62.16.12.14,1.55.1,1.86Z" fill="#addcd0"/>
              <path d="M43.05,106.04c-.12,1-2.1,3.89-3,4.34-3.17,1.61-6.34-1.32-6.92-4.34,2.97,2.58,6.99,2.56,9.92,0Z" fill="#75c8a9"/>
            </g>
            <g>
              <path d="M36.02,97.16c-2.93,2.81-6.97,2.64-9.92,0-.39-3.31,3.53-1.15,6.1-1.24.78-.03,2.98-.98,3.72-.62.43.56.21,1.26.1,1.86Z" fill="#addcd0"/>
              <path d="M36.02,97.16c-.41,2.37-2.89,5.27-5.48,4.96-1.75-.21-4.25-3.31-4.44-4.96,2.95,2.64,7,2.81,9.92,0Z" fill="#75c8a9"/>
            </g>
            <g>
              <path d="M57.73,106.04c-2.74,2.69-6.92,2.46-9.72,0-.75-3.67,2.47-1.29,4.44-1.24,2.4.06,5.83-2.3,5.27,1.24Z" fill="#addcd0"/>
              <path d="M57.73,106.04c-1.01,6.38-8.46,6.14-9.72,0,2.8,2.46,6.98,2.69,9.72,0Z" fill="#75c8a9"/>
            </g>
            <g>
              <path d="M50.29,97.16c-2.53,2.71-6.79,2.73-9.51.21-.15-.63-.9-1.67.1-2.07.45-.18,4.54.66,5.79.62,1.84-.06,4.17-2.26,3.62,1.24Z" fill="#addcd0"/>
              <path d="M40.78,97.36c2.71,2.52,6.98,2.5,9.51-.21-.96,6.09-7.99,6.74-9.51.21Z" fill="#75c8a9"/>
            </g>
            <g>
              <path d="M50.49,79.79c-3.04,2.66-6.9,2.75-9.92,0-.04-.4-.13-1.66.31-1.86,1.96,0,3.57.69,5.58.62,1.74-.06,4.66-2.17,4.03,1.24Z" fill="#addcd0"/>
              <path d="M50.49,79.79c-.38,2.08-2.91,5.13-5.27,4.96-1.8-.13-4.46-3.24-4.65-4.96,3.02,2.75,6.88,2.66,9.92,0Z" fill="#75c8a9"/>
            </g>
          </g>
        </g>
      </g>
      <g>
        <path d="M71.37,16.95c8.78,8.31,12.11,22.5,3.51,32.25-6.5,7.37-17.67,8.18-25.84,3.1.62-1.09,1.81-2.74,2.27-3.72,15.14,11,32.87-6.38,23.15-22.22-8.08-13.17-23.23-5.86-29.04,5.06-5.61-9.4-18.15-17.65-27.39-7.55-13.54,14.81,4.91,37.06,21.29,24.5.5,1.07,1.62,2.78,2.27,3.93-7.71,4.78-18.15,4.4-24.81-2.07-9.65-9.38-6.93-25,2.69-33.28,3.23.34,6.61-.1,9.82.21,6.17.59,11.61,3.29,16.12,7.44,4.59-4.77,10.83-7.11,17.36-7.65,2.79-.23,5.82.28,8.58,0Z" fill="#8db5b0"/>
        <g>
          <path d="M28.58,9.92c6.06,1.15,12.07,2.67,16.64,7.03,4.81-4.64,10.39-5.33,16.43-7.03,8.05-2.26,15.7-3.81,22.02-9.92.54,8-3.68,16.07-12.3,16.95-2.75.28-5.79-.23-8.58,0-6.54.54-12.77,2.88-17.36,7.65-4.51-4.15-9.96-6.85-16.12-7.44-3.21-.31-6.59.13-9.82-.21C10.4,15.99,6.55,8.47,6.98,0c3.94,3.45,8.68,6.16,13.64,7.86,1.62.55,6.46,2.01,7.96,2.07Z" fill="#6c9892"/>
          <path d="M61.66,9.92c-6.04,1.7-11.62,2.39-16.43,7.03-4.57-4.36-10.58-5.88-16.64-7.03,2.05.09,5.31-1.47,7.55-1.86,8.7-1.53,17.15-.86,25.53,1.86Z" fill="#5a837b"/>
        </g>
        <path d="M51.32,48.58c-.47.98-1.65,2.63-2.27,3.72-1.15,2.03-2.39,4.02-3.62,5.99-1.28-1.98-2.66-3.95-3.82-5.99-.65-1.14-1.77-2.86-2.27-3.93-.16-.34-.3-.69-.62-.93l6.72-5.68,6.51,5.68c-.31.32-.44.76-.62,1.14Z" fill="#ff9a38"/>
        <g>
          <path d="M51.32,48.58c.18-.38.31-.82.62-1.14l-6.51-5.68-6.72,5.68c.32.24.46.59.62.93-16.38,12.57-34.83-9.68-21.29-24.5,9.24-10.11,21.78-1.85,27.39,7.55,5.82-10.93,20.97-18.23,29.04-5.06,9.72,15.84-8.01,33.22-23.15,22.22Z" fill="#daebde"/>
          <g>
            <path d="M27.44,24.6c18.39-2.55,18.2,25.86,0,23.15-12.57-1.87-12.51-21.42,0-23.15Z" fill="#fff"/>
            <g>
              <path d="M28.27,26.87c12.9-1.44,14.3,17.44,2.48,18.6-12.74,1.26-13.9-17.33-2.48-18.6Z" fill="#ffd057"/>
              <path d="M23.62,33.07c-.02.23-.04.62,0,.83.84,4.32,7.67.24,3.51-2.48-.44-.29-.85-.7-1.45-.62,9.24-5.26,14.29,7.51,7.34,11.16-5.89,3.09-12.41-2.9-9.41-8.89Z" fill="#43211d"/>
              <path d="M25.69,30.8c.6-.08,1.01.33,1.45.62,1.63,2.83-1.5,4.91-3.51,2.48-.04-.21-.02-.6,0-.83.16-1.79.92-1.62,2.07-2.27Z" fill="#fff"/>
              <path d="M23.62,33.9c2.01,2.43,5.15.35,3.51-2.48,4.15,2.72-2.68,6.8-3.51,2.48Z" fill="#0b0605"/>
            </g>
          </g>
          <g>
            <path d="M59.07,24.6c16.38-2.11,18.16,21.07,4.13,23.15-16.34,2.42-18.41-21.32-4.13-23.15Z" fill="#fff"/>
            <g>
              <path d="M59.9,26.87c12.64-1.28,14,17.26,2.48,18.6-12.8,1.49-14.26-17.42-2.48-18.6Z" fill="#ffd057"/>
              <path d="M54.83,33.9c0,.07-.01.14,0,.21.84,4.19,7.52-.25,3.31-2.69-.35-.2-.64-.49-1.03-.62,9.21-5.27,14.37,7.47,7.34,11.16-5.41,2.84-11.83-2.09-9.61-8.06Z" fill="#43211d"/>
              <path d="M58.14,31.42c1.53,2.65-1.16,4.81-3.31,2.69-.01-.06,0-.14,0-.21-.18-2.07.86-2.29,2.27-3.1.39.13.69.42,1.03.62Z" fill="#fff"/>
              <path d="M54.83,34.11c2.15,2.12,4.83-.03,3.31-2.69,4.22,2.44-2.47,6.88-3.31,2.69Z" fill="#0b0605"/>
            </g>
          </g>
        </g>
      </g>
    </g>
  </g>
</svg>