<?xml version="1.0" encoding="UTF-8"?>
<svg id="uuid-556acb12-f586-4357-ba07-f2fbfcfc3639" data-name="Ebene 2" xmlns="http://www.w3.org/2000/svg" viewBox="0 0 113.69 152.93">
  <g id="uuid-a8d3d015-c67a-4ba9-bd74-77e4b5ea83c4" data-name="Ebene 1">
    <g id="uuid-3d6338e3-91f6-41e5-af87-0a3f07bd3a4a" data-name="Generatives Objekt">
      <g>
        <g>
          <path d="M33.02,147.56l5.99-3.58-5.55-1.46,5.7-3.21-5.11-1.9,5.84-2.92-5.41-2.05,5.55-3.51-5.7-2.63,5.11-2.92-6.57-3.29c.13.02.16-.16.29-.15,5.4.48,10.82.96,16.22,1.31,4.24.28,7.54.43,11.83.29,3.1-.1,5.38-.26,8.47-.73,4.99-.76,8.37-1.6,13-3.51,8.37-3.45,14.33-7.99,13.15-17.82-.03-.28-.11-.52-.15-.8,17.74,2.94,23.31,22.56,12.42,36.23-13.54,16.99-48.03,21.41-67.72,15.56-2.55-.76-4.89-2.02-7.38-2.92Z" fill="#f78a27"/>
          <path d="M32.87,120.09l6.57,3.29-5.11,2.92,5.7,2.63-5.55,3.51,5.41,2.05-5.84,2.92,5.11,1.9-5.7,3.21,5.55,1.46-5.99,3.58c-11.01-3.99-22.04-7.96-33.02-12.05,6.82-11.33,20.24-15.44,32.87-15.41Z" fill="#f4f7dd"/>
        </g>
        <g>
          <path d="M52.89,59.75c2.27,1.46,4.51,3.06,6.87,4.38-.79.37-1.28,1.07-1.9,1.61-4.61,4.02-9.51,11.63-9.79,17.9-.21,4.87,5.76,10.44,8.91,13.81-.04.87.77,7.13,1.1,7.3l.8-.37c-.24.53-.48,1.1-.15,1.68-4.09-.59-9.57.44-13.81,0-.24.15.29,1.47.37,1.75l-5.7-18.12c3.26-8.54,5.42-16.05,9.79-24.33.98-1.85,2.18-4.09,3.51-5.62Z" fill="#f66e1c"/>
          <path d="M78.46,60.05c.24.21,2.69,4.78,3.07,5.48,4.31,8.03,6.49,15.53,9.64,23.89-1.65,5.53-3.26,11.07-4.97,16.58-.04.13-.29.06-.29.07-4.36.31-9.29-.41-13.59,0,.27-1.13.8-1.98-.29-2.85.33-.24.68.51.8.51.46,0,1.1-5.22.95-5.99,7.86-8.8,12.23-12.27,5.55-24.33-1.59-2.86-3.77-5.3-6.14-7.52-.64-.6-1.29-1.26-1.9-1.9.95-.54,6.26-4.03,6.65-4.09.18-.03.38.03.51.15Z" fill="#f66e1c"/>
          <path d="M45.29,107.82c1.19,4.51,2.89,8.92,4.09,13.44-5.4-.35-10.82-.83-16.22-1.31-3.47-11.22,2.66-20.37,6.43-30.24l5.7,18.12Z" fill="#db5e1d"/>
          <path d="M95.84,99.49c1.19,9.84-4.78,14.38-13.15,17.82,1.19-3.7,2.07-7.55,3.21-11.25,0-.02.25.05.29-.07,1.71-5.51,3.32-11.06,4.97-16.58.97,2.57,2.43,6.48,3.65,8.84.23.45.63.92,1.02,1.24Z" fill="#db5e1d"/>
          <path d="M73.78,97.74c.15.77-.49,5.99-.95,5.99-.13,0-.48-.75-.8-.51,1.09.87.57,1.72.29,2.85-.23.02-.92-.08-1.02.07l-1.61,14.68c-3.1.47-5.37.63-8.47.73l-1.75-15.41c-.11-.15-.54-.05-.73-.07-.34-.58-.1-1.15.15-1.68l-.8.37c-.33-.17-1.13-6.43-1.1-7.3,2.8,2.99,6.14,5.72,8.4,9.06,2.87-2.83,5.72-5.76,8.4-8.77Z" fill="#d5c3a2"/>
          <path d="M58.73,106.07c.19.03.62-.08.73.07l1.75,15.41c-4.29.14-7.6-.02-11.83-.29-1.2-4.52-2.9-8.93-4.09-13.44-.07-.28-.6-1.6-.37-1.75,4.24.44,9.72-.59,13.81,0Z" fill="#2c2d37"/>
          <path d="M72.32,106.07c4.3-.41,9.22.31,13.59,0-1.15,3.7-2.02,7.55-3.21,11.25-4.64,1.91-8.01,2.75-13,3.51l1.61-14.68c.11-.15.8-.05,1.02-.07Z" fill="#2c2d37"/>
        </g>
        <path d="M73.2,65.89c-5.19,4.19-10.22,4.04-15.34-.15.62-.54,1.11-1.24,1.9-1.61,1.95,1.1,4.03,2.68,6.36,2.48,1.74-.14,3.7-1.78,5.19-2.63.61.64,1.26,1.3,1.9,1.9Z" fill="#c7c3b3"/>
        <path d="M57.86,65.74c5.12,4.19,10.15,4.34,15.34.15,2.37,2.23,4.55,4.66,6.14,7.52,6.68,12.06,2.31,15.53-5.55,24.33-2.69,3.01-5.53,5.94-8.4,8.77-2.26-3.34-5.6-6.07-8.4-9.06-3.15-3.36-9.13-8.94-8.91-13.81.28-6.27,5.17-13.88,9.79-17.9Z" fill="#f4f7dd"/>
      </g>
      <g>
        <path d="M74.22,15.92c.22.33,1.46.88,1.83,1.02.1.04,1.05.12,1.1.15,4.38,2.2,10.48,7.61,14.03,11.1.61.6.53,1.05.58,1.1.15.15.4.04.44.07,1.03,1.01,1.91,2.21,2.92,3.21-14.17.89-25.04,12.89-26.88,26.59-1.41-.72-4.14-.72-5.55,0-2.06-13.69-12.64-25.59-26.88-26.59,1.12-1.09,2.08-2.41,3.21-3.51.35-.34.68-.69,1.02-1.02,3.33-3.23,6.73-6.32,10.59-8.91.48-.32,3.26-1.74,3.36-1.9.2-.31-.19-.36-.22-.58.09.07.5.23.66.44.22.02,1.5-.96,1.68-1.02,7.8-2.82,10.48-2,18.12-.15Z" fill="#f78a27"/>
        <path d="M49.38,8.77l.88,3.65c-3.64-3.51-8.49-5.92-13.51-6.57-2.66,5.58-2.22,12.26.22,17.82-.98-1.71-2.3-4.15-2.92-5.99-1.82-5.36-1.94-12.04-1.83-17.68,6.58,1.53,12.11,4.39,17.17,8.77Z" fill="#2c2d37"/>
        <path d="M97.16,17.68c-.02.06-.1.26-.15.44-.86,1.3-1.52,3.32-2.34,4.82,2.1-5.38,2.47-11.88-.07-17.09-5.14.65-9.96,3.13-13.66,6.72l.88-3.94c4.91-4.22,10.86-7.14,17.17-8.62.33,5.98-.35,11.93-1.83,17.68Z" fill="#2c2d37"/>
        <path d="M80.94,12.56c-1.41,1.37-2.55,3.02-3.8,4.53-.05-.02-1-.11-1.1-.15-.37-.15-1.61-.7-1.83-1.02.19.05.49.33.66.29,2.1-2.74,4.32-5.34,6.94-7.6l-.88,3.94Z" fill="#f66e1c"/>
        <path d="M56.1,16.07c-.18.06-1.46,1.04-1.68,1.02-.15-.21-.57-.37-.66-.44-.91-.73-2.4-3.17-3.51-4.24l-.88-3.65c2.53,2.18,4.91,4.47,6.72,7.3Z" fill="#f66e1c"/>
        <path d="M36.96,23.67c.88,1.53,1.86,3.08,3.07,4.38-.34.33-.67.69-1.02,1.02-2.42-3.38-4.14-7.31-4.97-11.4.62,1.84,1.94,4.28,2.92,5.99Z" fill="#f66e1c"/>
        <path d="M94.67,22.94c-1,1.85-1.98,3.78-3.51,5.26-3.54-3.49-9.65-8.9-14.03-11.1,1.24-1.51,2.39-3.16,3.8-4.53,3.7-3.59,8.52-6.07,13.66-6.72,2.55,5.21,2.18,11.71.07,17.09Z" fill="#edcfa6"/>
        <path d="M50.26,12.42c1.11,1.07,2.59,3.51,3.51,4.24.03.23.42.27.22.58-.11.16-2.88,1.58-3.36,1.9-3.86,2.59-7.26,5.68-10.59,8.91-1.21-1.3-2.19-2.85-3.07-4.38-2.44-5.57-2.88-12.24-.22-17.82,5.02.65,9.87,3.07,13.51,6.57Z" fill="#edcfa6"/>
        <g>
          <path d="M68.23,59.17c3.24,1.66,1.16,5.33-1.83,5.7-4.23.52-7.87-3.57-3.73-5.7,1.41-.72,4.15-.72,5.55,0Z" fill="#2c2d37"/>
          <g>
            <path d="M62.68,59.17c-4.14,2.13-.5,6.22,3.73,5.7,2.98-.37,5.07-4.04,1.83-5.7,1.84-13.7,12.71-25.7,26.88-26.59,3.09,3.06,6.36,5.83,10.67,6.94l-8.91,6.72c2.44.62,1.72,4.34,2.63,6.28l-5.33-.37c-5.66.34-10.15,3.97-14.76,6.87-.34.22-1.04.52-.95,1.02-.13-.11-.33-.18-.51-.15-.39.06-5.69,3.55-6.65,4.09-1.49.85-3.45,2.49-5.19,2.63-2.33.19-4.41-1.39-6.36-2.48-2.35-1.33-4.59-2.92-6.87-4.38-2.25-1.44-4.31-3.39-6.65-4.68-4.34-2.38-9.81-3.58-14.68-2.41.55-2,.28-5.62,2.48-6.43l-8.91-6.72c4.4-1.03,7.54-3.89,10.67-6.94,14.24,1,24.83,12.9,26.88,26.59Z" fill="#f4f7dd"/>
            <g>
              <path d="M80.14,41.93c4.21-.72,4.68,5.16,1.31,5.7-4.07.65-4.55-5.14-1.31-5.7Z" fill="#2c2d37"/>
              <path d="M81.16,42.66c1.85-.61,1.85,2.51,0,1.9-.69-.23-.69-1.67,0-1.9Z" fill="#fff"/>
            </g>
            <g>
              <path d="M48.29,41.93c4.23-.76,4.59,5.12,1.46,5.7-4.15.77-4.73-5.11-1.46-5.7Z" fill="#2c2d37"/>
              <path d="M49.16,42.51c1.18-.15,1.56,1.84.44,2.05-1.44.26-1.63-1.89-.44-2.05Z" fill="#fff"/>
            </g>
          </g>
        </g>
      </g>
    </g>
  </g>
</svg>