<?xml version="1.0" encoding="UTF-8"?>
<svg id="uuid-59ac2fb0-77e6-4d6b-b3ee-457b807eec9b" data-name="Ebene 2" xmlns="http://www.w3.org/2000/svg" viewBox="0 0 37.6 43.34">
  <g id="uuid-4d860f52-2fea-4b81-895d-a1fa951f2fc6" data-name="Ebene 1">
    <g>
      <path d="M12.52,17.81s-.01.06.03.09c.66.52,2.43.57,3.29.62,1.46.08,1.64-.23,2.67.94v23.88s-.06,0-.09,0-.06,0-.09,0c-.19-.12-.45-.11-.66-.16-.14-.04-.31-.14-.42-.17-.03-.09-.11-.1-.19-.12-.77-.24-1.33-.61-2.02-1-.08-.05-.12-.11-.11.04-.07-.05-.16-.08-.24-.14,0,0-.01-.03-.09-.09s-.15-.13-.24-.19c-.11-.08-.2-.22-.33-.24-.04-.05-.07-.06-.09-.09-.05-.06-.07-.15-.19-.14-.04-.05-.07-.07-.09-.09-.06-.07-.14-.21-.24-.24-.01,0-.03,0-.05,0-.03-.12-.12-.11-.19-.14,0-.02.01-.06-.01-.08-.02-.02-.07,0-.08-.01-.09-.17-.13-.2-.24-.33-.08-.11-.16-.16-.24-.24-.01-.01-.03-.07-.09-.14-.02-.02-.03-.03-.05-.05,0-.09-.06-.15-.14-.19-.02-.03-.03-.07-.05-.09-.2-.3-.38-.59-.57-.9-.11-.27-.26-.51-.39-.77-.06-.12-.01-.14-.13-.27-.03-.03-.06-.06-.09-.09,0-.01,0-.03,0-.05-.02-.11-.05-.25-.14-.33,0-.02,0-.03,0-.05-.01-.08-.03-.18-.09-.24,0-.03,0-.06,0-.09-.02-.13-.06-.32-.14-.42,0-.03,0-.06,0-.09.05-.32-.17-1.06-.24-1.44-.02-.09.05-.19-.1-.16,0-.1-.04-.19-.05-.28l-.19-5.19s-.07.04-.09.05v-.71s.04-.08.05-.14c0-.03,0-.06,0-.09,0-.05,0-.09,0-.14.02-.45-.01-.94,0-1.37,0-.09.04-.18.05-.26.02-.48-.02-.96.05-1.44.32-.04-.05-.6.18-.68-.03-.63.08-1.16.06-1.77,0-.08,0-.16,0-.24,0-.05,0-.09,0-.14.07-.09.04-.19.05-.28,0-.05,0-.1,0-.14,0-.01.04-.07.05-.14,0-.05,0-.1,0-.14,0-.02.04-.07.05-.14.1-.67.25-1.66.52-2.27.03-.07.31-.51.38-.59.15-.2.79-.73,1.04-.59ZM17.37,41.58c.13-.17-.05-.57-.08-.77-.74-5.7-.76-11.35-.53-17.08.05-1.28.16-2.54.19-3.82,0-.25.16-.55-.09-.75-.13-.06-.35-.01-.38.14-.08,2.19-.17,4.38-.23,6.56-.14,4.73-.2,9.66.48,14.39.07.52.17,1.03.28,1.54l.36-.2ZM12.1,19.28l-.44,4.92c-.26,3.99-.54,10.26,1.09,13.92.14.33.57,1.4.84.62-1.2-2.2-1.45-4.72-1.55-7.19-.15-3.66.05-7.31.38-10.94-.02-.4.51-1.8-.33-1.34ZM14.73,19.23l-.36-.05c-.15.3-.07.61-.1.91-.36,3.98-.58,7.98-.42,11.99.08,2.16.24,4.56.77,6.64.11.44.47,1.75.72,2.06.16.2.46.09.45-.21,0-.08-.08-.07-.1-.11-.64-1.61-1.01-3.42-1.17-5.14-.49-5.1-.14-10.18.18-15.28.01-.19.15-.68.04-.81ZM15.28,38.95v.05s.03-.03,0-.05Z" fill="#6e3514"/>
      <path d="M25.6,17.85s.03.02.05.05c.23.35.63.61.85,1.09,0,.02,0,.07,0,.09.26.61.47,1.41.52,2.08.08,1.06.19,2.16.28,3.23,0,.09-.05.19.09.17,0,.09,0,.19,0,.28-.08.07-.08.3,0,.38,0,.02,0,.03,0,.05,0,.2-.04.83.05.94.03.04.05.05.09.05,0,.08,0,.16,0,.24,0,0-.04.06-.05.14-.02.29.05.6.05.87v.85c0,.12,0,.24,0,.35,0,.13,0,.25,0,.38-.06,0-.04.07-.05.12-.04.32,0,.8,0,1.14,0,.08-.03.21.05.26,0,.11,0,.22,0,.33,0,.05,0,.09,0,.14-.01.17-.08.44-.09.61-.03.27-.08.58-.1.87,0,.11-.03.31.05.4-.02.19-.03.38-.05.57,0,.03,0,.06,0,.09-.02.19-.07.41-.09.61,0,.05,0,.1,0,.14-.04.3-.19.66-.19.99,0,.03,0,.06,0,.09-.07.14-.09.32-.14.47-.02.05,0,.04,0,.05-.02.05-.04.09-.05.09-.35,1.07-.76,1.81-1.18,2.78,0,.01,0,.03,0,.05s0,.03,0,.05c0,0-.07.1-.09.14,0,.01-.03.03-.05.05-.06.1-.16.23-.24.33-.05.07-.13.17-.19.24-.05.06-.08.13-.09.14-.01.02-.03.03-.05.05-.1.11-.22.17-.28.24-.13.12-.33.28-.38.42-.02.01-.03.03-.05.05s-.03.03-.05.05c-.02.01-.03.04-.05.05-.02,0-.07,0-.09,0l.05.05v.05c-.14-.03-.13.13-.14.14,0,0-.04,0-.05,0-.04.03-.07.07-.09.09-.12.11-.25.22-.38.33-.02.01-.08.04-.14.09-.02.01-.03.03-.05.05-.02.02-.07.04-.14.09-.02.01-.03.03-.05.05-.13.03-.27.12-.33.24-.03.02-.06.03-.09.05-.09.05-.07.04-.14.09-.04.03-.09.05-.14.09-.19.08-.49.18-.57.38-.23,0-.3.09-.52.19-.12.06-.28.07-.38.19-.01,0-.03,0-.05,0-.06.02-.09.05-.09.05-.05.02-.09.02-.14.05-.04.02-.08.04-.09.09-.01,0-.03,0-.05,0-.35-.01-.95.25-1.42.28v-23.88c.48-.56.71-.88,1.53-.95,1.17-.09,3.34.09,4.32-.5.07-.04.12-.15.14-.16.09-.06.41-.03.52,0ZM24.37,18.95c-.36-.09-.41.43-.18.58.06.04.16.03.23.07.03-.24.08-.44-.05-.65ZM22.38,19.59c.17-.19-.02-.65-.25-.6-.11.02-.19.93.25.6ZM20.27,41.59l.35-.06.07-.07c.08-.8.24-1.6.33-2.41.69-6.16.49-12.82.1-19.01-.02-.38.16-1.13-.47-.79.01.26,0,.53,0,.8.04,1.36.14,2.74.19,4.11.19,5.23.24,10.53-.4,15.74-.03.27-.31,1.57-.17,1.7ZM22.3,40.93c.19-.62.48-1.26.64-1.88.7-2.66.78-5.5.82-8.24.06-3.82-.17-7.65-.52-11.47-.04-.22-.49-.32-.48.24.03,1.19.21,2.51.29,3.73.33,5.13.66,11.45-.82,16.41-.11.36-.3.68-.37,1.05l.33.03v.1s.1.04.1.04ZM25.45,19.23l-.33-.06s-.07.13-.08.17c-.02.88.32,1.93.33,2.83.13,1.95.27,3.91.29,5.85.02,3.08-.07,7.52-1.4,10.31-.06.13-.22.27-.25.41-.04.19.09.36.29.29.11-.04.31-.43.38-.56,1.25-2.4,1.36-6.23,1.42-8.9.07-3.1-.04-6.46-.5-9.52-.04-.27-.09-.55-.15-.82ZM21.87,20.08c-.1-.03-.29,0-.31.12.07.22-.06.5.25.54.11.01.05-.01.07-.07.06-.19.07-.4,0-.59ZM20.21,20.18l-.15-.04c-.28.02-.31.77.16.6-.04-.16.1-.44-.01-.56ZM24.32,20.32c-.42-.08-.35.32-.27.6h.33c.02-.23.09-.39-.05-.6ZM26.5,21.72l-.05-.48-.2-.12c-.19.1-.15.64.04.66.04,0,.2-.04.21-.05ZM22.44,21.16l-.34.03c-.1.25-.05.72.29.56l.04-.59ZM24.85,22.01l.02-.47-.35-.09c.02.14-.04.37,0,.49.03.08.15.04.11.17.11-.04.12-.18.21-.09ZM20.21,21.54l-.23.02c-.32.85.62.75.23-.02ZM24.18,22.16c-.09-.02-.24-.03-.27.07,0,.24-.12.61.25.53.16-.17.14-.41.02-.6ZM21.72,22.34c-.23-.1-.25.65-.01.69.22.04.31-.41.18-.56-.04-.04-.1-.03-.12-.05-.05-.03-.04-.08-.04-.08ZM26.74,22.95h-.33s.03.08.03.08c-.15.02-.11.4.01.46.36.18.32-.32.28-.54ZM20.21,23.65c.07-.09.09-.5-.04-.58-.28-.17-.34.32-.28.51.04.11.25.15.31.07ZM22.67,23.15c-.31-.19-.44.66-.06.65.2,0,.18-.53.06-.65ZM24.61,23.33l.02.52c.46.24.49-.69-.02-.52ZM24.27,24.37l-.37-.05c0,.19-.03.38.05.56h.32s0-.51,0-.51ZM22.19,25.16c.21-.24.09-.84-.28-.58v.51s.28.07.28.07ZM26.73,25.12c.11-.22.11-.72-.25-.6-.16.05-.14.77.25.6ZM20.45,25.83c.09-.18.18-.52-.02-.66-.37-.27-.47.71.02.66ZM25.07,25.77c.05-.11.04-.5-.12-.55-.39-.11-.26.71-.04.7.01,0,.15-.14.15-.15ZM22.81,25.41c-.5-.17-.36.83-.05.65.09-.06.14-.53.05-.65ZM24.47,26.54l-.25-.04c-.16.03-.19.62,0,.69.34.12.24-.42.25-.65ZM26.46,27.14l.23.04c.47-.7-.51-.96-.23-.04ZM22.2,26.64c-.1-.02-.28-.04-.32.07-.11.85.54.61.32-.07ZM25.17,27.02c-.36-.05-.28.11-.28.34,0,.05-.06.24.09.26.33.05.28-.4.2-.61ZM22.59,28.32c.34.19.45-.83-.04-.59-.1.2-.08.41.04.59ZM24.61,28.99c.03-.24.18-.66-.16-.7-.25.19-.11.39-.12.65l.28.05ZM26.87,28.53h-.28c-.01.19-.07.36.02.56l.27.02c.03-.12.1-.25.09-.37,0-.08-.07-.06-.08-.09-.02-.04-.01-.1-.02-.11ZM22.19,28.86c-.06-.03-.26-.02-.3.03v.57c.52.19.16-.33.4-.45-.05-.02-.08-.14-.1-.16ZM24.85,30.02c.53.32.52-.73.04-.53l-.04.53ZM22.54,30.54l.18.04c.49-.73-.42-.93-.18-.04ZM24.24,31.11c.1.01.28.04.32-.07.04-.29.04-.54-.32-.49-.03.2-.07.36,0,.56ZM26.86,31.15c.09-.12.06-.33,0-.46-.62-.27-.35.95,0,.46ZM22.14,31.86c.18-.2.09-.71-.27-.6-.06.23-.11.47.09.63.05.03.14,0,.18-.04ZM24.89,31.59h-.2c-.09.01-.14.6,0,.65.09.01.26.04.29-.07l-.09-.58ZM22.81,32.86c.13-.29.13-.89-.3-.57l.03.51.27.05ZM24.08,32.63c-.25.07-.12.72.13.65.21-.15.07-.37.07-.58l-.07-.08s-.08,0-.13,0ZM26.41,33.47c.39.14.45-.62.19-.69-.33-.09-.23.52-.19.69ZM22.15,33.29h-.28s.03.56.03.56c.37.24.36-.5.25-.56ZM24.85,33.62c-.56-.15-.29.81-.05.61.04-.22.11-.39.05-.61ZM22.35,35.36c.11,0,.21-.05.23-.16.05-.26.09-.63-.28-.53-.16.27-.11.44.04.7ZM23.96,35.36c.33.05.35-.03.31-.34-.02-.18-.05-.32-.27-.27-.09.21-.13.38-.05.6ZM21.65,35.94c-.13.14-.15.68.2.6.26-.15.05-.86-.2-.6ZM24.71,36.5l-.02-.52-.31-.09c-.04.33-.15.69.33.61ZM23.95,36.92c-.25-.05-.32.08-.32.31s.04.28.26.3l.1-.07-.04-.54ZM22.33,37.9c.05-.15.09-.47-.11-.51-.45-.09-.33.79.11.51ZM23.46,38.16c-.26.08-.09.68.08.65s.34-.77-.08-.65ZM21.63,38.44s-.17-.1-.2-.1c-.25,0-.25.77.09.66.11-.04.17-.46.11-.55Z" fill="#6e3513"/>
      <path d="M6.57,29.75c.07.3.03.72.1,1.06.02.1-.05.17.09.07.01.09.04.17.05.24,0,.03,0,.06,0,.09.08.57.19,1.13.28,1.7.16.94.39,1.85.52,2.76.01.09-.06.19.09.16.01.37-.03.54-.24.85-.01,0-.03,0-.05,0-.07.03-.24.13-.28.14-.24.06-.65.06-.9.05-.09,0-.48-.06-.52-.09,0,0,.01-.06-.01-.08-.03-.03-.08,0-.08-.01,0,0,0-.07,0-.09-.07-.38-.12-.91-.14-1.3-.08-1.49.07-3.02.19-4.49,0-.1-.05-.25-.05-.26,0,0,.09-.03.1-.12.02-.36,0-.57.09-.97.06-.23.08-.34.24-.52.03.22.11.4.26.57.07.08.24.14.26.23Z" fill="#3e2b1c"/>
      <path d="M31.65,28.94s0,.03,0,.05c.15.57.3,1.17.33,1.77,0,.08-.06.16-.05.23,0,.03.09,0,.1.1.02.15-.05.29-.05.38.01.16.09.47.09.68,0,.17.03.35-.04.5l.09.05c-.14,1.22.12,2.55-.16,3.76-.07.3-.32.34-.6.32,0,.03,0,.06,0,.09-.25,0-.61.02-.85-.05-.09-.03-.28-.14-.38-.19-.03-.02-.06-.03-.09-.05-.12-.24-.16-.44-.14-.71.15.03.08-.07.1-.16.21-1.15.47-2.16.61-3.33.02-.21.08-.42.09-.61.15.03.08-.08.1-.16.12-.62.21-1.24.24-1.87.02,0,.25-.19.27-.21.11-.11.28-.45.25-.6h.09Z" fill="#3d2b1c"/>
      <path d="M31.27,19.22s.03.04.05.05c.04.03.07.16.19.14.01.02.03.03.05.05.15.16.14.19.33.28.03.02.06.03.09.05-.03.21.18.24.28.35.25.28.47.66.69.97l.11.1s.03.06.05.09c.03.05.07.1.09.14s.07.1.09.14c.15.25.12.25.33.47,0,0,0,.03,0,.05.07.17.16.34.24.52.04.1.1.25.16.38.26.56.5,1.14.78,1.69,0,.06-.05.17-.05.26,0,.11.05.22.03.31-.04.16-.22.14-.22.28-.08.08-.21.14-.32.18-.09.03-.42.14-.49.15-.17.03-.4-.01-.57-.05-.05-.01-.13-.07-.19-.09-.02-.14-.15-.28-.19-.38-.03-.08-.06-.19-.09-.28-.06-.17-.08-.35-.14-.52.08-.03,0-.15-.01-.2-.16-.5-.34-1-.51-1.5s-.4-1.57-.71-1.93c-.04-.05-.05-.11-.14-.09,0-.02,0-.03,0-.05-.02-.25-.06-.35-.19-.57-.01-.02.01-.09-.05-.09h-.05v-.09c.22-.29.13-.5.14-.85.07.03.16.03.19.05Z" fill="#3d2b1c"/>
      <path d="M31.37,36.87c0,.09.13.42.24.38,0,.02,0,.03,0,.05,0,.11.14.36.24.42,0,.01,0,.03,0,.05.05.14.17.25.24.38.03.06.06.09.09.14.08.13.11.24.24.38.02.02.03.03.05.05.01.1.05.2.14.24,0,.01,0,.03,0,.05.02.07.07.15.14.19,0,.01,0,.03,0,.05.05.13.18.33.28.42.01.04.04.08.05.09.08.25.16.29.09.57,0,.02,0,.04,0,.05-.15.07-.25.04-.38-.05-.02-.07-.05-.06-.09-.09-.04-.14-.16-.29-.28-.38-.11-.16-.23-.31-.33-.47l-.05-.09c-.09-.14-.16-.3-.28-.42l-.47-.85c.04.51.2,1,.24,1.51,0,.06-.03.16.05.19,0,.02,0,.03,0,.05,0,.08-.03.2.05.24,0,.02,0,.03,0,.05,0,.25.11.76.04.96-.03.09-.2.09-.28.08-.03,0-.06-.04-.09-.05,0-.08-.06-.17-.09-.24.03-.14-.07-.28-.09-.38,0-.03,0-.07,0-.09-.04-.22-.1-.44-.14-.66,0-.03,0-.06,0-.09-.08-.42-.16-.85-.24-1.27,0-.03,0-.06,0-.09-.01-.07.03-.2-.05-.24,0-.03,0-.06,0-.09,0-.18-.08-.3-.09-.42,0-.03,0-.06,0-.09-.03-.16-.07-.37-.05-.52.24.07.6.06.85.05Z" fill="#6b3212"/>
      <path d="M3.87,25.88s-.03.03-.05.05-.03.03-.05.05c-.06.06-.09.12-.14.19-.06.09-.09.16-.14.24-.14.22-.29.43-.43.66-.03.05-.07.1-.09.14l-.3.48c-.17.34-.34.68-.5,1.03-.09.2-.17.42-.28.61-.06.01-.1.05-.14.09h-.05c-.23.03-.21-.1-.28-.19.07-.09.05-.23.09-.36.1-.3.29-.65.44-.93.02-.04.12-.16.04-.17.19-.35.41-.68.57-1.04-.08.13-.18.13-.28.21-.21.16-.4.34-.61.5-.02.01-.06.02-.09.05s-.12.03-.13.06c-.02.03,0,.07,0,.09-.21.06-.21.13-.38.24-.13.08-.24.17-.38.24-.22.11-.47.28-.66.05,0-.03,0-.08,0-.09l.09-.24c.2-.16.37-.35.57-.52.09-.08.21-.13.33-.24.02-.01.03-.03.05-.05l.28-.19s.04,0,.05,0c.19-.1.35-.26.52-.38.11-.08.22-.15.33-.24l.09-.05c.13-.1.22-.19.33-.28.06-.05.24-.06.24-.24l.09-.05c.28.09.6.25.9.28Z" fill="#6a3212"/>
      <path d="M34.77,25.69c.1.09.16.18.28.28.25.2.53.4.8.57.06.03.12.12.19.14.01,0,.03,0,.05,0,.02.05.05.07.09.09.09.06.16.12.28.09h.05s.04.06.05.09c0,.02-.01.05.01.08.01.02.35.24.37.25.01,0,.03,0,.05,0,.04.15.23.19.28.24.1.09.15.19.28.28.06.17.09.33-.05.47-.04,0-.11,0-.14,0-.1-.02-.23-.1-.33-.14-.03-.01-.06-.03-.09-.05-.01-.02-.03-.03-.05-.05s-.03-.04-.05-.05c-.01,0-.03,0-.05,0-.02-.07-.07-.09-.14-.09-.01-.02-.03-.03-.05-.05-.13-.15-.35-.27-.52-.38-.08-.05-.11-.14-.24-.14-.01-.05-.05-.07-.09-.09-.03-.02-.07-.03-.09-.05-.12-.09-.39-.38-.5-.42-.13-.05-.03.16-.02.19.23.6.66,1.13.88,1.74.05.13.2.51.06.6-.1.04-.22.04-.31-.02-.23-.16-.41-.91-.63-1.14-.05-.1-.15-.26-.24-.33,0-.01,0-.03,0-.05-.02-.07-.08-.18-.14-.24-.01-.05-.03-.09-.05-.14-.08-.23-.26-.42-.38-.61-.01-.02-.03-.06-.05-.09-.08-.13-.13-.33-.28-.42,0-.01,0-.03,0-.05-.04-.12-.16-.23-.24-.33.07-.01.39-.12.49-.15.11-.04.23-.1.32-.18h.05c.02.08.1.1.14.14Z" fill="#6a3212"/>
      <path d="M7.13,36.83c-.06.39-.17.78-.19,1.18,0,.06-.03.03,0,.14-.06.02-.04.09-.05.14,0,.03,0,.06,0,.09,0,.05-.03.13-.05.19,0,.04,0,.1,0,.14-.07.33-.17.61-.19.99,0,.03,0,.06,0,.09l-.33,1.23s-.03.04-.05.05c-.03,0-.07,0-.09,0l-.23-.08c-.07-.78.23-1.52.36-2.27.03-.15.09-.5.06-.62,0-.03-.07-.11-.09-.09-.09.23-.21.49-.33.71-.14.25-.31.48-.47.71-.1.14-.25.25-.28.42-.08.09-.13.18-.19.24-.11.11-.2.24-.33.33,0-.01-.07,0-.09,0-.03-.01-.06-.04-.09-.05-.1-.39-.02-.35.09-.66.02-.05.04-.08.05-.14.07-.03.12-.12.14-.19,0-.01,0-.03,0-.05l.09-.14s.03-.08.05-.09l.09-.09s0-.03,0-.05c.09-.03.1-.12.14-.19.02-.03.03-.06.05-.09l.05-.09s.03-.06.05-.09c.1-.07.19-.22.24-.33,0-.01,0-.03,0-.05.1-.07.17-.22.24-.33.02-.03.03-.06.05-.09l.09-.14c.04-.07.06-.14.09-.19.09-.14.25-.27.24-.47.25.02.66,0,.9-.05Z" fill="#6b3212"/>
      <path d="M32.17,32.15c.02.35.04.75.05,1.09,0,.03,0,.06,0,.09.01.93-.05,1.81-.09,2.74,0,.06,0,.13,0,.19l-.14.42c-.07.05-.18.1-.24.14-.12.05-.25.04-.38.05,0-.03,0-.06,0-.09.28.02.53-.02.6-.32.27-1.22.01-2.55.16-3.76l-.09-.05c.07-.15.05-.33.04-.5h.09Z" fill="#211a12"/>
      <path d="M5.62,36.59c-.08-.07-.12-.23-.14-.33,0-.03,0-.06,0-.09-.02-.11-.04-.29-.05-.38,0-.06,0-.13,0-.19-.03-.45,0-.9-.05-1.34l.05-1.72s0-.09,0-.14c.01-.21.03-.41.05-.61,0-.06,0-.13,0-.19.02-.33.06-.7.09-1.04h.05s.06.16.05.26c-.12,1.47-.28,2.99-.19,4.49.02.38.08.92.14,1.3Z" fill="#211a12"/>
      <path d="M10.06,29.09s.08-.06.09-.05l.19,5.19s0-.03,0-.05,0-.03,0-.05c-.02-.2-.07-.41-.09-.61-.02-.13,0-.23-.05-.38,0-.05,0-.09,0-.14,0-.16,0-.27-.05-.42,0-.03,0-.06,0-.09,0-.22,0-.35-.05-.57v-.33c0-.14,0-.28,0-.42-.01-.39-.04-.78-.05-1.18.08-.06.08-.27,0-.33,0-.14,0-.28,0-.42l.05-.02-.05-.02v-.09Z" fill="#541908"/>
      <path d="M10.06,29.09c-.53.13-1.03.32-1.55.46-.57.15-1.31.41-1.85.2-.02.32.01.63.05.94,0,.06.04.13.05.19-.14.09-.07.03-.09-.07-.06-.34-.02-.76-.1-1.06.25-.06.52.04.78,0,.07-.01.13-.07.2-.09.82-.14,1.6-.4,2.4-.63l.07-.07c.03-.15-.01-.32,0-.47,0-.07.05-.11.05-.11v.71Z" fill="#110e0b"/>
      <path d="M30.61,32.39c-.14,1.17-.4,2.18-.61,3.33-.02.09.05.19-.1.16.02-.38.16-.68.14-1.09,0-.02,0-.03,0-.05.1-.04.08-.08.1-.16.1-.48.23-.97.23-1.44,0-.03,0-.06,0-.09h.09s0-.09,0-.09c.01,0,0-.07,0-.09.06-.18.03-.34.14-.47Z" fill="#1c150f"/>
      <path d="M31.93,29.56s0,.1,0,.14c.14.74.19,1.69.24,2.45h-.09c0-.21-.08-.52-.09-.68,0-.1.07-.24.05-.38-.01-.09-.1-.06-.1-.1,0-.07.06-.16.05-.23-.03-.6-.18-1.2-.33-1.77.11.12.25.41.28.57Z" fill="#201912"/>
      <path d="M7.32,33.76s0,.07,0,.09c.13.59.36,1.4.38,1.98-.15.03-.08-.08-.09-.16-.13-.91-.36-1.82-.52-2.76.11.27.18.57.24.85Z" fill="#211a12"/>
      <path d="M31.04,29.75c-.02.63-.12,1.25-.24,1.87-.02.09.06.19-.1.16,0-.03,0-.06,0-.09s0-.07,0-.09c.06-.02.05-.09.05-.14,0-.03,0-.06,0-.09.09-.24.11-.51.14-.76,0-.03,0-.06,0-.09.01-.12.05-.21.05-.38,0-.03,0-.06,0-.09,0-.11.05-.27-.09-.24v-.05c.05,0,.15.01.19,0Z" fill="#201912"/>
      <path d="M30.85,29.75v.05s-.08.04-.09.05c-.03,0-.06,0-.09,0-.5.01-1.18-.23-1.65-.38.63.06,1.19.33,1.84.28Z" fill="#110e0b"/>
      <path d="M6.19,41.07s-.05.05-.14.05c-.02,0-.04,0-.05,0l-.09-.09s0-.03,0-.05c-.07-.25.01-.59.05-.85,0-.03,0-.06,0-.09,0-.04.03-.11.05-.19,0-.03,0-.06,0-.09.06-.36.17-.73.24-1.09,0-.03,0-.07,0-.09.03-.15.07-.33.14-.47.03.13-.03.48-.06.62-.13.75-.43,1.49-.36,2.27l.23.08Z" fill="#541908"/>
      <path d="M10.39,34.51c.15-.03.08.07.1.16.07.38.29,1.13.24,1.44l-.19-.71s0-.06,0-.09c0-.05.01-.12-.05-.14,0,0,0-.07,0-.09,0-.05.01-.12-.05-.14,0-.03,0-.07,0-.09,0-.02-.02-.04-.05-.05,0-.01,0-.03,0-.05l.05-.02-.05-.02s0-.03,0-.05c0-.05,0-.1,0-.14Z" fill="#541908"/>
      <path d="M27.49,31.68c-.02.07.01.24,0,.33-.03.3-.06.63-.09.94-.08-.09-.06-.29-.05-.4.02-.29.07-.6.1-.87h.05Z" fill="#541908"/>
      <path d="M31.75,40.84s0,.06,0,.09l-.09.14s-.07.03-.09.05h-.09s-.06,0-.09,0v-.05c.08,0,.25,0,.28-.08.07-.2-.03-.71-.04-.96.13.22.12.55.14.8Z" fill="#541908"/>
      <path d="M28.96,29.46c-.1,0-.17,0-.24,0-.03,0-.06,0-.09,0v-.09s-.09,0-.09,0h-.05c-.15-.1-.34-.14-.52-.19.07-.16.09-.05.15-.03.29.07.58.16.85.31Z" fill="#110e0b"/>
      <path d="M35.48,27.43s.03.06.05.09c.09.16.12.39.28.52.01.04.03.1.05.14l.05.05s0,.03,0,.05c.06.15.15.34.24.47,0,.02,0,.03,0,.05.02.13.07.25.09.38-.02,0-.04,0-.05.02,0,.02,0,.05,0,.07-.03.02-.04.09-.05.09-.04.03-.18.04-.24.05-.04,0-.09-.03-.14-.05,0-.13-.14-.13-.14-.14,0,0-.02-.08-.05-.14-.02-.03-.02-.09-.05-.14-.13-.26-.25-.55-.38-.8.22.22.41.97.63,1.14.09.07.21.06.31.02.13-.09-.02-.47-.06-.6-.22-.61-.65-1.14-.88-1.74l.33.47Z" fill="#541908"/>
      <path d="M26.5,37.49s0,.03,0,.05v.05s-.08,0-.12.05c-.03.03-.01.08-.02.1-.02.04-.03.06-.05.09-.04.08-.06.17-.09.24l-.05.05c-.03.06-.07.12-.09.19l-.05.05s0,.03,0,.05l-.14.28s-.03.03-.05.05c-.05.04-.08.11-.14.14.42-.97.83-1.72,1.18-2.78,0,.14-.04.28-.08.41-.08.27-.29.71-.33.94,0,.05.04.06.04.06Z" fill="#541908"/>
      <path d="M2.98,27.2c-.04.06-.06.17-.09.24-.07.13-.12.25-.19.38-.05.1-.09.19-.14.28-.03.06-.06.12-.09.19-.01.03-.03.07-.05.09-.02.01-.04.03-.05.05,0,.01,0,.03,0,.05l-.05.05s0,.03,0,.05l-.14.14c.16-.35.33-.69.5-1.03l.3-.48Z" fill="#541908"/>
      <path d="M17.24,43.01c-.07-.02-.16-.03-.24-.05-.01,0-.03,0-.05,0-.12-.1-.31-.17-.47-.19-.06-.1-.36-.18-.47-.24-.09-.05-.19-.09-.28-.14-.03-.02-.06-.03-.09-.05s-.07-.03-.09-.05c-.04-.02-.04-.05-.14-.09-.01-.02-.03-.03-.05-.05-.07-.06-.13-.13-.24-.14h-.05c-.06-.03-.09-.06-.14-.09-.01-.15.03-.08.11-.04.69.4,1.25.76,2.02,1,.07.02.16.03.19.12Z" fill="#541908"/>
      <path d="M1.42,29.23c-.03-.19.06-.34.09-.52,0-.02,0-.03,0-.05l.33-.66s.03-.07.05-.09l.05-.05s0-.03,0-.05c0-.02.04-.03.05-.05.08.01-.02.13-.04.17-.14.28-.34.64-.44.93-.04.12-.02.27-.09.36Z" fill="#541908"/>
      <path d="M11.72,38.52c-.13-.22-.31-.46-.43-.71-.01-.03-.04-.07-.05-.09-.03-.07-.04-.16-.05-.24.12.13.07.15.13.27.13.26.28.5.39.77Z" fill="#541908"/>
      <path d="M10.06,29.98c0-.11,0-.22,0-.33.08.06.08.27,0,.33Z" fill="#6e3514"/>
      <path d="M31.6,39.8c0,.06,0,.13,0,.19-.08-.04-.04-.16-.05-.24h.05s0,.03,0,.05Z" fill="#541908"/>
      <path d="M24.71,40.22c-.15.09-.24.2-.38.33.05-.15.25-.31.38-.42v.09Z" fill="#541908"/>
      <path d="M24.19,40.7l-.05.05-.05-.05s.08,0,.09,0Z" fill="#541908"/>
      <path d="M10.06,29.23s0-.03,0-.05l.05.02-.05.02Z" fill="#6e3514"/>
      <path d="M24.23,40.65s.03-.03.05-.05l-.05.05Z" fill="#541908"/>
      <path d="M25.08,7.61s0,.09,0,.14l.05-.05c1.63.85,1.92,2.86,1.94,4.53,0,1.26-.02,2.43-.57,3.59-.2.42-.34.62-.71.9-.14.11-.28.21-.45.29-.24.11-.6.14-.78.33-.88.15-2.17.19-3.09.24-2.26.11-4.51.02-6.76-.14-.59-.04-1.18-.02-1.77-.14-.52-.11-1.15-.35-1.46-.8l.05-.02s-.07-.05-.09-.07c-.02-.02-.03-.03-.05-.05-.28-.53-.5-1-.65-1.59-.09-.37-.31-1.64-.2-1.94.11-.32.04-.65.06-1.05,0-.08.1-.15-.06-.13,0-.03,0-.06,0-.09h.14s0-.19,0-.19h-.09c.12-1.4.55-2.97,1.89-3.68.01,0,.03,0,.05,0,2.77-1.42,7.91-1.51,10.87-.64.58.17,1.12.44,1.7.59Z" fill="#302319"/>
      <path d="M24.05,2.23c.02.24.09.47.33.57v.05c-.05.05.13.23.18.32.04.06.04.13.05.16-.06.23.02.48,0,.73-.1,1.14-.98,1.51-2.01,1.49-1.59-.03-3.14-.3-4.77-.24-.69.03-1.39.15-2.08.19-1.07.07-2.09.19-2.56-.98-.12-.29-.27-1.24-.11-1.48,0,0,.06.02.09-.04.05-.07.05-.23.06-.24.05-.05.25-.05.31-.12.07-.08.13-.35.11-.46v-.05c.22-.04.41-.37.56-.5.2-.17.44-.34.66-.49l1.27-.6c2.39-.87,4.93-.5,6.95.88.28.19.44.43.68.66l.1.04" fill="#302319"/>
      <path d="M24.61,3.32c.52.87.69,1.89.66,2.95-.01.45-.18.91-.19,1.35-.58-.15-1.12-.42-1.7-.59-2.95-.87-8.09-.78-10.87.64-.02-.39-.11-.79-.19-1.18,0-.02,0-.03,0-.05.16-.84.03-1.55.32-2.48.03-.08.21-.16.1-.35.1-.21.16-.36.28-.57h.05c-.17.23-.01,1.18.11,1.48.47,1.17,1.49,1.05,2.56.98.69-.04,1.39-.16,2.08-.19,1.63-.06,3.18.21,4.77.24,1.03.02,1.91-.35,2.01-1.49.02-.25-.06-.5,0-.73Z" fill="#1c150f"/>
      <path d="M24.56,17.33s.03,0,.05,0c.16.14.4.31.47.52-.02.01-.07.12-.14.16-.98.59-3.16.41-4.32.5-.83.07-1.05.38-1.53.95-.05.05-.26.3-.31.28-.06-.13-.19-.2-.26-.28-1.03-1.17-1.21-.86-2.67-.94-.86-.05-2.63-.09-3.29-.62-.05-.04-.03-.09-.03-.09l.43-.52c.59.12,1.18.1,1.77.14,2.25.16,4.5.25,6.76.14.92-.04,2.21-.09,3.09-.24Z" fill="#1c150f"/>
      <path d="M32.5,6.39c.17.04.8.43.94.57.07.06.17.15.19.24l-.05.07.05.02s0,.03,0,.05l-.19.76c-.61,1.19-1.96,3.64-2.88,4.53-.06.06-.15.11-.14.19-.02.02-.03.03-.05.05l-.24.09c-.05-.27-.12-.55-.38-.66.08-.34.2-.68.27-1.02,0-.03-.04-.06-.04-.06.18-.81.45-1.64.76-2.41.19.02.11,0,.15-.11.15-.45.37-.84.58-1.26.02-.04.11-.17.03-.18.21-.37.45-.98.99-.85Z" fill="#3d2b1c"/>
      <path d="M6.14,7.33l.88,2.12c.2.63.42,1.24.57,1.89.02.08-.02.18.11.15.05.19.08.38.14.57-.08.05.02.16,0,.25-.03.1-.41.37-.37.62l-.19-.02c-.07-.07-.12-.11-.19-.19v-.09s-.05.05-.05.05c-1.04-1.2-1.87-2.81-2.65-4.2.13-.1-.07-.18-.09-.22-.31-.5-.49-.86-.05-1.33.15-.16.55-.44.76-.47.69-.12.86.4,1.13.9Z" fill="#3d2b1c"/>
      <path d="M6.52,19.18s0,.03,0,.05c-.03.02-.36.15-.33.09l.33-.19s0,.03,0,.05Z" fill="#211a12"/>
      <path d="M6.57,19.18c.16-.11.11-.24.23-.36.07-.07.45-.24.54-.24.81-.04,1.57.19,2.32.27.29.03.28.01.53.09.07.02.41.09.44-.04.02,0,.03,0,.05,0,.03,0,.07,0,.09,0,.09.02.22.09.33.09-.27.61-.42,1.6-.52,2.27-.32.03-.63-.09-.94-.14-.03,0-.06,0-.09,0,0,0-.02-.03-.09-.05-.03,0-.06,0-.09,0-.59-.19-1.2-.32-1.79-.5-.19-.05-.57-.24-.71-.26-.01,0-.03,0-.05,0-.07-.07-.07-.21-.19-.19,0-.25-.13-.54-.09-.9.02-.01.03-.04.05-.05Z" fill="#211a12"/>
      <path d="M29.05,12.1c.14,0,.57.13.71.19.25.11.33.39.38.66l.24-.09c-.3.35-.1.46-.26.75-.28.5-2.18,1.51-2.76,1.82-.27.15-.56.29-.85.4.54-1.16.58-2.33.57-3.59l.07.52c.52-.1,1.42-.66,1.91-.66Z" fill="#201912"/>
      <path d="M7.84,12.05c.02.06.03.13.05.19.12,0,.21-.1.32-.12.45-.06,1.8.45,2.27.64,0,0,.02.05.05.05-.11.3.11,1.57.2,1.94.14.6.37,1.06.65,1.59-.16-.19-.21-.38-.36-.56-.73-.44-3.15-1.46-3.5-2.16-.15-.29,0-.47-.25-.72l.19.02c-.05-.25.34-.52.37-.62.02-.09-.08-.2,0-.25Z" fill="#201912"/>
      <path d="M4.2,6.9c-.77-.65-1.99-.92-2.77-1.45-.22-.15-.24-.48,0-.51.58-.05,1.79.67,2.34.92l-1.22-1.54c-.12-.28-.29-.52.11-.63.02,0,.03.07.06.09.68.35,1.36,1.58,1.85,2.2.12.16.32.27.42.45-.2.04-.61.32-.76.47h-.05Z" fill="#6b3212"/>
      <path d="M32.5,6.39c.09,0,.13-.06.19-.12.56-.51,1-1.29,1.51-1.87.11-.12.85-1,.98-.62.03.48-.45,1-.75,1.36-.11.13-.58.59-.61.66-.01.03,0,.08.02.07.25-.19.55-.27.83-.38.2-.08.4-.14.6-.23l.25-.15c.15-.05.68-.2.78-.05.04.11.05.25-.05.33-.69.39-1.44.68-2.14,1.07-.23.13-.52.28-.68.48-.15-.13-.77-.53-.94-.57Z" fill="#6a3212"/>
      <path d="M11.97,1.48s.06.11.08.15c.14.23.47.4.67.46.19.05.4.07.6.08.17,0,.33,0,.5,0,0,.06-.01.21-.04.26-.02.04-.1.04-.13.06,0,0,0,.09-.02.13-.02.03-.04.02-.04.02h-.02s.06-.08.06-.13c0-.04-.04-.02-.07-.03-.09,0-.18,0-.27,0l-.37.05c-.62-.05-1.1-.36-1.44-1.05.18.11.32.08.5,0Z" fill="#3d2b1c"/>
      <path d="M11.92.54c.04.24.04.48.04.72,0,.04-.01.12.02.14,0,.02,0,.06,0,.08-.18.08-.32.11-.5,0-.02-.04-.05-.06-.08-.13.04-.02,0-.08,0-.11-.1-.27-.24-.85-.06-1.1.22-.31.53.08.59.4Z" fill="#6e3513"/>
      <path d="M25.77,1.54s-.06.11-.08.15c-.14.23-.47.4-.67.46-.19.05-.4.07-.6.08-.17,0-.33,0-.5,0,0,.06.01.21.04.26.02.04.1.04.13.06,0,0,0,.09.02.13.02.03.04.02.04.02h.02s-.06-.08-.06-.13c0-.04.04-.02.07-.03.09,0,.18,0,.27,0l.37.05c.62-.05,1.1-.36,1.44-1.05-.18.11-.32.08-.5,0Z" fill="#3d2b1c"/>
      <path d="M25.83.59c-.04.24-.04.48-.04.72,0,.04.01.12-.02.14,0,.02,0,.06,0,.08.18.08.32.11.5,0,.02-.04.05-.06.08-.13-.04-.02,0-.08,0-.11.1-.27.24-.85.06-1.1-.22-.31-.53.08-.59.4Z" fill="#6e3513"/>
      <path d="M14.88,1.15C16.2.25,17.8-.07,19.39.01c1.34.07,2.66.6,3.71,1.42-2.03-1.38-4.56-1.75-6.95-.88l-1.27.6Z" fill="#110e0b"/>
      <path d="M24.38,2.85c.23.28.45.61.59.94.43,1.04.51,2.59.25,3.69-.02.08-.04.15-.08.23l-.05.05s0-.09,0-.14c0-.44.18-.9.19-1.35.03-1.06-.15-2.08-.66-2.95-.02-.03-.02-.1-.05-.16-.05-.09-.23-.26-.18-.32Z" fill="#110e0b"/>
      <path d="M12.75,3.6c.11.19-.08.27-.1.35-.3.93-.17,1.64-.32,2.48-.13-.87,0-1.86.32-2.68.03-.07.09-.12.1-.15Z" fill="#110e0b"/>
      <path d="M12.52,7.66s-.03,0-.05,0c-.07-.28-.18-.69-.19-.97,0-.13.04-.15.05-.21.08.39.17.79.19,1.18Z" fill="#110e0b"/>
      <path d="M29.76,12.28c-.14-.06-.57-.19-.71-.19.23,0,.46-.05.66.09l.28-.99s.04.03.04.06c-.07.34-.19.68-.27,1.02Z" fill="#1c150f"/>
      <path d="M10.53,11.62c.16-.02.07.05.06.13-.02.4.05.73-.06,1.05-.03,0-.04-.04-.05-.05.05-.37.02-.76.05-1.13Z" fill="#211a12"/>
      <path d="M31.51,7.24c.08.02-.01.14-.03.18-.21.42-.43.82-.58,1.26-.03.1.04.13-.15.11.21-.53.47-1.06.76-1.56Z" fill="#1c150f"/>
      <path d="M7.7,11.48c-.13.03-.09-.07-.11-.15-.15-.64-.36-1.26-.57-1.89l-.88-2.12c.72,1.31,1.18,2.72,1.56,4.15Z" fill="#1c150f"/>
      <path d="M25.79,16.72c0,.12-.08.12-.14.17-.26.18-.73.39-1.04.45-.02,0-.03,0-.05,0,.18-.19.54-.22.78-.33.16-.07.31-.18.45-.29Z" fill="#211a12"/>
      <path d="M4.25,6.9c-.44.47-.26.84.05,1.33.02.04.22.13.09.22-.29-.53-.79-1.01-.19-1.56h.05Z" fill="#1c150f"/>
      <path d="M33.45,8.08l.19-.76c.16.27-.07.53-.19.76Z" fill="#110e0b"/>
      <path d="M10.58,11.34h.09s0,.19,0,.19h-.14c0-.08.04-.15.05-.19Z" fill="#211a12"/>
      <path d="M35.52,5.11l-.25.15c-.2.09-.4.15-.6.23.25-.18.56-.29.85-.38Z" fill="#541908"/>
      <path d="M11.48,16.49s-.05-.05-.05-.09c.02.02.08.03.09.07l-.05.02Z" fill="#201912"/>
      <path d="M30.42,12.8c0-.08.08-.13.14-.19.01.12-.09.14-.14.19Z" fill="#201912"/>
      <path d="M33.63,7.28l-.05-.02.05-.07s0,.06,0,.09Z" fill="#110e0b"/>
      <path d="M7.09,12.71s-.03-.03-.05-.05l.05-.05v.09Z" fill="#201912"/>
      <path d="M6.52,19.22s0-.03,0-.05h.05s-.03.04-.05.05Z" fill="#3d2b1c"/>
      <path d="M6.52,19.22c-.03.36.1.64.09.9,0,.13-.34.72-.43.9-.21.46-.28.66-.43,1.13-.14.44-.28.88-.43,1.32-.2.61-.41,1.35-.64,1.93-.08.21-.14.32-.35.43-.01,0-.03,0-.05,0-.03,0-.04.05-.05.05-.09.01-.28.01-.38,0-.3-.03-.61-.19-.9-.28-.07-.09-.1-.24-.24-.24,0-.01,0-.03,0-.05-.05-.25-.06-.41,0-.66.01-.04.05-.09.05-.14.02,0,.03-.04.05-.05.02,0,.07.02.1-.03.04-.06.04-.2.08-.29.53-1.05,1.02-2.07,1.67-3.05.13-.2.32-.39.46-.59.04-.06.09-.04,0-.15.14-.08.15-.19.24-.28.25-.27.5-.54.8-.76-.03.05.3-.08.33-.09Z" fill="#3d2b1c"/>
      <path d="M8.55,18.56s.09,0,.14,0c.2.06.41.06.61.09.03,0,.06,0,.09,0,.12.02.28.08.43.09.06,0,.13,0,.19,0,.07.08.18.09.28.09.05,0,.1,0,.14,0,.06.01.13.04.19.05-.02.13-.36.07-.44.04-.25-.08-.24-.06-.53-.09-.75-.08-1.51-.31-2.32-.27-.09,0-.46.17-.54.24-.12.12-.08.25-.23.36h-.05s0-.03,0-.05c.01-.05.19-.39.24-.42.01-.01.25-.13.28-.14.52-.19.99-.03,1.51,0Z" fill="#110e0b"/>
      <path d="M5.15,20.35c.08.11.04.08,0,.15-.14.2-.33.39-.46.59-.66.98-1.14,2-1.67,3.05-.04.08-.04.23-.08.29-.03.05-.08.02-.1.03v-.05s0-.03,0-.05c.02-.01.04-.03.05-.05.03-.05.04-.09.05-.14.1-.07.1-.19.14-.28,0-.01,0-.03,0-.05l.05-.05c.05-.11.09-.22.14-.33.07-.15.25-.32.24-.52,0-.02,0-.04,0-.05.11.03.1-.06.13-.12.11-.21.22-.43.34-.63.11-.19.22-.38.33-.57l.05-.05c.11-.18.12-.27.24-.38.1-.09.1-.18.14-.24s.07-.1.09-.14c.06-.09.33-.25.24-.38.03-.02.07-.03.09-.05Z" fill="#201912"/>
      <path d="M30.14,18.47s.06,0,.09,0c.03,0,.07.04.09.05.09.02.18.01.28.05.04.01.1.11.19.09,0,.03,0,.07,0,.09.03,0,.07,0,.09,0,.08.14.15.41.33.42h.05v.05s-.12-.02-.19-.05c-.02,0-.08.02-.1-.03-.02-.11-.17-.31-.19-.39-.58-.12-.75-.21-1.4-.18-.24.01-.6.15-.85.17-.15.01-.23-.12-.28.05-.4-.06-.81.13-1.22.19l-.02-.1c.96-.16,2.14-.49,3.12-.42Z" fill="#110e0b"/>
      <path d="M34.91,24.74c.02.1,0,.27,0,.38,0,.04-.07.11,0,.19,0,0,.01.02-.05.05-.02,0-.06-.01-.09,0-.02.02,0,.08,0,.09-.04.03-.1.06-.14.09h-.05c0-.15.17-.12.22-.28.02-.09-.04-.2-.03-.31,0-.09.05-.2.05-.26,0-.02,0-.03,0-.05h.05s.05.08.05.09Z" fill="#3e2b1c"/>
      <path d="M33.92,22.62s0,.03,0,.05l.05.05s0,.03,0,.05l.05.05s0,.03,0,.05l.05.05s.03.06.05.09c.06.12.07.28.19.38,0,.02,0,.03,0,.05.01.1.11.3.19.38.02.05.03.09.05.14l.05.05s0,.03,0,.05l.05.05s0,.03,0,.05c.03.09.08.16.09.19.02.05.03.09.05.14.02.05.05.14.05.19,0,.02,0,.03,0,.05-.28-.55-.52-1.13-.78-1.69-.06-.13-.12-.28-.16-.38h.05Z" fill="#1c150f"/>
      <path d="M31.89,19.74c-.19-.09-.18-.12-.33-.28h.05l.28.28Z" fill="#110e0b"/>
      <path d="M19.08,19.46v23.88c-.19.01-.38,0-.57,0v-23.88c.07.08.2.16.26.28.05.01.26-.23.31-.28Z" fill="#46240d"/>
      <path d="M17.37,41.58l-.36.2c-.11-.51-.2-1.02-.28-1.54-.67-4.73-.62-9.65-.48-14.39.07-2.19.15-4.37.23-6.56.03-.15.25-.2.38-.14.26.21.1.5.09.75-.03,1.28-.14,2.55-.19,3.82-.24,5.73-.21,11.38.53,17.08.03.2.21.59.08.77Z" fill="#5b2b0f"/>
      <path d="M14.73,19.23c.12.14-.02.63-.04.81-.32,5.09-.67,10.17-.18,15.28.17,1.72.53,3.54,1.17,5.14.02.04.09.03.1.11.01.3-.29.41-.45.21-.26-.31-.61-1.62-.72-2.06-.52-2.09-.68-4.49-.77-6.64-.16-4,.06-8,.42-11.99.03-.31-.04-.62.1-.91l.36.05Z" fill="#5b2b0f"/>
      <path d="M12.1,19.28c.84-.46.31.94.33,1.34-.34,3.63-.54,7.28-.38,10.94.1,2.46.35,4.98,1.55,7.19-.28.78-.7-.3-.84-.62-1.62-3.67-1.34-9.93-1.09-13.92l.44-4.92Z" fill="#5b2b0f"/>
      <path d="M6.05,28.94c.17-.2.04-.15.07-.31.04-.2.2-.43.26-.63.19.05.22-.08.27-.1.75-.34,1.69-.61,2.55-.88.27-.09.55-.29.86-.25,0,.26.01.52,0,.78,0,.1-.15.47.05.45,0,.05,0,.09,0,.14h-.09s0,.07,0,.07l.09.02c0,.06-.04.11-.05.14,0,0-.04.04-.05.11-.02.15.03.32,0,.47l-.07.07c-.8.23-1.58.49-2.4.63-.07.01-.13.08-.2.09-.26.04-.53-.06-.78,0-.02-.1-.19-.16-.26-.23-.15-.16-.22-.35-.26-.57Z" fill="#211a12"/>
      <path d="M10.11,26.63c-.01.43.02.92,0,1.37-.2.02-.05-.34-.05-.45,0-.26-.01-.52,0-.78-.31-.03-.59.16-.86.25-.86.27-1.8.55-2.55.88-.05.02-.07.15-.27.1-.07.2-.22.43-.26.63-.03.16.1.1-.07.31-.15.18-.18.29-.24.52l-.05-.05s0-.06,0-.09c0-.04,0-.1,0-.14.11.03.15-.14.19-.24.03-.08.03-.12.05-.19.04-.13.07-.25.09-.38,0-.02,0-.03,0-.05.09-.08.11-.2.19-.28.01-.01.09-.09.09-.09.02-.01.06-.03.09-.05.05-.03.2,0,.24-.14.01,0,.03,0,.05,0,.13-.04.24-.11.33-.14.01,0,.03,0,.05,0,.26-.09.5-.19.76-.28.04-.01.07-.04.09-.05.09-.03.21-.05.33-.09.05-.02.12.05.09-.09.01,0,.03,0,.05,0,.03,0,.06,0,.09,0l.09-.05c.15.01.2-.04.28-.14.04.11.12,0,.14,0,.13-.03.21-.06.33-.09.14-.04.28-.1.43-.14.05-.02.13-.03.19-.05.03,0,.06,0,.09,0Z" fill="#110e0b"/>
      <path d="M10.44,22.48c.03.61-.09,1.14-.06,1.77-.23.08.14.64-.18.68v-.38c.09-.07.04-.23.05-.33,0-.06,0-.13,0-.19.01-.12.03-.28.05-.42,0-.05,0-.1,0-.14,0-.08.04-.21.05-.33,0-.06,0-.13,0-.19,0-.05.04-.14.05-.24,0-.05,0-.1,0-.14,0-.04,0-.08.05-.09Z" fill="#5c2b0e"/>
      <path d="M10.11,28.14s0,.06,0,.09l-.09-.02v-.07s.09,0,.09,0Z" fill="#110e0b"/>
      <path d="M15.28,38.95s.03.03,0,.05v-.05Z" fill="#5b2b0f"/>
      <path d="M20.27,41.59c-.14-.13.13-1.43.17-1.7.64-5.21.58-10.51.4-15.74-.05-1.37-.15-2.74-.19-4.11,0-.26.01-.53,0-.8.63-.33.45.41.47.79.39,6.19.59,12.85-.1,19.01-.09.8-.25,1.6-.33,2.41l-.07.07-.35.06Z" fill="#5b2b0f"/>
      <path d="M22.3,40.93l-.09-.04v-.1s-.33-.03-.33-.03c.07-.37.26-.7.37-1.05,1.48-4.96,1.15-11.28.82-16.41-.08-1.22-.25-2.54-.29-3.73-.02-.55.44-.46.48-.24.35,3.81.58,7.64.52,11.47-.04,2.74-.12,5.58-.82,8.24-.16.62-.45,1.27-.64,1.88Z" fill="#5b2b0f"/>
      <path d="M25.45,19.23c.06.27.11.55.15.82.45,3.06.56,6.42.5,9.52-.06,2.67-.17,6.5-1.42,8.9-.07.13-.27.53-.38.56-.2.06-.33-.1-.29-.29.03-.14.19-.28.25-.41,1.33-2.78,1.42-7.23,1.4-10.31-.01-1.94-.15-3.9-.29-5.85,0-.9-.34-1.95-.33-2.83,0-.04.03-.16.08-.17l.33.06Z" fill="#5b2b0f"/>
      <path d="M30.8,18.75c.01.09.16.28.19.39.02.05.08.02.1.03-.01.35.08.56-.14.85-.07.09-.18.17-.24.28-.01,0-.03,0-.05,0-.19.05-.39.02-.52.19-.02,0-.05.03-.09.05-.17-.15-.37.04-.51.08-.22.06-.51.17-.66.2-.09.02-.64.06-.68.1l.05.09v.05s-.06,0-.09,0c-.18.02-.37.11-.52.14-.03,0-.07,0-.09,0-.15.03-.32.05-.47.05,0-.04,0-.08-.05-.09-.05-.66-.26-1.47-.52-2.08.16,0,.27-.12.42-.05v-.14s.06,0,.09,0l.02.1c.41-.06.82-.25,1.22-.19.06-.17.13-.04.28-.05.24-.02.61-.16.85-.17.65-.03.82.05,1.4.18Z" fill="#211a12"/>
      <path d="M28.11,26.87s.03,0,.05,0c.03.09.12.09.19.12.44.16.88.28,1.3.42.51.18,1,.37,1.5.55.31.24.28.47.33.81.01.08.08.16.08.18.02.15-.15.49-.25.6-.02.02-.25.2-.27.21-.04.01-.13,0-.19,0-.66.04-1.21-.22-1.84-.28-.02,0-.03,0-.05,0-.26-.16-.55-.24-.85-.31-.06-.01-.08-.13-.15.03-.14-.04-.27-.11-.43-.09,0-.13,0-.25,0-.38.14.03.09-.07.09-.16.02-.59-.09-1.18-.05-1.77.17-.04.28.08.44.11.06.01.08-.02.08-.02ZM27.61,28.9v.05s.03-.03,0-.05Z" fill="#211a12"/>
      <path d="M27.07,21.25c0,.16.03.25.05.38,0,.05,0,.1,0,.14,0,.06,0,.13,0,.19h.09s0,.09,0,.14c-.03.54.1,1.11.14,1.65,0,.08,0,.16,0,.24.01.19.04.38.05.57-.15.03-.09-.07-.09-.17-.09-1.07-.2-2.17-.28-3.23.04.01.05.05.05.09Z" fill="#541908"/>
      <path d="M20.45,25.83c-.49.05-.39-.93-.02-.66.19.14.11.48.02.66Z" fill="#5c2b0e"/>
      <path d="M24.47,26.54c-.01.23.1.77-.25.65-.19-.07-.16-.66,0-.69l.25.04Z" fill="#5c2b0e"/>
      <path d="M26.41,33.47c-.04-.17-.14-.77.19-.69.26.07.21.83-.19.69Z" fill="#5c2b0e"/>
      <path d="M22.35,35.36c-.16-.25-.21-.43-.04-.7.37-.09.32.28.28.53-.02.11-.12.16-.23.16Z" fill="#5c2b0e"/>
      <path d="M24.32,20.32c.14.21.07.37.05.61h-.33c-.08-.29-.15-.68.27-.61Z" fill="#5c2b0e"/>
      <path d="M22.81,32.86l-.27-.05-.03-.51c.44-.33.43.28.3.57Z" fill="#5c2b0e"/>
      <path d="M24.89,31.59l.09.58c-.04.11-.2.08-.29.07-.14-.05-.09-.63,0-.66h.2Z" fill="#5c2b0e"/>
      <path d="M21.72,22.34s0,.05.04.08c.03.02.09.01.12.05.13.15.04.6-.18.56-.24-.04-.21-.8.01-.69Z" fill="#5b2b0f"/>
      <path d="M25.07,25.77s-.14.15-.15.15c-.23,0-.36-.81.04-.7.16.04.17.44.12.55Z" fill="#5c2b0e"/>
      <path d="M27.68,26.68s.07,0,.09,0c.09.02.19.13.33.1v.09s-.02.03-.08.02c-.15-.03-.27-.15-.44-.11-.05.59.07,1.18.05,1.77,0,.09.05.19-.09.16,0-.12,0-.24,0-.35v-.85c0-.27-.06-.59-.05-.87.07-.01.13.03.19.05Z" fill="#110e0b"/>
      <path d="M22.19,28.86s.05.13.1.16c-.24.12.11.64-.4.45v-.57c.03-.06.24-.07.29-.03Z" fill="#5c2b0e"/>
      <path d="M22.14,31.86s-.13.06-.18.04c-.2-.17-.15-.41-.09-.63.36-.11.45.4.27.6Z" fill="#5c2b0e"/>
      <path d="M26.46,27.14c-.28-.92.7-.66.23.04l-.23-.04Z" fill="#5c2b0e"/>
      <path d="M21.63,38.44c.05.09,0,.51-.11.55-.34.12-.34-.66-.09-.66.03,0,.19.09.2.1Z" fill="#5b2b0f"/>
      <path d="M26.86,31.15c-.36.49-.63-.73,0-.46.07.13.1.34,0,.46Z" fill="#5c2b0e"/>
      <path d="M24.85,30.02l.04-.53c.49-.2.49.85-.04.53Z" fill="#5c2b0e"/>
      <path d="M22.19,25.16l-.28-.07v-.51c.37-.26.49.34.28.58Z" fill="#5c2b0e"/>
      <path d="M22.81,25.41c.1.11.05.59-.05.65-.31.19-.46-.82.05-.65Z" fill="#5b2b0f"/>
      <path d="M22.44,21.16l-.04.59c-.35.16-.39-.31-.29-.56l.34-.03Z" fill="#5c2b0e"/>
      <path d="M26.73,25.12c-.38.17-.41-.55-.25-.6.35-.12.35.38.25.6Z" fill="#5c2b0e"/>
      <path d="M22.59,28.32c-.13-.18-.15-.4-.04-.59.5-.24.38.79.04.59Z" fill="#5b2b0f"/>
      <path d="M20.21,23.65c-.06.08-.27.04-.31-.07-.07-.19,0-.68.28-.51.12.08.1.49.04.58Z" fill="#5b2b0f"/>
      <path d="M22.38,19.59c-.44.33-.36-.58-.25-.6.23-.04.41.41.25.6Z" fill="#5b2b0f"/>
      <path d="M20.21,21.54c.39.77-.55.87-.23.02l.23-.02Z" fill="#5c2b0e"/>
      <path d="M23.46,38.16c.42-.13.26.62.08.65s-.34-.57-.08-.65Z" fill="#5c2b0e"/>
      <path d="M22.67,23.15c.12.13.13.65-.06.65-.38,0-.24-.84.06-.65Z" fill="#5b2b0f"/>
      <path d="M24.61,28.99l-.28-.05c.01-.26-.13-.47.12-.65.34.05.19.46.16.7Z" fill="#5c2b0e"/>
      <path d="M21.65,35.94c.24-.26.46.45.2.6-.34.09-.33-.46-.2-.6Z" fill="#5c2b0e"/>
      <path d="M26.87,28.53s0,.08.02.11c.02.03.08.01.08.09,0,.13-.07.25-.09.37l-.27-.02c-.09-.19-.03-.37-.02-.57h.28Z" fill="#5c2b0e"/>
      <path d="M22.33,37.9c-.44.28-.56-.6-.11-.51.2.04.16.36.11.51Z" fill="#5c2b0e"/>
      <path d="M24.37,18.95c.13.22.08.42.05.65-.07-.04-.17-.04-.23-.07-.23-.15-.18-.67.18-.58Z" fill="#5c2b0e"/>
      <path d="M22.2,26.64c.23.68-.43.92-.32.07.04-.11.22-.09.32-.07Z" fill="#5c2b0e"/>
      <path d="M26.74,22.95c.04.22.08.72-.28.54-.12-.06-.16-.44-.01-.46l-.03-.08h.33Z" fill="#5c2b0e"/>
      <path d="M24.71,36.5c-.49.08-.37-.28-.33-.61l.31.09.02.52Z" fill="#5c2b0e"/>
      <path d="M24.18,22.16c.12.19.14.43-.02.6-.36.08-.25-.29-.25-.53.03-.1.18-.09.27-.07Z" fill="#5b2b0f"/>
      <path d="M24.08,32.63s.08-.02.13,0l.07.08c0,.21.14.43-.07.58-.25.07-.38-.58-.13-.65Z" fill="#5b2b0f"/>
      <path d="M24.27,24.37v.51s-.32,0-.32,0c-.08-.18-.05-.37-.05-.56l.37.05Z" fill="#5b2b0f"/>
      <path d="M20.21,20.18c.12.12-.03.4.01.56-.47.17-.44-.58-.16-.6l.15.04Z" fill="#5c2b0e"/>
      <path d="M21.87,20.08c.08.18.07.4,0,.59-.02.06.03.08-.07.07-.31-.04-.18-.32-.25-.54.02-.12.21-.15.31-.12Z" fill="#5c2b0e"/>
      <path d="M26.5,21.72s-.17.06-.21.05c-.19-.01-.24-.56-.04-.66l.2.12.05.48Z" fill="#5c2b0e"/>
      <path d="M25.17,27.02c.09.21.13.66-.2.61-.14-.02-.09-.21-.09-.26,0-.23-.08-.39.28-.34Z" fill="#5c2b0e"/>
      <path d="M23.96,35.36c-.09-.22-.04-.39.05-.6.22-.05.24.09.27.27.04.3.02.38-.31.34Z" fill="#5c2b0e"/>
      <path d="M24.85,22.01c-.1-.09-.11.05-.21.09.04-.13-.08-.09-.11-.17-.04-.12.02-.35,0-.49l.35.09-.02.47Z" fill="#5c2b0e"/>
      <path d="M22.54,30.54c-.24-.9.67-.7.18.04l-.18-.04Z" fill="#5c2b0e"/>
      <path d="M24.24,31.11c-.08-.2-.03-.36,0-.56.36-.06.36.2.32.49-.04.11-.22.08-.32.07Z" fill="#5c2b0e"/>
      <path d="M24.61,23.33c.51-.17.48.76.02.52l-.02-.52Z" fill="#5c2b0e"/>
      <path d="M22.15,33.29c.11.07.12.8-.25.56l-.03-.57h.28Z" fill="#5c2b0e"/>
      <path d="M24.85,33.62c.06.22,0,.39-.05.61-.25.2-.51-.76.05-.61Z" fill="#5c2b0e"/>
      <path d="M23.95,36.92l.04.54-.1.07c-.22-.02-.27-.07-.26-.3s.07-.35.32-.31Z" fill="#5b2b0f"/>
      <path d="M27.54,30.6c-.08-.05-.05-.18-.05-.26,0-.34-.04-.82,0-1.14,0-.05-.02-.11.05-.12,0,.5.01,1.01,0,1.51Z" fill="#541908"/>
      <path d="M27.45,26.21c-.09-.12-.04-.74-.05-.94.11.29.02.64.05.94Z" fill="#541908"/>
      <path d="M26.93,18.89v.14c-.15-.07-.26.04-.43.05,0-.02,0-.07,0-.09.14-.02.28-.09.43-.09Z" fill="#110e0b"/>
      <path d="M27.4,25.22c-.08-.07-.08-.31,0-.38,0,.13,0,.25,0,.38Z" fill="#541908"/>
      <path d="M26.93,35.98s-.02,0,0-.05v.05Z" fill="#541908"/>
      <path d="M6.14,21.25s0,.03,0,.05c-.12.22-.24.51-.28.76,0,.02,0,.03,0,.05l-.09.05c.15-.47.21-.67.43-1.13,0,.08-.04.16-.05.24Z" fill="#211a12"/>
      <path d="M5.1,24.46s0,.03,0,.05l-.09.03c-.08.32-.17.65-.28.96,0,.01,0,.03,0,.05l-.05.05s-.07.09-.09.14c-.07.05-.15.07-.24.09.21-.11.26-.22.35-.43.23-.58.44-1.32.64-1.93-.03.34-.2.65-.24.99Z" fill="#1c150f"/>
      <path d="M28.86,27.06s.06,0,.09,0c.03.06.1.03.14.05.03.01.11.04.14.05.23.09.47.2.71.28.06.02.13.02.19.05.26.1.55.19.8.31.57.28.56.6.71,1.16h-.09s-.07-.09-.08-.18c-.04-.34-.02-.57-.33-.81-.5-.18-1-.37-1.5-.55-.42-.15-.87-.26-1.3-.42-.07-.03-.16-.03-.19-.12.27.05.47.14.71.19Z" fill="#110e0b"/>
      <path d="M30.04,20.54c-.18.06-.35.13-.52.19-.01,0-.03,0-.05,0-.06.02-.1,0-.14.09-.02,0-.03,0-.05,0-.26,0-.26.05-.47.09-.08.02-.16.03-.24.05-.11.02-.22.04-.33.05l-.05-.09s.58-.07.68-.1c.14-.04.44-.14.66-.2.14-.04.34-.24.51-.08Z" fill="#110e0b"/>
      <path d="M32.6,24.56s-.08-.1-.09-.14c-.04-.11-.05-.26-.09-.38-.07-.22-.16-.44-.24-.66-.02-.05-.03-.09-.05-.14-.04-.11-.04-.23-.09-.38h.05c.16.5.34,1,.51,1.5.02.05.1.17.01.2Z" fill="#201912"/>
      <path d="M32.08,22.86h-.05c-.08-.2-.11-.15-.13-.2,0,0,.04-.1.02-.18-.08-.34-.26-.75-.38-1.09-.03-.07.01-.17-.12-.14,0-.04,0-.1,0-.14s-.07-.12-.05-.19c.3.36.54,1.44.71,1.93Z" fill="#1c150f"/>
      <path d="M5.81,29.46c-.1.4-.07.61-.09.97,0,.09-.09.11-.1.12h-.05c.03-.28.06-.57.09-.85,0-.03,0-.06,0-.09,0-.02.09-.15.09-.19l.05.05Z" fill="#1c150f"/>
      <path d="M31.51,19.41c-.12.02-.15-.11-.19-.14.12,0,.13.08.19.14Z" fill="#110e0b"/>
      <path d="M30.94,20.12c-.09.02-.11.12-.14.14-.02.01-.04.04-.05.05-.01,0-.03,0-.05,0,.05-.11.17-.2.24-.28v.09Z" fill="#110e0b"/>
      <path d="M31.04,20.21l-.05-.09c.06,0,.03.07.05.09Z" fill="#211a12"/>
      <path d="M31.56,39.7c-.07-.03-.04-.13-.05-.19.07.03.05.13.05.19Z" fill="#541908"/>
      <path d="M4.25,25.88s.02-.04.05-.05l-.05.05Z" fill="#1c150f"/>
      <path d="M30.66,20.31c-.13.17-.37.14-.52.19.13-.17.33-.14.52-.19Z" fill="#110e0b"/>
      <path d="M27.61,28.9s.03.03,0,.05v-.05Z" fill="#110e0b"/>
    </g>
  </g>
</svg>