<?xml version="1.0" encoding="UTF-8"?>
<svg id="uuid-50eeed0a-2cbb-4ac1-b06e-67ff81ba98ad" data-name="Ebene 2" xmlns="http://www.w3.org/2000/svg" viewBox="0 0 85.78 142.99">
  <g id="uuid-1d575c80-e439-4105-a0ee-ae1510ec2ec8" data-name="Ebene 1">
    <g id="uuid-2bdfe42a-a64e-4a17-9b51-c369802626e4" data-name="Generatives Objekt">
      <path d="M21.48,117.13c-2.05-2.16-3.96-4.55-5.54-7.08-1.33-2.13-2.86-4.94-3.69-7.31-3.73-10.57-.84-21.29-.46-32.15-3.39.25-6.13.3-8.46-2.46-.2-.24-.28-.81-.31-.85.87-.62,1.5-1.48,1.92-2.46,1.55,1.48,4.22,2.79,6.08,1.15-.02-1.11-.92.02-1.46.08-3.18.35-5.22-2.69-4.54-5.69.47-.17,2.99-2.65,3.08-3.15.29-1.69-1.77-1.55-2.92-1.62.62-.47,2.1-.85,2.85-.92,10.99-1.07,8.89,10.27,4,15.85,5.79.46,11.58-.03,17.31-.85.65,6.3.35,12.83-1.38,18.92-1.44,5.04-4.15,9.74-5.23,14.92-.94,4.48-.86,9.07-1.23,13.62Z" fill="#e1d9c5"/>
      <path d="M27.02,30.82c-.97,0-4.85,1.03-5.23.92-1.69-.46-6.85-6.99-7.85-8.69-2.77-4.72-6.42-15.87-5.54-21.23.83-5.07,6.94,1.87,8.15,3.38,5.75,7.18,8.47,16.78,10.46,25.62Z" fill="#96795b"/>
      <path d="M21.48,117.13c-.29,3.55-.95,13.65-2.46,16.54-.58,1.1-2.69.84-3.77,1.15-4.47,1.32-6.14,3.28-5.46,8.15-1.92-.02-3.85.01-5.77,0-.91-5.21.33-6.87,4.77-8.92.91-.42,2.74-.62,3.54-1.23.95-.72,2.04-5.04,2.38-6.38,1.42-5.54,1.88-10.66,1.23-16.38,1.58,2.53,3.49,4.92,5.54,7.08Z" fill="#96795b"/>
      <path d="M42.1,135.75c-3.01-1.9-5.55-4.4-8.31-6.62-1.49-7.5-1.99-18.17,4.54-23.54,5.01-4.12,15.85-5.39,20.31.15-14.06-4.2-23.56,3.05-21.77,17.92.66,5.49,2.9,7.65,5.23,12.08Z" fill="#e1d9c5"/>
      <path d="M69.79,134.98c.05-.08-.16-.22-.15-.23,2.79-4.22,5.59-8.46,7.23-13.31,3.07.33,6.18.02,8.31-2.38,3.01,9-5.79,20.51-15.38,15.92Z" fill="#96795b"/>
      <path d="M1.18,56.21c-.58,1.22,2.13,4.2,3.08,4.31.22,1.94.7,5.43-1.85,6C.4,63.13-.28,60.16.1,56.21c.19-.09,1.03.02,1.08,0Z" fill="#e1d9c5"/>
      <path d="M5.02,60.36c-.68,3,1.36,6.04,4.54,5.69.54-.06,1.44-1.19,1.46-.08-1.86,1.64-4.52.32-6.08-1.15-.42.98-1.05,1.84-1.92,2.46-.15-.21-.34-.3-.62-.77,2.54-.57,2.07-4.06,1.85-6,.04,0,.73-.14.77-.15Z" fill="#7e6448"/>
      <path d="M5.18,55.59c1.15.07,3.21-.08,2.92,1.62-.09.51-2.6,2.98-3.08,3.15-.04.01-.73.16-.77.15-.95-.11-3.66-3.09-3.08-4.31,1.73-.55,1.91-.74,4-.62Z" fill="#624f40"/>
      <g>
        <path d="M76.87,121.44c-1.64,4.85-4.44,9.08-7.23,13.31,0,.01.21.15.15.23-.09.14-1.64,1.39-1.69,1.77-.1.69,2.73,4.66-.23,6.23H30.94c-1.93-5.13,1.11-8.3,6.31-7.85.68.06,5.27,1.57,5.31,1.15-.18-.17-.34-.31-.46-.54-2.33-4.43-4.57-6.58-5.23-12.08-1.8-14.87,7.71-22.12,21.77-17.92-4.46-5.55-15.3-4.27-20.31-.15-6.53,5.37-6.03,16.04-4.54,23.54-.64-.51-1.28-1.03-1.92-1.54-2.8,5.32-5.82,10.6-9.54,15.38-4.18-.03-8.36.04-12.54,0-.68-4.88.99-6.83,5.46-8.15,1.08-.32,3.19-.06,3.77-1.15,1.51-2.89,2.17-12.99,2.46-16.54.37-4.54.29-9.13,1.23-13.62,1.08-5.18,3.79-9.88,5.23-14.92,1.74-6.09,2.03-12.62,1.38-18.92-5.72.81-11.51,1.31-17.31.85,4.89-5.58,6.99-16.91-4-15.85-.74.07-2.22.46-2.85.92-2.09-.12-2.27.07-4,.62-.05.02-.89-.09-1.08,0,.93-9.78,12.52-21.5,21.69-24.46.38.1,4.26-.92,5.23-.92.69,0,4.58.84,4.77.69,2.8-8.94,7.19-18.41,13.54-25.38,16.08-17.67,13.84,7.55,9.23,17.23-3.02,6.34-9.05,10.78-15.08,14,5.91,7.84,2.71,17.88,4.15,26.62,1.52,9.2,9.77,11.37,16.54,16.08,14.25,9.9,22.72,23.53,16.69,41.38Z" fill="#b19b84"/>
        <path d="M52.94,6.67c.97,8.55-3.83,17.7-10.15,23.23-.69.6-5.84,4.36-6.31,4.31-.1-.01-1.59-1.21-1.62-1.31-.09-.38,1.84-6.67,2.15-7.54,2.84-7.77,8.09-15.41,15.92-18.69Z" fill="#f1c090"/>
        <g>
          <path d="M23.71,41.28c7.34-.71,7.79,10.21,1.08,11.08-7.71,1-7.89-10.42-1.08-11.08Z" fill="#fff"/>
          <g>
            <path d="M23.41,42.98c5.43-.83,6.14,6.99,1.54,7.69-5.6.85-5.85-7.04-1.54-7.69Z" fill="#493d34"/>
            <path d="M22.48,43.75c1.35-.22,1.65,1.68.62,2-1.68.52-1.84-1.8-.62-2Z" fill="#fff"/>
          </g>
        </g>
      </g>
    </g>
  </g>
</svg>