<?xml version="1.0" encoding="UTF-8"?>
<svg id="uuid-2727d720-3933-462b-aad5-036f541e5697" data-name="Ebene 2" xmlns="http://www.w3.org/2000/svg" viewBox="0 0 145.88 83.24">
  <g id="uuid-8299639f-22b6-4fcc-9a82-ee93118cdb5d" data-name="Ebene 1">
    <g id="uuid-ac1ce346-2add-45da-a3a3-d5d9a9bc4cbd" data-name="Generatives Objekt">
      <path d="M52.57,50.62c-2.39,4.83-9.01,14.01-14.72,14.63-1.99.22-8.53-.53-4.65-3.44,1.42-1.07,3.36-.94,4.82-1.89,3.14-2.06,5.71-9.66,6.46-13.26,1.16.78,3.25,1.77,4.56,2.41,1.04.51,2.84.67,3.53,1.55Z" fill="#848b90"/>
      <path d="M97.5,57.51c-.23-.13-.41.18-.43.17-1.34-.78-2.61-1.63-3.96-2.41-2.38,6.7-7.53,12.84-15.49,11.02-6.42-1.47,3.36-4.28,4.3-4.82,4.24-2.44-.72-4.03-1.64-6.89,1.21.02,10.85-.49,11.19-.95-3.58-4.06-4.58-8.83-2.58-13.94.19-.49,2.82-5.26,2.58-2.41-.04.45-2.16,4-2.41,5.68-1.13,7.78,3.5,9.55,8.18,13.51.39.33.61.53.26,1.03Z" fill="#848b90"/>
      <path d="M42.58,1.22c-2.5.13-6.05,2.25-7.57,4.22-1.69,2.19-2.03,4.6-2.84,7.14-1.24.03-2.51.23-3.7.52-2.57-8.97,5.79-16.02,14.12-11.88Z" fill="#848b90"/>
      <path d="M5.92,23.77c-.04.62-.5,1.81-1.03,2.07-3.56,1.7-6.51-4.59-3.87-6.2,2.38-1.45,5.08,1.72,4.91,4.13Z"/>
      <g>
        <path d="M110.41,73.17l1.21,2.93c-5.44.8-10.92,1.26-16.35,2.07l-.52-1.89c5.2-1.13,10.45-2.02,15.67-3.1Z" fill="#f5bab7"/>
        <path d="M94.74,76.27l.52,1.89c-7.14,1.06-13.79,2.29-20.49,5.08,5.24-4.57,13.33-5.53,19.97-6.97Z" fill="#f5bab7"/>
        <path d="M143.81,40.12l-3.96,2.75c-.56-1.1-2.33-3.3-3.27-4.13l2.93-3.96c1.87,1.61,3.16,3.1,4.3,5.34Z" fill="#f5bab7"/>
        <path d="M142.43,61.12c-1.32,2.16-2.66,3.62-4.48,5.34l-3.1-2.41c1.52-1.47,2.94-3.49,3.96-5.34l3.62,2.41Z" fill="#f5bab7"/>
        <path d="M138.99,34.27c-1.28.89-2.02,2.76-3.1,3.96-1.26-.98-2.62-1.69-4.13-2.24l1.38-4.99c2.08.68,4.14,1.92,5.85,3.27Z" fill="#f5bab7"/>
        <path d="M132.1,30.83l-1.03,4.82c-1.27-.38-2.8-.64-4.13-.69l-.69-4.82c2.62-.09,3.36.03,5.85.69Z" fill="#f5bab7"/>
        <path d="M145.01,55.44c-.54,1.89-1.3,3.32-2.24,4.99l-3.44-2.41c.49-1,1.29-3.06,1.55-4.13l4.13,1.55Z" fill="#f5bab7"/>
        <path d="M145.7,46.32l-4.65.34c-.22-1.15-.55-2.21-1.03-3.27l4.3-2.41c.73,1.71,1.14,3.49,1.38,5.34Z" fill="#f5bab7"/>
        <path d="M125.21,30.31l.69,4.65c-1.36.01-2.49.29-3.79.52l-1.72-3.96c2.19-.87,2.53-.93,4.82-1.21Z" fill="#f5bab7"/>
        <path d="M122.29,70.76l1.55,3.1c-1.79.46-3.52.86-5.34,1.21.41-1.18-1.24-2.01-1.21-3.27,1.65-.37,3.36-.58,4.99-1.03Z" fill="#f5bab7"/>
        <path d="M145.87,48.73c.04,1.97-.07,3.75-.52,5.68-.52.12-.8-.19-1.21-.34.28-.47.67.46,1.03-.09.87-1.32-3.37-1.56-3.96-2.32.1-.95.22-1.79.17-2.75l4.48-.17Z" fill="#f5bab7"/>
        <path d="M130.72,71.62c-1.38.66-2.85,1.08-4.3,1.55l-2.07-3.1c1.34-.44,2.7-.93,3.96-1.55l2.41,3.1Z" fill="#f5bab7"/>
        <path d="M136.4,67.84c-1.07.87-2.08,1.69-3.27,2.41l-2.24-3.1c.73-.46,2.07-1.49,2.75-2.07l2.75,2.75Z" fill="#f5bab7"/>
        <path d="M119.71,31.86l1.55,3.79c-1.35.3-2.71.57-3.96,1.21.08-1.1.1-2.88,0-3.96.72-.51,1.64-.69,2.41-1.03Z" fill="#f5bab7"/>
        <path d="M114.37,72.49l1.21,3.1c-1.31.22-2.65.32-3.96.52l-1.21-2.93c1.3-.27,2.67-.41,3.96-.69Z" fill="#f5bab7"/>
        <path d="M145.7,46.32c.11.85.15,1.55.17,2.41l-4.48.17c-.04-.77-.2-1.49-.34-2.24l4.65-.34Z" fill="#f5bab7"/>
        <path d="M117.3,71.8c-.04,1.26,1.62,2.09,1.21,3.27-.97.18-1.96.36-2.93.52l-1.21-3.1c.97-.21,1.96-.47,2.93-.69Z" fill="#f5bab7"/>
        <path d="M130.89,67.15l2.24,3.1c-.58.35-1.14.56-1.72.86l-2.58-2.75c.5-.26,1.56-.89,2.07-1.21Z" fill="#f5bab7"/>
        <path d="M137.95,66.46c-.59.56-.91.86-1.55,1.38l-2.75-2.75c.36-.3.89-.73,1.21-1.03l3.1,2.41Z" fill="#f5bab7"/>
        <path d="M126.42,73.17c-.52.17-1.01.37-1.55.52l-1.72-3.1c.31-.09.83-.39,1.21-.52l2.07,3.1Z" fill="#f5bab7"/>
        <path d="M144.15,54.07c-1.02-.38-2.09-.63-3.1-1.03.09-.46.12-.91.17-1.38.59.77,4.83,1.01,3.96,2.32-.36.55-.76-.38-1.03.09Z" fill="#f5bab7"/>
        <path d="M133.13,31l-1.38,4.99c-.18-.07-.6-.32-.69-.34l1.03-4.82c.27.07.67.05,1.03.17Z" fill="#eba2a2"/>
        <path d="M138.99,34.27c.22.17.34.36.52.52l-2.93,3.96c-.2-.18-.47-.35-.69-.52,1.08-1.2,1.82-3.07,3.1-3.96Z" fill="#eba2a2"/>
        <path d="M126.25,30.14l.69,4.82c-.34-.01-.69,0-1.03,0l-.69-4.65c.32-.04.3-.15,1.03-.17Z" fill="#eba2a2"/>
        <path d="M144.32,40.98l-4.3,2.41c-.08-.18-.14-.45-.17-.52l3.96-2.75c.14.28.38.55.52.86Z" fill="#eba2a2"/>
        <path d="M120.39,31.51l1.72,3.96c-.3.05-.57.11-.86.17l-1.55-3.79c.23-.1.42-.24.69-.34Z" fill="#eba2a2"/>
        <path d="M144.15,54.07c.41.15.69.47,1.21.34-.07.31-.26.72-.34,1.03l-4.13-1.55c.06-.26.12-.59.17-.86,1.01.4,2.08.66,3.1,1.03Z" fill="#eba2a2"/>
        <path d="M142.77,60.44c-.11.19-.17.4-.34.69l-3.62-2.41c.13-.24.43-.51.52-.69l3.44,2.41Z" fill="#eba2a2"/>
        <path d="M128.83,68.35l2.58,2.75c-.2.1-.44.4-.69.52l-2.41-3.1c.28-.14.45-.14.52-.17Z" fill="#eba2a2"/>
        <path d="M123.15,70.59l1.72,3.1c-.36.1-.76.1-1.03.17l-1.55-3.1c.33-.09.65-.11.86-.17Z" fill="#eba2a2"/>
      </g>
      <g>
        <path d="M117.3,32.89c.1,1.08.08,2.86,0,3.96-.31,4.51-2.58,9.33-5.16,13-.61.87-3.6,3.85-3.79,4.3-.54,1.32-.67,4.33-1.38,6.2-1.91,5.01-7.14,10.39-13,9.55-3.94-.56,1.61-3.27,2.41-3.96,2.52-2.16,5.16-6.18,1.12-8.44.35-.5.13-.7-.26-1.03-4.68-3.96-9.31-5.73-8.18-13.51.25-1.69,2.37-5.23,2.41-5.68.24-2.85-2.39,1.92-2.58,2.41-2,5.11-1,9.89,2.58,13.94-.33.45-9.98.97-11.19.95-3.91-.06-8.21-.64-12.14-1.03-2.41-.24-4.82-.79-7.23-1.03-3.11,6.45-7.5,17.01-16.35,15.49-2.79-.48-1.22-2.82.17-3.96.97-.8,2.3-.97,3.1-1.55,1.57-1.14,3.31-5.91,3.87-7.83.23-.78,1.08-3.59.86-4.05-.68-.88-2.49-1.04-3.53-1.55-1.31-.64-3.4-1.63-4.56-2.41-2.72-1.83-8.1-8.3-10.41-9.12-3.14-1.12-6.53.96-9.73.86-2.73-3.27-6.31-6.24-9.73-8.78-.48.3.14.67.34.86,3.06,2.87,5.76,4.48,8.69,7.92l-4.65-.69c-.8-1.09-6.61-7.45-7.49-7.57-.13-.02-.36-.04-.43.09,2.58,2.06,4.68,4.4,6.71,6.97l-4.65-1.89c-.64-.94-2.04-2.94-3.1-3.27-1.62-2.03-3.9-3.81-5.16-6.2.53-.25.99-1.45,1.03-2.07,7.22-5.18,13.87-8.58,22.55-10.67,1.2-.29,2.46-.49,3.7-.52.81-2.55,1.15-4.96,2.84-7.14,1.52-1.97,5.08-4.09,7.57-4.22,9.07-.46,15.03,11.55,6.46,18.42-.82.66-4.52,2.07-2.93,2.75,8.54,3.64,23.34-4.56,30.99-7.75,16.61-6.92,38.24-2.39,40.2,18.25Z" fill="#abb0b5"/>
        <g>
          <path d="M24.34,38.4c.68.82,3.3,4.2,3.53,4.99.07.24.25.54-.17.52-1.15-2.01-2.55-3.75-4.05-5.51-2.93-3.44-5.63-5.05-8.69-7.92-.2-.19-.82-.56-.34-.86,3.41,2.54,6.99,5.51,9.73,8.78Z"/>
          <path d="M19,37.71c1.01,1.37,2.77,4.08,3.44,5.59.1.23.76,1.49.26,1.64-1.16-2.93-2.98-5.31-4.91-7.75-2.03-2.57-4.14-4.91-6.71-6.97.07-.13.3-.1.43-.09.88.12,6.68,6.49,7.49,7.57Z"/>
          <path d="M41.81,7.07c7.59-1.09,7.86,10.59.17,11.53-8.36,1.03-5.51-10.77-.17-11.53Z" fill="#f9d2cf"/>
          <g>
            <path d="M25.97,20.84c3.79-.22,1.97,6.73-1.38,6.03-2.55-.54-1.22-5.87,1.38-6.03Z"/>
            <path d="M27,23.08c1.06-.26.66,1.41.17,1.55-.95.28-.82-1.39-.17-1.55Z" fill="#fff"/>
          </g>
        </g>
      </g>
    </g>
  </g>
</svg>