<?xml version="1.0" encoding="UTF-8"?>
<svg id="Ebene_2" data-name="Ebene 2" xmlns="http://www.w3.org/2000/svg" viewBox="0 0 94.27 39.06">
  <g id="Ebene_16" data-name="Ebene 16">
    <g id="muell3">
      <g>
        <path d="M11.05,11.79c-.24-1.18-.94-2.67-1.29-3.86-5.05-.06-7.59,1.93-2.66,5.47-.15.21-.29.45-.44.66-.67-.14-4.19-1.98-4.58-1.81-.6.25.68,1.06.69,1.43-.43-.25-.6-.5-1.15-.39-.48-.46-.98-.92-1.49-1.35-.02-.08,0-.17-.02-.25l.06-1.37c.19,1.24.04,1.69,1.46,1.67-1.31-2.28,1.16-3.38,2.92-4.06.93-.36,5.61-1.36,5.85-1.97.05-.13-.1-.6-.07-.8h.12s1.16,3.11,1.16,3.11c.04.9-.29,2.62-.54,3.53Z" fill="#6fafbb"/>
        <path d="M11.76,38.32c-1.73-.37-6.94-1.29-8.2-1.97s-1.55-1.83-1.34-3.11l2.15-2.93c.1,0,1.33,1.09,1.54,1.22-.19.66-1.33,3.26-1.14,3.77.28.77,6.3,1.65,6.99,3.02Z" fill="#56929c"/>
        <path d="M40.42,12.3l-10.82-6.83c.14-.4.61-1.33.59-1.67l9.01,6,1.23,2.5Z" fill="#6fafbb"/>
        <path d="M27.1,37.52c-.27-.03-.75-.71-1.13-.77-.96-.15-8.03.71-9.03,1.09l1.45-1.13c2.07-.89,3.93-2.64,6.31-2.32.14.34.18.7.34,1.02.21.02.08-.59.06-.69.78.84,1.72,1.63,2,2.8Z" fill="#348893"/>
        <path d="M.1,11.69C-.97,6.44,7,6.76,10.31,5.15c-.02.2.12.67.07.8-.24.61-4.91,1.61-5.85,1.97-1.76.68-4.23,1.78-2.92,4.06-1.42.02-1.27-.42-1.46-1.67l-.06,1.37Z" fill="#6fafbb"/>
        <path d="M21.17,7c-.69.24-.9-.86-1.26-.88-.23,0-.43.61-1.31.62-.72,0-2.55-.99-2.7-.99-.1,0-.66.74-1.06-.03.19-.41.29-.89.5-1.29.22.12.7.63.99.65.91.07,2.78-.82,3.77-.85.19,0,1.9.34,2.21.42-.25.84-.77,1.57-1.15,2.34Z" fill="#6fafbb"/>
        <path d="M12.4,38.51l.72-6.96c.24-.63.28-.14.73-.13.25,1.12.48,2.23.68,3.35l-.86-2.53c.32,1.34-.23,4.01.23,5.2.06.15.9.67,1.08.89.21.27-.04.48.31.65-.61.23-.5-.14-.82-.17-.85-.07-1.25-.13-2.08-.3Z" fill="#56929c"/>
        <path d="M27.1,37.52c-.28-1.17-1.22-1.95-2-2.8-.13-.57-.62-1.74-.84-2.41.36-.24.44.02.63.07,0,2.28,2.43,2.49,4.03,3.23.11.05.69.13.76.18.15.1.61.84.72,1.05-.5.14-2.95.72-3.29.68Z" fill="#6fafbb"/>
        <path d="M30.39,36.84c-.11-.22-.56-.95-.72-1.05,4.38-.4,7.77-3.84,11.67-5.56-3.27,2.44-6.96,5.47-10.95,6.61Z" fill="#56929c"/>
        <path d="M14.83,5.72c-.26.55-.65,1.27-.95,1.83-.04.08-.41.46-.45.54-.77-.5-1.45.56-1.69-.84.04-.51.02-.99.11-1.5,1.1-.01,2.34-.84,2.94-1.76.27.07.42.38.54.45-.21.4-.31.88-.5,1.29Z" fill="#badbdb"/>
        <path d="M13.86,31.42c-.45,0-.49-.5-.73.13l-.72,6.96c-.16-.03-.37-.21-.39-.21l.84-9.71c.91.68.81,1.91,1.01,2.83Z" fill="#1a6565"/>
        <path d="M29.34,5.37l-1.95-.94s0-.08-.01-.12c-.04-.37-.32-.93.04-.87.43-.08,2.47-.28,2.73,0l-.81,1.94Z" fill="#56929c"/>
        <path d="M23.98,7.86l-1.51-2.84s-.02-.04.11-.13c.45-.32,1.2-.59,1.38.12.1.4,0,2.25.02,2.86Z" fill="#6fafbb"/>
        <path d="M11.85,5.75c-.09.52-.07.99-.11,1.5-.01.17-.04.55-.19.64-.08-.99-.7-2.45-.7-3.54.43-.32,1,.09,1.5.11-.55.53-.39.63-.5,1.29Z" fill="#6fafbb"/>
        <path d="M11.85,5.75c.11-.66-.05-.76.5-1.29,1.09.03,1.67-.67,2.44-.47-.6.93-1.85,1.75-2.94,1.76Z" fill="#93c7cc"/>
        <path d="M11.59,8.26l-1.16-3.12c.28-.25.08-.53.42-.79,0,1.09.62,2.55.7,3.54,0,.12.03.25.03.37Z" fill="#154e45"/>
        <path d="M28.91,35.62c-1.6-.74-4.02-.95-4.03-3.23,1.18.28,1.99.1,2.92-.71-1.61-.98-3.54-1.58-4.48-3.38l4.83,3.16c.07.67.16,1.36.31,2.02.15.62,1.14,1.82.45,2.13Z" fill="#6fafbb"/>
        <path d="M14.41,28.01c.9-.04,1.71.24,2.48.64l7.1,4.81c-3.51-.86-6.69-3.37-9.58-5.45Z" fill="#6fafbb"/>
        <path d="M27.97,9.35c-.17.89-.19,1.85-.24,2.76-.37-.55.03-1.92-.1-2.41-.05-.18-1.4-1.82-1.71-1.02.56-1.69.41-1.47.33-3.14-.04-.94-.09-1.34,1.13-1.22,0,.04,0,.08.01.12.2,1.63.43,3.27.58,4.92Z" fill="#badbdb"/>
        <path d="M20.64,8.04c-1.42-.82-3.21-.77-4.8-.8l-.19-.73c-.7.23-.43.93-1.26,1.11-.21.05-.32.01-.5-.08.3-.56.69-1.27.95-1.83.4.76.96.02,1.06.03.15,0,1.98,1,2.7.99.88,0,1.08-.63,1.31-.62.37.01.57,1.11,1.26.88-.17.34-.36.7-.52,1.04Z" fill="#6fafbb"/>
        <path d="M11.42,13.12c-.01.05.48.72-.43.72.26-.69.2-1.37.06-2.06.25-.91.58-2.63.54-3.53,0-.12-.02-.25-.03-.37.15-.09.18-.47.19-.64.24,1.4.92.33,1.69.84-.97,1.9-1.45,2.95-2.02,5.03Z" fill="#d9eaeb"/>
        <path d="M22.47,5.02l1.51,2.84s.01.08.01.12c-.53.97-2.13.09-2.89-.29-.04-.15,1.2-2.51,1.37-2.67Z" fill="#56929c"/>
        <g>
          <path d="M27.38,4.31c-1.22-.12-1.17.29-1.13,1.22-.87,2.04-1.7,4.27-1.7,6.5.18-1.08,1.06-2.44,1.37-3.36.31-.8,1.66.84,1.71,1.02.13.5-.27,1.86.1,2.41-.33,5.67.01,12.78.47,18.48.02.29-.05.79-.04.87l-4.83-3.16c.94,1.79,2.87,2.4,4.48,3.38-.92.8-1.74.99-2.92.71-.19-.05-.27-.3-.63-.07-.38-1.15-.61-2.55-1.56-3.4.76,1.47,1.12,3.08,1.67,4.63-.26.28-.36-.08-.38-.09l-7.1-4.81c-.77-.4-1.58-.68-2.48-.64-1.16-3.13-2.97-5.97-4.08-9.13-.5-1.43-1.38-6.03-1.88-6.85-.04-.07.05-.31-.21-.23-.33.58-.77,1.07-1.16,1.6-4.93-3.53-2.39-5.52,2.66-5.47.35,1.19,1.05,2.68,1.29,3.86.14.68.2,1.37-.06,2.06.91,0,.42-.67.43-.72l2.97-5.5c.84-.18.56-.89,1.26-1.11.12,2.83-.99,6.39-.9,9.09.07,1.85.88,4.07.81,6.02.33.16.21-.09.22-.27.39-4.41-.61-9.62.06-14.11,1.59.03,3.37-.02,4.8.8-.88,1.83-1.76,3.75-2.39,5.69l2.59-5.58c1.45.58,2.98.68,3.1,2.57.21-.82.07-1.88.06-2.74,0-.04-.01-.08-.01-.12-.01-.61.09-2.46-.02-2.86,1.35.08,2.4-1.36,3.46-1.56-.37-.05-.08.51-.04.87Z" fill="#badbdb"/>
          <g>
            <path d="M20.64,8.04c.16-.34.36-.7.52-1.04.38-.77.9-1.51,1.15-2.34.12.03.24.09.27.22-.14.1-.11.13-.11.13-.17.16-1.41,2.53-1.37,2.67.76.38,2.35,1.26,2.89.29.01.86.16,1.92-.06,2.74-.11-1.9-1.65-1.99-3.1-2.57l-2.59,5.58c.63-1.94,1.51-3.86,2.39-5.69Z" fill="#1a6565"/>
            <path d="M15.84,7.25c-.67,4.49.33,9.7-.06,14.11-.02.18.11.43-.22.27.07-1.95-.74-4.16-.81-6.02-.1-2.71,1.02-6.27.9-9.09l.19.73Z" fill="#277378"/>
            <path d="M11.42,13.12c.57-2.08,1.05-3.13,2.02-5.03.04-.07.41-.46.45-.54.18.09.29.12.5.08l-2.97,5.5Z" fill="#badbdb"/>
            <path d="M25.92,8.67c-.3.92-1.18,2.28-1.37,3.36,0-2.22.83-4.45,1.7-6.5.08,1.67.22,1.44-.33,3.14Z" fill="#9bb5b4"/>
            <path d="M16.65,28.05c.64.2,4.2,1.38,4.53,1.32.41-.08.18-.73.57-.55.12.06.91,2.06,1.27,2.31-1.89-1.7-4.34-1.64-6.38-3.08Z" fill="#9bb5b4"/>
            <path d="M25.1,34.73c.02.1.15.7-.06.69-.16-.33-.2-.69-.34-1.02-.12-.28-.22-.55-.33-.84-.55-1.55-.91-3.16-1.67-4.63.94.85,1.17,2.25,1.56,3.4.22.66.72,1.83.84,2.41Z" fill="#154e45"/>
            <path d="M16.65,28.05s-.3.03-.39-.15c.19-.25.37.14.39.15Z" fill="#9bb5b4"/>
          </g>
        </g>
        <g>
          <path d="M57.83,32.44c-2.29,1.29-5.64,1.69-8.11.38-1.03-.55-2.76-2.49-3.67-2.77.03-.4-.12-.73-.23-1.1.53-2.16-.21-3.92-1.57-5.57-.14.04-.09.84-.1.88-.4,1.71-1.3,3.22-1.79,4.83-.07.24-.15.34.05.55-.38.06-.72.44-1.06.6-3.89,1.72-7.29,5.15-11.67,5.56-.07-.04-.65-.13-.76-.18.69-.31-.3-1.51-.45-2.13-.16-.66-.24-1.35-.31-2.02,0-.09.07-.58.04-.87h.12c.03.25-.04.55.25.71,1.86-1.43,3.32-3.26,4.81-5.04.17,1.17-.89,2.62-1.03,3.64s.06,3.08.14,4.21l1.22-8.25c1.61-1.91,3.59-5.95,6.47-5.94,2.45,0,4.91,4.54,7.36,5.03.86,2.7,2.29,5.25,3.28,7.9-.8-2.51-1.42-5.12-2.26-7.62l7.46.05c.53,2.41,1.05,4.81,1.78,7.17Z" fill="#6fafbb"/>
          <path d="M33.39,26.25c.11-.13.22-.27.34-.4l-1.22,8.25c-.08-1.13-.29-3.15-.14-4.21s1.2-2.47,1.03-3.64Z" fill="#277378"/>
          <path d="M39.15,21.31l-.54,6.95c-.48-2.29.07-4.69.54-6.95Z" fill="#348893"/>
        </g>
        <path d="M9.57,33.43c-.69-.52-4.9-2.97-5.04-3.45,1.24-3.32,1.72-6.51,1.18-10.05-.08-.52-.86-2.33-.86-2.53,0-.28.84-1.13.99-1.4,2.38,2.25,3.02,6.05,3.09,9.22.07,2.75-1.01,5.7.64,8.21Z" fill="#56929c"/>
        <g>
          <path d="M16.94,37.84c-.9.33-1.08.93-1.63,1.15-.35-.17-.1-.39-.31-.65-.18-.23-1.02-.75-1.08-.89-.47-1.19.09-3.85-.23-5.2l.86,2.53c-.2-1.13-.44-2.24-.68-3.35-.2-.92-.1-2.15-1.01-2.83l-.84,9.71c-.07-.01-.18.04-.25.02-.69-1.37-6.71-2.25-6.99-3.02-.19-.51.95-3.11,1.14-3.77,1.32.86,2.69,1.64,4.02,2.49.34-.03-.34-.57-.37-.59-1.64-2.51-.57-5.45-.64-8.21-.08-3.17-.71-6.97-3.09-9.22.79-1.39,1.58-2.75,2.61-3.97.5.82,1.38,5.42,1.88,6.85,1.11,3.16,2.92,6,4.08,9.13,2.89,2.08,6.07,4.59,9.58,5.45.02,0,.12.37.38.09.1.29.21.56.33.84-2.38-.31-4.24,1.43-6.31,2.32l-1.45,1.13Z" fill="#6fafbb"/>
          <path d="M9.37,17.85c.04.36.05.67-.22.95-1.06.5-.82-.89-1.08-1.58s-.88-1.63-.64-2.24c.44-.2,1.89,2.41,1.94,2.86Z" fill="#93c7cc"/>
          <path d="M13.53,26.54c.53,1.37-.55,1.4-.39-.21.14-.22.36.14.39.21Z" fill="#93c7cc"/>
        </g>
        <g>
          <path d="M8.46,12.03c-1.04,1.22-1.83,2.58-2.61,3.97-.15.26-.99,1.11-.99,1.4,0,.2.78,2.01.86,2.53.54,3.55.06,6.73-1.18,10.05.14.48,4.35,2.93,5.04,3.45.03.02.7.56.37.59-1.33-.84-2.7-1.63-4.02-2.49-.21-.14-1.44-1.23-1.54-1.22l-2.15,2.93c.12-.76,1.17-3.4,1.01-3.88-.05-.15-1.87-1.71-2.21-2.41-1.61-3.22.44-5.71,2.35-8.17-.77-2.25-2.68-4.58-3.24-6.85.51.43,1.02.89,1.49,1.35,1.17,1.14,2.23,2.32,3.14,3.69.08,0,.7-1.16.81-1.32.37-.53.73-1.06,1.1-1.59.15-.21.28-.45.44-.66.39-.53.83-1.02,1.16-1.6.26-.08.17.16.21.23Z" fill="#154e45"/>
          <path d="M3.58,19.75c.42,3.01.37,6.05-.22,9.03-.17-.42-.59-.43-.88-.73-2.2-2.26-1.36-6.49,1.09-8.3Z" fill="#277378"/>
        </g>
        <path d="M5.56,15.66c-.91-.7-1.8-1.4-2.79-1.98-.01-.37-1.29-1.17-.69-1.43.39-.16,3.91,1.68,4.58,1.81-.37.53-.72,1.06-1.1,1.59Z" fill="#6fafbb"/>
        <path d="M1.61,13.29c.55-.11.73.14,1.15.39.99.58,1.89,1.28,2.79,1.98-.11.16-.73,1.31-.81,1.32-.91-1.37-1.97-2.54-3.14-3.69Z" fill="#56929c"/>
        <path d="M27.97,9.35c-.15-1.64-.38-3.29-.58-4.92l1.95.94c-.36,1.29-1.13,2.67-1.37,3.98Z" fill="#56929c"/>
      </g>
      <g>
        <path d="M84.43,19.04c-1.63.47-3.49.29-5.07.97-1.28.55-3.08,3.27-4.19,4.37-3.58,3.52-7.25,6.25-12.15,7.71,0-2.96-.12-5.44.09-8.46,4.72-1.42,8.61-5.07,11.21-9.18,2.23-3.53,3.62-5.42-.66-7.83-2.57-1.45-6.73-2.55-9.66-2.96-1.02-.14-1.74-.19-2.76-.24-1.09-.06-2.14-.17-3.24-.07.44-.89,1.07-1.82,1.89-2.41.17-.13,1.01-.16,1.23-.86.66.63,1.69.46,2.54.63,6.37,1.29,11.55,4.9,16.71,8.64l3.15-.17c.09,3.04.54,6.81.91,9.86Z" fill="#6fafbb"/>
        <path d="M84.77,21.37c-.73-.03-2.41-.06-3.03.16-.39.14-4.47,4.52-5.23,5.21-3.97,3.56-8.21,6.58-13.5,7.84.1-.44.02-1.91.02-2.49,4.9-1.46,8.57-4.19,12.15-7.71,1.12-1.1,2.92-3.82,4.19-4.37,1.58-.68,3.44-.5,5.07-.97.08.68.18,1.29.31,1.96.02.12,0,.25.03.37Z" fill="#56929c"/>
        <path d="M57.25,3.41c-1.33.21-2.73.31-4.04.62-.25.06-1.01.27-1.33.37-.49.15-.95.45-1.43.63-1.82.68-3.87,1.63-5.61,2.51-.09-.43-2.66,1.28-2.25.58,3.25-2.29,5.94-5.32,9.39-7.33l4.15-.14c.12,0,.15.1.38.09-.04.15-.13.18-.09.38.11.56.62,1.65.83,2.28Z" fill="#6fafbb"/>
        <path d="M62.2,35.39c-2.94.24-1.64-1.13-2.54-1.94-.35-.32-.67.27-.78.26-.18-.02-.48-.79-.57-.82-.33-.1-5,2.83-6.34,2.7-1.16-.11-5.35-4.52-6.41-5.5.12.03.38-.08.49-.05.91.28,2.64,2.22,3.67,2.77,2.47,1.31,5.81.91,8.11-.38l-.61-5.29c.24.7,2.01,5.66,2.28,5.82.53.3,2.15-.62,2.82-.45.11.76-.14,2.05-.11,2.87Z" fill="#56929c"/>
        <path d="M87.16,17.66c.12,1.15.07,3.27.27,4.2l-1.6.15c.13-1.45-.48-3.86-.63-5.41-.17-1.83-.23-7.01-.65-8.39l1.6-.15c.02,2.68.71,6.79,1.01,9.6Z" fill="#17ad9f"/>
        <path d="M44.83,7.54c-.48.24-2.2.85-2.37,1.28-.23.58.07,3.34.01,4.16-.14.07-.44.44-.64.43-.14,0-.61-.73-.86-.54-.05-.07-.51-.38-.55-.57l-1.23-2.5c.34.57,2.85-.27,3-.53s-.1-.82-.04-1.05c.17-.57,7.92-7.61,8.77-7.96,1.8-.75,3.42.32,5.19.39l-4.15.14c-3.45,2.01-6.14,5.04-9.39,7.33-.41.7,2.15-1.01,2.25-.58Z" fill="#6fafbb"/>
        <g>
          <path d="M93.95,17.16c-.76-.13.01-.43-.79-.42-1.15.01-4.56.71-5.23.61-.34-.05-.48-.77-.35-1.09l5.59-.7c-1.12-.26-4.82.73-5.61.46-.27-.09-.32-.88-.21-.97l5.58-.83-5.48.57c-.35-.19-.17-.57-.26-.85-.09-.36.31-.27.53-.3,1.69-.19,3.43-.11,5.11-.54-.03-.31-5.23.54-5.49.45-.29-.1-.37-.96-.1-1.11.81-.45,4.41.02,5.47-.69l-5.68.4-.02-.93,5.59-.7c-1.1-.26-4.71.71-5.49.45-.27-.09-.32-.88-.21-.97.26-.23,4.99-.26,5.72-.59l-5.75.35-.09-.99,5.71-.72c-1.13-.26-4.81.73-5.61.46-.22-.07-.31-.64-.26-.78.21-.58,5.13-.64,5.89-.86.17.13.38.22.53.39.44,3.31.72,6.59.92,9.92Z" fill="#eaab24"/>
          <path d="M94.01,21.88l-6.06.37c0-.26-.19-.78.1-.94.72-.4,4.44-.11,5.48-.57-.73-.43-5.44.55-5.62.33-.11-.13-.19-.9-.09-.99l5.59-.7c-1.1-.26-4.71.71-5.49.45-.27-.09-.32-.88-.21-.97.35-.29,4.96-.12,5.71-.72-1.05-.37-4.96.68-5.61.46-.29-.1-.37-.96-.1-1.11l5.46-.75c.8,0,.02.29.79.42.07,1.2.65,3.89.06,4.72Z" fill="#d48a20"/>
          <path d="M87.42,21.87c-.19-.93-.14-3.05-.27-4.2l-.31-4.63c.17.21.23.6.33.9.09.27-.09.65.26.85l5.48-.57-5.58.83c-.11.09-.06.88.21.97.79.27,4.49-.72,5.61-.46l-5.59.7c-.13.31.01,1.04.35,1.09.67.1,4.08-.6,5.23-.61l-5.46.75c-.26.15-.18,1.01.1,1.11.65.22,4.56-.82,5.61-.46-.76.59-5.37.42-5.71.72-.11.09-.06.88.21.97.78.26,4.39-.71,5.49-.45l-5.59.7c-.1.08-.02.85.09.99.18.22,4.9-.76,5.62-.33-1.04.46-4.76.17-5.48.57-.28.16-.09.68-.1.94l6.06-.37c-.13.18-.45.5-.63.56-.35.11-5.04.55-5.3.49-.39-.08-.59-.72-.66-1.06Z" fill="#bc6410"/>
          <path d="M87.18,13.93c-.1-.3-.16-.69-.33-.9l.31,4.63c-.3-2.81-.99-6.92-1.01-9.6,0-.42.03-.99.45-1.16.76-.31,5.2-.55,5.9-.05-.76.22-5.68.28-5.89.86-.05.14.04.71.26.78.8.27,4.48-.72,5.61-.46l-5.71.72.09.99,5.75-.35c-.73.33-5.46.37-5.72.59-.11.09-.06.88.21.97.78.26,4.39-.71,5.49-.45l-5.59.7.02.93,5.68-.4c-1.05.71-4.66.24-5.47.69-.26.15-.18,1.01.1,1.11.26.09,5.46-.76,5.49-.45-1.67.42-3.42.35-5.11.54-.22.03-.62-.07-.53.3Z" fill="#d48a20"/>
        </g>
        <path d="M85.19,16.6l-.46,4.39c-.12-.67-.22-1.28-.31-1.96-.38-3.05-.82-6.82-.91-9.86-.02-.58-.31-1.24.16-1.63.46-.19.76.3.87.67.43,1.38.49,6.56.65,8.39Z" fill="#17ad9f"/>
        <path d="M46.05,30.05c-.11-.03-.37.08-.49.05-.5-.13-2.75-.52-3.15-.45-.2-.22-.13-.31-.05-.55.49-1.61,1.39-3.12,1.79-4.83.68,1.51,1.2,3.11,1.68,4.69.11.37.25.7.23,1.1Z" fill="#277378"/>
        <path d="M63.1,23.62c-.2,3.02-.09,5.5-.09,8.46,0,.58.08,2.04-.02,2.49-.2.94-.18.77-.79.82-.03-.82.22-2.11.11-2.87-.01-.08,0-.17-.02-.25.02-2.61.2-5.2.4-7.8.02-.3-.18-.49-.17-.54.25-3.1.96-7.29,1.51-10.52.07-.41.78-4.56,1.01-4.51-.83,4.87-1.6,9.78-1.93,14.72Z" fill="#1a6565"/>
        <path d="M57.99,3.34l-.49.05c-.26-.68-.47-1.88-1.08-2.26-.04-.2.05-.23.09-.38.37-.02.49-.42.89-.46.31-.03,1.96.66,2.48.64-.82.59-1.45,1.52-1.89,2.41Z" fill="#56929c"/>
        <path d="M85.82,22.01c-.02.27-.14.88-.61.8s-.36-1.07-.45-1.45c-.03-.12-.01-.25-.03-.37l.46-4.39c.14,1.55.76,3.96.63,5.41Z" fill="#198679"/>
        <path d="M61.23,3.41c1.02.05,1.74.1,2.76.24.82,1.17-.02,2.42-1.15,2.97-3.39,1.62-1.44-1.3-1.6-3.21Z" fill="#d9eaeb"/>
        <path d="M47.56,24.94c-.8-2.52-1.17-5.34-1.91-7.9.74,2.8,2.02,5.45,2.93,8.18.83,2.5,1.46,5.11,2.26,7.62-.99-2.65-2.42-5.2-3.28-7.9Z" fill="#277378"/>
        <path d="M45.82,28.95c-.48-1.58-1-3.18-1.68-4.69.01-.04-.03-.84.1-.88,1.37,1.65,2.1,3.41,1.57,5.57Z" fill="#56929c"/>
        <path d="M61.15,17.34l-2.23-7.93c-.92-.31-1.83.15-2.81-.17-1.5-.5-2.81-3.71-2.91-5.2,1.31-.31,2.71-.42,4.04-.62,1.6,4.64,2.68,9.19,3.9,13.93Z" fill="#badbdb"/>
        <path d="M49.19,10.37c.33-1.41.54-2.74,1.11-4.08.26-.44.58-.96.13-1.26.49-.18.94-.48,1.43-.63,1.35,1.11-1.42,2.85-1.99,3.98-.34.67-.2,1.47-.69,1.99Z" fill="#badbdb"/>
        <path d="M62.31,32.52c-.66-.17-2.28.75-2.82.45-.27-.15-2.04-5.12-2.28-5.82-.22-.66-.6-1.3-.81-2.04,1.26-.03,2.46-.32,3.67-.59l1.53,5.82c.06.28-.13.26-.07.57.02.09.71,1.17.75,1.36.02.08.01.17.02.25Z" fill="#6fafbb"/>
        <path d="M62.29,32.27c-.04-.19-.73-1.27-.75-1.36-.06-.3.13-.29.07-.57-.4-1.96-.75-3.94-1.41-5.84.77-.18,1.53-.41,2.31-.59,0,.05.2.24.17.54-.2,2.6-.37,5.19-.4,7.8Z" fill="#6fafbb"/>
        <path d="M61.61,30.35l-1.53-5.82s.08,0,.12-.01c.66,1.9,1.01,3.87,1.41,5.84Z" fill="#56929c"/>
        <g>
          <path d="M63.1,23.62c.33-4.94,1.09-9.85,1.93-14.72-.23-.06-.94,4.1-1.01,4.51-.55,3.23-1.26,7.42-1.51,10.52-.77.17-1.54.41-2.31.59-.04,0-.08,0-.12.01-1.22.27-2.42.56-3.67.59-1.6-5.6-1.85-11.69-3.29-17.34.63,5.89,1.65,11.72,2.93,17.5l-7.46-.05c-.91-2.73-2.2-5.38-2.93-8.18.74,2.56,1.11,5.38,1.91,7.9-2.45-.49-4.91-5.03-7.36-5.03-2.89,0-4.86,4.04-6.47,5.94-.11.13-.22.27-.34.4-1.5,1.79-2.95,3.61-4.81,5.04-.29-.16-.22-.46-.25-.72-.74-6.24-.69-19.33,1.28-25.1l10.82,6.83c.04.19.5.5.55.57,1.71,2.67-.65,4.22-1.05,6.81,1.26-1.67,1.95-4.3,3.12-5.94s3.42-2.98,4.81-4.42c-1.92.97-3.5,2.65-5.38,3.67.05-.82-.24-3.58-.01-4.16.17-.43,1.89-1.03,2.37-1.28,1.74-.88,3.79-1.83,5.61-2.51.45.3.13.82-.13,1.26-.16.27-1.55,1.78-1.56,1.95,0,.05.37.36.33.84-.12,1.36-.42,2.69-.62,4.03.46-.79.54-1.85.74-2.74.48-.52.35-1.32.69-1.99.57-1.13,3.34-2.87,1.99-3.98.32-.1,1.08-.31,1.33-.37.1,1.49,1.4,4.7,2.91,5.2.99.33,1.89-.14,2.81.17l2.23,7.93c.13.5.24,1.02.39,1.52-.17-2.05-.77-4.17-1.2-6.23-.85-4.06-1.38-5.43-2.85-9.24l.49-.05c1.1-.1,2.15.01,3.24.07.16,1.91-1.79,4.83,1.6,3.21,1.14-.54,1.98-1.8,1.15-2.97,2.93.41,7.09,1.51,9.66,2.96,4.28,2.42,2.89,4.3.66,7.83-2.6,4.11-6.49,7.76-11.21,9.18Z" fill="#badbdb"/>
          <g>
            <g>
              <path d="M30.19,3.8c.02.34-.45,1.27-.59,1.67-1.97,5.77-2.02,18.86-1.28,25.1h-.12c-.46-5.68-.8-12.79-.47-18.46.05-.9.08-1.86.24-2.76.24-1.31,1.01-2.69,1.37-3.98l.81-1.94c0,.12.03.25.03.37Z" fill="#277378"/>
              <path d="M30.5,8.44c.32,2.67.49,5.33.18,8l-.17-3.9v-4.1Z" fill="#1a6565"/>
              <path d="M35.85,13.91c.12.35-.41,2.86-.36,3.45-.2-.43-.1-3.49.04-3.61.1-.05.3.1.33.16Z" fill="#9bb5b4"/>
              <path d="M36.09,11.15l-.33,2.45c-.63-.44,0-1.87.33-2.45Z" fill="#9bb5b4"/>
            </g>
            <g>
              <path d="M57.83,32.44c-.73-2.35-1.25-4.76-1.78-7.17-1.27-5.78-2.29-11.61-2.93-17.5,1.44,5.66,1.68,11.74,3.29,17.34.21.73.59,1.38.81,2.04l.61,5.29Z" fill="#1a6565"/>
              <path d="M61.15,17.34c-1.22-4.74-2.31-9.29-3.9-13.93-.22-.63-.72-1.73-.83-2.28.6.38.82,1.58,1.08,2.26,1.46,3.81,1.99,5.18,2.85,9.24.43,2.05,1.03,4.18,1.2,6.23-.15-.5-.26-1.01-.39-1.52Z" fill="#277378"/>
              <path d="M40.97,12.87c.25-.18.72.53.86.54.21.01.51-.36.64-.43,1.87-1.02,3.46-2.69,5.38-3.67-1.39,1.44-3.66,2.8-4.81,4.42s-1.85,4.27-3.12,5.94c.4-2.58,2.75-4.14,1.05-6.81Z" fill="#154e45"/>
              <path d="M49.19,10.37c-.21.89-.28,1.95-.74,2.74.2-1.35.5-2.67.62-4.03.04-.48-.33-.79-.33-.84,0-.17,1.4-1.67,1.56-1.95-.58,1.34-.79,2.67-1.11,4.08Z" fill="#9bb5b4"/>
              <path d="M60.67,6.76c.06.22,0,1.84-.11,2.19-.24-.37-.3-2.27-.09-2.35.05.06.19.12.2.17Z" fill="#9bb5b4"/>
            </g>
          </g>
        </g>
      </g>
    </g>
  </g>
</svg>