<?xml version="1.0" encoding="UTF-8"?>
<svg id="Ebene_2" data-name="Ebene 2" xmlns="http://www.w3.org/2000/svg" viewBox="0 0 122.46 73.98">
  <g id="Ebene_16" data-name="Ebene 16">
    <g id="muell1">
      <path d="M116.85,40.47c-.27.93.38,1.1-1.27,1.82-1.37-.75-.05-3.53.18-4.73,1.11-.2.1-1.09,1-1.46-.08.87.43.86.46.91,1.28,2.39-.11,1.94-.55,3-.09.22.22.31.18.46Z" fill="#6d0f00"/>
      <path d="M101.37,67.78c-.7.39-1.27.52-1.82,1.18-.3.36-1.22,2.61-1.37,2.64-.06.01-.4-.55-1.27-.36-.61.13-2.05,1.45-2.19,1.46-.51.04-.6-1.02-1.09-1.27-.63-.32-3.14.11-3.82.36-.11.04-.28.84-.55.91-.36.1-3.65-.97-4.55,0-3.31-2.55-7.79-2.51-11.47-4.37l-5.46-5.46c-1.16-.31-2.58,1.06-3.37-.09-1.06-1.56,1.8-2.56,2-3.46.35-1.5-1.43-2.64-1.64-4.01-.41-2.71,1.55-2.21,1.82-3.46.33-1.48-1.45-2.94-1.27-3.64.06-.25,2.02-1.14,2.37-2.37.42-1.48-.53-3.81,1.55-4.64.6-.24,1.79-.08,2.37-.36,1.32-.65,1.03-3.67,2.64-4.01-4.21,6.4-6.34,16.89-2.73,23.94,5.62,10.97,20.27,8.93,29.68,4.64.3,1.09,1.13,1.43.18,2.37Z" fill="#9d471a"/>
      <path d="M101.37,67.78c.95-.94.12-1.27-.18-2.37,2.28-1.04,5.79-2.86,7.74-4.37,3.12-2.42,4.72-6.07,9.2-6.92.08,1.48-2.79,2.33-3.64,3.37-1.36,1.65-.43,3.44-.73,4.37-.39,1.21-4.32.56-5.37,1.37-1.21.94-1.16,2.48-1.27,3.82-1.49-1.15-4.22-.11-5.74.73Z" fill="#822607"/>
      <path d="M97.91,30.82c-3.24,1.28-6.95,1.01-10.47.73.71,3.04-2.4,4.21-3.91,1.46.05-1.49,1.72-1.95,3-2.19.05,0,.32.37.36.36.21-.04.29-.53.36-.55,2.81-.48,4.94.67,5.83-3.28l4.73,2.73.09.73Z" fill="#6d0f00"/>
      <g>
        <path d="M102.83,68.88c.74-2.1-3.29.42-2.82,1.27.33-.05,1.69-.68,1.91-.18-.66.36-1.66.28-2.28.73-.41.3-1,1.78-1.09,1.82-.38.17-.84-.62-1.46-.55-.38.04-2.38,1.56-2.73,2-.76.04-.13-2.48-2.73-1.82-.63.16-1.97,1.44-2.19,1.46-.19.02-2.63-.55-3.64-.55-.17,0-1.03.55-1.09.55-.18-.01-2.3-1.53-3.1-1.82-2.28-.83-6.47-1.44-8.38-2.55-1.28-.74-1.45-1.91-2.37-2.73-.17-.15-2.57-1.81-2.73-1.82-.19-.01-1.57,1.35-3.46,1.09-1.12-.15-2.07-1.4-2.91-1.64-2.37-.66-11.81.18-14.93.18-.27,0-1.22-.55-1.46-.55-.08,0-.91.67-1.46.73-1.48.16-2.65-.77-3.1-.73-.18.02-.68.55-.73.55-1.7.02-3.6-.37-5.1-.36-.1,0-1.05.62-2,.55-.4-.03-1.72-.73-1.82-.73-.05,0-.58.55-.73.55-1.02,0-2.76-.56-2.91-.55-.09,0-.47.55-.55.55-1.12-.02-3.02-.56-3.28-.55-.73.03-3.05.53-4.19.55-1.36.02-4.47-.55-5.64-.18-.88.27-1.43,2.98-4.37,2.55C3.83,65.87.51,45.71.13,40.93-.49,33.16.94,5.17,8.05.78c3.96-2.45,4.78,1.64,5.83,2,.32.11,5.83.18,6.74.18.35,0,1.48-.37,2.37-.36.27,0,.86.55.91.55.27,0,1.09-.55,1.27-.55,1.15,0,2.43.56,2.73.55.05,0,.86-.55.91-.55,1.2,0,2.59.56,2.91.55.06,0,.86-.55.91-.55,1.64,0,3.28.34,4.92.36.48,0,1.45-.5,2.55-.36.06,0,.85.73.91.73.1,0,1.17-.85,1.82-.91,1.24-.12,2.07.7,2.37.73.46.05,1.2-.55,1.46-.55,3.15,0,12.94.86,15.3.18.19-.05,1.44-1.42,2.19-1.64,7.75-2.25,10.54,14.67,11.2,19.76.57,4.44.5,8.94,1,13.38,1.15.09,3.85.2,4.1-1.37.11-.73-.69-1.11-.09-1.55,2.08.22,3.89-.87,5.83-1.27,1.2-.25,4-.05,4.92-.55.83-.45.96-2.7,1.64-2.91,1.6-.5,3.28,3.27,6.92,2,1.54-.53,2.23-2.76,2.91,0,4.33-3.1,3.81,2.01,5.64,2.37,1.36.26,1.65-1.14,2.91-1.09.75.24.37,2.13.46,2.82l.46.46c1.04-.79,1.23-.96,1.55.18-3.07-1.17-2.01,4.58.73,1.46,1.68.49,3.33-1.25,2.91,2.19-.03-.05-.53-.04-.46-.91-.9.37.11,1.26-1,1.46.05-.24.55-.91.09-1.09-5.38.51-4.69-.54-5.01-5.19-3.45,3.13-4.56-2.36-5.55-2.64-.94-.27-2.21,1.15-2.73,1.09-.61-.07-.87-1.25-1.09-1.27s-2.31,1.88-3.55,2.37l-.09-.73-4.73-2.73c-.89,3.95-3.02,2.8-5.83,3.28-.08.01-.15.51-.36.55-.05,0-.32-.37-.36-.36-1.28.23-2.95.69-3,2.19-.08-.14.16-.74-.27-.91-.09-.04-1.92.13-2,.18-.13.08-.3,1.93-1.46,2.55-2.26,1.22-3.57-1-5.55,2-1.61.34-1.32,3.36-2.64,4.01-.58.28-1.77.12-2.37.36-2.08.83-1.13,3.17-1.55,4.64-.35,1.23-2.31,2.12-2.37,2.37-.17.7,1.6,2.16,1.27,3.64-.27,1.25-2.23.75-1.82,3.46.2,1.37,1.99,2.51,1.64,4.01-.21.9-3.07,1.9-2,3.46.79,1.16,2.21-.22,3.37.09l5.46,5.46c3.68,1.86,8.16,1.82,11.47,4.37.91-.97,4.19.1,4.55,0,.26-.07.43-.87.55-.91.68-.26,3.19-.69,3.82-.36.5.25.59,1.31,1.09,1.27.13,0,1.58-1.33,2.19-1.46.87-.19,1.21.38,1.27.36.15-.03,1.07-2.28,1.37-2.64.55-.66,1.12-.8,1.82-1.18,1.52-.84,4.25-1.88,5.74-.73.12-1.34.06-2.89,1.27-3.82,1.05-.81,4.98-.16,5.37-1.37.3-.93-.63-2.72.73-4.37.85-1.03,3.73-1.89,3.64-3.37-.06-1.14-1.04-1.84-.91-2.82.11-.84,1.82-1.87,1.82-2,0-.11-1.22-1.21-1.46-1.55,1.12.29,1.26,1.95,2.55.91.9-.72-.09-3.58,1.64-4.64-5.54.19-1.27-2.76-1.46-3.1-1.41-.19-3.49,2.05-4.73,1.37,1.65-.72,1-.89,1.27-1.82.67,1.59,4.42-2.03,4.19.64-.04.51-1.36,1.58-1.27,1.82,5.27.48,1.15,1.95,1.46,4.01.05.36,1.09,1.37,1.09,1.46,0,.41-4.23,1.96-4.37,3.1-.11.93,1.63,2.25,1.27,3.46-.18.62-4.61,2.75-4.92,4.73-.19,1.21.79,2.49-.64,3.37-1.27.79-3.51.25-4.73.91-1.78.97-.44,4-1.46,4.19-.34.06-3.25-1.84-4.64.73Z" fill="#461700"/>
        <g>
          <g>
            <path d="M113.57,33.37c.13.45-.13,1.21.73,1.46-2.73,3.12-3.8-2.63-.73-1.46Z" fill="#6d0f00"/>
            <path d="M102.83,68.88c-.11.31-.59.92-.91,1.09-.22-.5-1.58.13-1.91.18-.47-.85,3.56-3.37,2.82-1.27Z" fill="#6d0f00"/>
          </g>
          <g>
            <path d="M55.12,46.12c-.34,1.95-3.65,3.62-5.1,4.55-1.55.26-3.08.65-4.64.91-.6.1-1.83-.21-2-.18-.12.02-.76,1.31-2.09.73-1.56-7.39-3.13-14.26-2.55-22.12.21-2.92,1.35-6.6,1.46-9.29.02-.49.18-.94-.55-.82,0-.17-.28-.26-.18-.55.06-.01.12.01.18,0,.25-.05.69-.18.73-.18,5.82-.29,13.74-.76,14.2,6.56.23,3.6-.52,8.03-.36,11.93.08,2.01,1.18,6.95.91,8.47Z" fill="#c2bdba"/>
            <path d="M19.61,52.49c-.06,0-.13.01-.18,0-.35-.07-1-.92-1.46-.91-1.24-8.46-2.01-15.87-1.27-24.49.1-1.23,1.21-6.3,1.09-6.92-.08-.41-.24-.19-.46-.46-2.16,10.24-1.98,21.34-.27,31.68l-3.28-1.82c-5.73-7.76-9.83-13.23-10.2-23.67,0-.12,0-.24,0-.36l1.09-3.37c2.05-3.73,8.86-2.96,12.56-2.82.49.02.69-.19.73-.18.26.02.76.34,1.18.18l.09.36c-1.99,10.9-1.26,21.9.36,32.78Z" fill="#c2bdba"/>
            <path d="M42.56,10.24c-.79,2.96-1.67,5.89-2.19,8.92-.04,0-.48.14-.73.18l2.09-8.92c-.6.34-2.67.35-3,.64-.54.48-1.52,6.99-2,8.1-1.18.19-.51.61-.55.73-.54,1.64-.89,4.34-1.09,6.1-1.01,8.89,0,17.56,1.46,26.31-.03-.02-.43-.03-.73-.18-2.46-10.76-2.61-21.83-.55-32.68-.11-.22-1.19-.17-1.37-.09-.46.19-.06.47-.09.55-3.25,7.72-1.49,24.07.36,32.23h-.73c-1.25-8.05-2.45-16.13-1.82-24.31.09-1.23,1.54-8.05,1.27-8.38-.11-.13-2.06-.42-2.37.27-.26.58-.96,4.5-1.09,5.37-1.3,8.81-.18,18.4,1.82,27.04h-1.46c-2.07-10.74-2.5-21.93-.36-32.68-1.21,0-2.3-.64-2.73.46-2.8,7.07-1.03,24.61.55,32.23h-.73c-.74-6.63-2.4-13.21-2.19-19.94.06-1.88,2-12.22,1.64-12.75-.15-.22-.94.09-1.09-.36-.32-.95,3.23-12.34,3.64-14.2.17-.34-.17-.61-.18-.64-.03-.09.01-.25,0-.36.38-.04.66-.68,1.91-.55.09,0,.82.54.91.55,1.03.12,1.74-.59,3.1-.55.71.02,1.97.39,3.37.36l-2.73,7.19c.1.29.83.37,1,.27.34-.19,2.25-6.56,2.28-7.47.31,0,.85-.54,1.73-.36.39.08.82.81,1.46.73.07,0,.84-.69,1.09-.73,1.16-.16,1.68.29,2.28.36l-.82.18c.23,1.83-.83,4.38-1.37,6.37Z" fill="#d4d4d4"/>
            <path d="M66.41,31.91c-2.37,5.41-1.02,7.03-1.64,12.38-.19,1.67-2.32,2.53.18,3.28-.51,1.75,1.39,3.02,1.09,4.1-.09.32-1.7,1.22-1.82,1.64-.72,2.46,1.84,4.77,1.64,5.64-.04.19-2.45,2.73-2.73,2.55-.83-.54-3.48-8.62-3.82-10.01-1.97-8.13-2.34-17.37-1.82-25.31.11-1.67.29-2.63.55-3.82.24-1.11.07-3.11.55-.73.26-2.08.26-4.13.73-6.19.5-2.23,1.94-6.53,3.1-8.47.51,4.36.89,8.73,1.27,13.11.12,1.33.36,8.95.55,9.38s.96.18,1.46.46c.92.51.74,1.05.73,2Z" fill="#461700"/>
            <path d="M66.96,44.29c-.71.05-1.73-.72-2.19,0,.62-5.36-.73-6.97,1.64-12.38.91-2.09,1.76-2.76-1.55-3.28l-.27.82,1.09.46c-.5-.27-1.28-.05-1.46-.46-.19-.43-.43-8.05-.55-9.38.92.42,2.45-1.32,3.19-.91.1.06.32,1.44,1.46,1.64,1.32.24,4.19-2.03,3.73.82-.1.59-1.2,1.32-.91,2.19.42,1.25,2.36-.52,3.1.27.31,3.59.34,7.15.55,10.74-2,2.22-1.46,1.99-2.73,4.28-.95,1.71-1.68.85-3,1.37-2.06.8-1.7,2.11-2.09,3.82Z" fill="#7f5b3d"/>
            <path d="M13.97,55.77h-7.37l.46,2.73c-4.09-9.31-4.09-22.59-3.46-32.59.36,10.45,4.47,15.91,10.2,23.67,1.34,1.81.72,1.56,1.27,3,.36.94,1.94.67,1.27,2.19-.45,1.04-1.67.74-2.37,1Z" fill="#7d6f5b"/>
            <path d="M20.89,63.41c-2.75.02-6.27.19-9.29-.18l1.82-2.28c-3.94-2.56-3.53-3.63.55-5.19.69-.27,1.91.03,2.37-1,.66-1.51-.91-1.25-1.27-2.19-.56-1.44.06-1.2-1.27-3l3.28,1.82c.48,2.9,1.44,5.87,2.09,8.74.54-.78-.08-.94-.09-1-.28-2.82-.67-4.71-1.09-7.56.46,0,1.11.84,1.46.91l.27.91.73-.91c.56-.02,1.81,8.64,2.91,9.47-.22-.98-.27-2.03-.46-3-.3-1.6-.87-3.5-1.09-5.46-.04-.35-.76-.55.55-1.37.25.05.62,0,.91,0,.36,0,.84.14,1.27,0,.47,2.25,2.23,6.84,2.37,8.65.05.62-.53.49-.55.73-.05.62.96,1.85-.64,1.91-.62.03-2.19-1.26-2.37-.55l-2.46.55Z" fill="#8d8170"/>
            <path d="M17.25,19.35c-3.71-.14-10.51-.91-12.56,2.82l-1.09,3.37c-.05-3.45.86-7.57,1.64-10.93.02.78.91,2.33.64,3.46l2.82-3.55-3-.82c.02-.76,1.56.15,2,.18,1.69.12,8.29-1.77,9.65-2.73,1.25-.88-.92-.67-1.37-1,.94-.46,1.85.06,2.37-.64.26-.34.79-2.54.55-3.1.44-.23.74-.59.46-1.09l-1.73-.09c.8-.45,2.12-.43,1.82-1.73.37,0,.89.18,1.46.18l-3.64,15.66Z" fill="#ddeae9"/>
            <path d="M18.88,6.42c-1.3.69-10.04-.13-10.01,1.37,2.65,1.57,6.36,1.63,9.47,1.73-.52.69-1.43.18-2.37.64.44.33,2.62.12,1.37,1-1.36.96-7.96,2.85-9.65,2.73-.45-.03-1.98-.95-2-.18l3,.82-2.82,3.55c.27-1.13-.61-2.68-.64-3.46-.06-2.07,3.15-10.51,5.19-11.11,1.2-.35,7.24.01,9.01,0,.3,1.3-1.02,1.28-1.82,1.73l1.73.09c.29.51-.01.86-.46,1.09Z" fill="#c2bdba"/>
            <path d="M54.57,25.72c-.46-7.31-8.38-6.84-14.2-6.56.52-3.03,1.4-5.96,2.19-8.92l2.82-1.27c-.25,2.14-.83,5.86,1.64,6.92.73.31,2.2.22,2.55.36.32.13.69,1.3,1.18,1.82,1.93,2.04,3.78.04,5.46-1.27-.66,2.96-1.11,5.94-1.64,8.92Z" fill="#ddeae9"/>
            <path d="M29.99,63.6c.05-.26-.1-.5-.36-.55-.09-1.2,2.09-1.11,2.37-2.09.17-.59-1.91-7.41-2.19-8.83h1.46c.78,3.38,2.11,6.66,3,10.01.17-.12.28-.87.27-1-.05-1.28-1.77-7.04-2.19-9.01h1.82c.62,2.72,1.61,5.42,2.37,8.1.67-.45,0-.68,0-.73-.14-1.86-1.17-4.09-1.09-5.92.34.65,1.25,1.68,1.64,2.37.17.3.52.09.73.46.86,1.48,1.03,5,2.73,6.46-1.06,1.41-3.68.19-5.37.18-.16,0-1.4.63-2.73.55-.24-.01-.71-.61-1.46-.55-.1,0-.77.52-1,.55Z" fill="#8d8170"/>
            <path d="M44.56,63.41c-1.77.24-2.16.62-3.82-.73l-2-10.56c.16.01.18-.16.36-.18.15-.02.83.12,1.09,0,.7,3.14,1.82,6.23,2.82,9.29.37-.58-.26-1.46-.27-1.55-.36-2.49-.98-5.28-1.46-7.56,1.34.58,1.97-.71,2.09-.73.17-.03,1.4.28,2,.18,1.56-.26,3.09-.65,4.64-.91-2.87,1.85-2.58,2.68-6.74,1.73l2.73,9.83-1.73.09.27,1.09Z" fill="#8d8170"/>
            <path d="M59.13,53.58c-.72-.91-1.77-2.41-2.19-3.46-2.86-7.2-2.17-21.47-.91-29.13.84-.17.38.81,1.64.55-1.73,10.59-1.52,21.69,1.46,32.05Z" fill="#c2bdba"/>
            <path d="M74.79,34.83c-.2-3.59-.24-7.15-.55-10.74-.43-4.97-1.75-14.12-4.55-18.21-.47-1.31-1.62-2.94-3.1-3.1.18-.29.7-.3-.09-.36-1.36-.11-1.68.43-2.73,1.09-.16.1-.7-.12-1,.09s-.44,1.62-.55,1.82c-.76,1.43-3.67,8.58-4.1,8.83-.53.31-.06-.29-.46-.36,1.06-3.79,4.31-14.93,10.11-11.65,5.46,3.09,7.65,22.06,7.74,27.95.01.83.17,3.63,0,4.19-.11.37-.7.42-.73.46Z" fill="#c2bdba"/>
            <path d="M40.73,62.69c.03.21-.17.17-.18.18-1.7-1.46-1.88-4.98-2.73-6.46-.21-.37-.56-.15-.73-.46.67-.25.46-.23.36-.82-.07-.4-.7-2.65-.91-2.82-1.45-8.75-2.46-17.42-1.46-26.31.2-1.76.56-4.46,1.09-6.1.54-.09.39.71.36,1-.33,3.61-1.18,7.2-1.27,10.93-.08,3.16.71,17.3,1.82,19.67.42.9.8.58,1.64.64l2,10.56Z" fill="#7d6f5b"/>
            <path d="M29.99,63.6c-1.55.17-1.78-.68-2.09-.73-.56-.08-.84.64-1.27.73-1.32.27-1.84-.49-2.55-.55-.63-.05-2.01.36-3.19.36l2.46-.55c.18-.72,1.75.57,2.37.55,1.6-.07.59-1.29.64-1.91.02-.24.59-.11.55-.73-.14-1.8-1.9-6.4-2.37-8.65-.15-.72-.32-.23-.36-.46,0-.04.41-.49.36-.73-2.24-11.9-2.72-18.82-.55-31.05.59.06.78-.29.91.46.14.8-1.51,8.48-1.64,10.2-.3,3.83.54,17.6,1.82,20.94.32.83.22.49.91.64-.43.27-.26,2.36-.18,2.82.2,1.12,1.5,6.36,2,7.1.11.17-.2.35-.18.36.66.73,1.51.55,2,.64.26.05.41.29.36.55Z" fill="#7d6f5b"/>
            <path d="M4.14,15.89l-1.64.18c.84-3.93,4.3-20.08,10.38-13.57-2.76.16-3.84.99-5.28,3.28-1.61,2.55-2.85,7.13-3.46,10.11Z" fill="#c2bdba"/>
            <path d="M28.35,4.24c-1.88,5-3.41,10.04-4.37,15.3-.48-.42-.71.03-1.09,0-.73-.06-.92-.24-1.82-.18.04-.93,1.21-7.28,1.55-7.47.28-.15,1.6.14,2.09-.46.35-.42.96-3.72,1.27-4.55.11-.3.47.19.55,0,.31-.78,1-2.54.55-3.19.32.02.7.24,1.27.18.01.12-.03.27,0,.36Z" fill="#ddeae9"/>
            <path d="M11.6,63.23c-.05,0-.54.35-1,.18-1.04-.39-3.07-3.82-3.55-4.92l-.46-2.73h7.37c-4.07,1.56-4.49,2.63-.55,5.19l-1.82,2.28Z" fill="#7d6f5b"/>
            <path d="M5.59,61.05C1.53,52.28.56,40.39.68,30.82c.1.66.83,1.39.91,1.91.39,2.6.44,5.22.73,7.83,0,.07.14,1.81.55,1.37.2,2.29.5,4.48.91,6.74-.66.52-1.09,1.37-.55,2l2.37,10.38Z" fill="#9a8f82"/>
            <path d="M5.59,61.05l-2.37-10.38s.77.34.91.36c.67,3.06,2.04,7.93,3.82,10.47,1.35,1.92,2.34,2.71,4.73,2.91-3.19,3.84-5.77-.5-7.1-3.37Z" fill="#8d8170"/>
            <path d="M21.07,19.35c-.24.02-.51-.04-.73,0,.42-2.48.85-5.03,1.46-7.47.66-2.66,1.88-5.26,2.19-8.01.87.02,1.26-.52,1.55-.55.72-.06,1.18.34,1.55.36.46.65-.23,2.41-.55,3.19-.07.19-.43-.3-.55,0-.32.84-.92,4.13-1.27,4.55-.49.59-1.82.3-2.09.46-.34.18-1.51,6.54-1.55,7.47Z" fill="#d4d4d4"/>
            <path d="M2.86,41.93c-.41.44-.54-1.29-.55-1.37-.29-2.61-.34-5.23-.73-7.83-.08-.52-.81-1.25-.91-1.91-.31-2.1.55-7.86.91-10.2l1.64,1.82c-.8,6.77-.95,12.69-.36,19.48Z" fill="#c2bdba"/>
            <path d="M56.94,50.12c.42,1.04,1.47,2.55,2.19,3.46.61,2.11,3.59,10.17,5.92,10.56,1.04.18,1.78-.77,2.64-.27.05.26-.98.94-1.18,1-5.52,1.73-9.18-10.9-9.56-14.75Z" fill="#8d8170"/>
            <path d="M21.43,10.06c-.4.07-1.36-.14-1.64.09-.35.3-1.58,7.94-1.82,9.01-.04,0-.24.2-.73.18l3.64-15.66c.57,0,1.23-.18,2.19-.18-.06,2.23-1.29,4.41-1.64,6.56Z" fill="#d4d4d4"/>
            <path d="M66.59,2.78c-3.84-.39-6.45,7.73-7.28,10.65-.74,2.61-1.2,5.42-1.64,8.1-1.26.26-.8-.71-1.64-.55.39-2.38.99-4.78,1.64-7.1.4.07-.08.68.46.36.42-.25,3.34-7.4,4.1-8.83.11-.2.26-1.62.55-1.82.3-.21.85,0,1-.09,1.05-.66,1.37-1.2,2.73-1.09.8.06.27.07.09.36Z" fill="#d4d4d4"/>
            <path d="M56.21,16.8c-1.68,1.31-3.53,3.31-5.46,1.27v-.18c.86-.36,1.08-1.55,1.27-2.37.26-.06-.01.53.64.18s1.42-1.96,1.91-2.19c.91-.42,1.78.14,2,1.09-.16.64-.21,1.5-.36,2.19Z" fill="#c2bdba"/>
            <path d="M56.58,14.61c-.22-.95-1.09-1.51-2-1.09-.42.05-.21-1.48-.18-1.55.12-.28,1.23-.57,1.46-1.09.01-.03-.38-.52-.36-.55.43-.78,2.24-1.63,3.1-1.91-.75,1.87-1.51,4.24-2,6.19Z" fill="#ddeae9"/>
            <path d="M3.23,22.44l-1.64-1.82c.23-1.52.59-3.05.91-4.55l1.64-.18c-.44,2.13-.65,4.39-.91,6.56Z" fill="#d4d4d4"/>
            <path d="M37.64,3.69c.18,0,.37,0,.55,0-.03.91-1.94,7.27-2.28,7.47-.17.09-.9.02-1-.27l2.73-7.19Z" fill="#d4d4d4"/>
            <path d="M21.8,11.88c-.85.26-.47-1.2-.36-1.82.35-2.15,1.58-4.32,1.64-6.56.14,0,.76.36.91.36-.31,2.75-1.52,5.35-2.19,8.01Z" fill="#d4d4d4"/>
            <path d="M64.95,47.57c-2.51-.75-.37-1.61-.18-3.28.46-.72,1.47.05,2.19,0-.12.53.14,1.13-.18,1.73-.34.64-1.62.86-1.82,1.55Z" fill="#66492d"/>
            <path d="M4.14,51.03c-.14-.03-.88-.33-.91-.36-.54-.64-.11-1.49.55-2,.14.77.2,1.6.36,2.37Z" fill="#c2bdba"/>
            <path d="M40.19,51.94c-.26.12-.94-.02-1.09,0-1.92-10.64-2.67-21.55-.55-32.23.55.1.42-.23.91-.36-.09.29.19.38.18.55-.15,3.29-1.45,7.45-1.64,11.02-.37,6.8.7,14.4,2.19,21.03Z" fill="#d4d4d4"/>
            <path d="M40.19,51.94c-1.48-6.63-2.55-14.23-2.19-21.03.19-3.56,1.49-7.73,1.64-11.02.73-.12.57.33.55.82-.11,2.69-1.24,6.37-1.46,9.29-.58,7.87.99,14.74,2.55,22.12.48,2.28,1.09,5.06,1.46,7.56.01.09.64.97.27,1.55-1-3.05-2.12-6.15-2.82-9.29Z" fill="#7d6f5b"/>
            <path d="M39.64,19.35c-.06.01-.13-.01-.18,0-.49.13-.36.46-.91.36.25-.47-1.72-.56-1.82-.55.48-1.11,1.46-7.62,2-8.1.33-.29,2.41-.3,3-.64l-2.09,8.92Z" fill="#ddeae9"/>
            <path d="M19.61,52.49c-1.63-10.88-2.35-21.88-.36-32.78.46-.29.58-.27,1.09-.36-.03.17.03.37,0,.55-1.24,7.53-1.93,13.49-1.27,21.21.23,2.68,1.72,8.28,1.64,10.38-.03.77-.3,1.02-1.09,1Z" fill="#d4d4d4"/>
            <path d="M19.43,52.49c.06.01.12,0,.18,0,.79.02,1.06-.24,1.09-1,.09-2.1-1.41-7.7-1.64-10.38-.65-7.72.03-13.68,1.27-21.21.76-.24.4,1.15.36,1.37-1.09,7.13-2.2,23.65.36,30.23.39,1,.44.49,1.27.64-1.3.82-.58,1.02-.55,1.37.22,1.96.79,3.87,1.09,5.46.18.98.24,2.02.46,3-1.1-.83-2.36-9.49-2.91-9.47l-.73.91-.27-.91Z" fill="#7d6f5b"/>
            <path d="M17.06,51.4c-1.71-10.35-1.89-21.44.27-31.68.21.27.38.05.46.46.11.62-.99,5.69-1.09,6.92-.73,8.62.03,16.03,1.27,24.49.42,2.84.81,4.74,1.09,7.56,0,.06.63.22.09,1-.65-2.87-1.62-5.84-2.09-8.74Z" fill="#7d6f5b"/>
            <path d="M20.34,19.35c-.52.09-.63.07-1.09.36l-.09-.36c-.43.16-.92-.16-1.18-.18.24-1.08,1.47-8.72,1.82-9.01.27-.23,1.24-.02,1.64-.09-.1.62-.49,2.09.36,1.82-.6,2.44-1.03,4.98-1.46,7.47Z" fill="#ddeae9"/>
            <path d="M29.81,52.12h-1.82c-2.34-11.66-2.58-19.07-.91-30.86.03-.23.39-1.6-.36-1.37.44-1.1,1.52-.45,2.73-.46-2.14,10.76-1.71,21.94.36,32.68Z" fill="#c2bdba"/>
            <path d="M39.1,51.94c-.19.02-.21.19-.36.18-.84-.06-1.22.26-1.64-.64-1.11-2.36-1.9-16.5-1.82-19.67.09-3.73.94-7.31,1.27-10.93.03-.29.18-1.09-.36-1,.04-.12-.63-.54.55-.73.1-.02,2.07.08,1.82.55-2.13,10.68-1.37,21.59.55,32.23Z" fill="#c2bdba"/>
            <path d="M33.45,52.12h-1.09c-1.9-8.99-3.32-16.29-2.19-25.77.14-1.13,1.18-5.34,1.09-6.01-.09-.7-.23-.32-.73-.64.31-.7,2.26-.41,2.37-.27.27.33-1.18,7.15-1.27,8.38-.63,8.18.58,16.26,1.82,24.31Z" fill="#c2bdba"/>
            <path d="M26.53,52.12c-.17,0-.4.03-.55,0-.69-.15-.59.19-.91-.64-1.28-3.34-2.12-17.11-1.82-20.94.13-1.72,1.78-9.39,1.64-10.2-.13-.75-.32-.4-.91-.46.02-.11-.02-.25,0-.36.96-5.26,2.49-10.3,4.37-15.3,0,.03.35.3.18.64-.42,1.87-3.96,13.25-3.64,14.2.15.45.94.15,1.09.36.36.53-1.58,10.86-1.64,12.75-.21,6.73,1.45,13.3,2.19,19.94Z" fill="#c2bdba"/>
            <path d="M29.63,63.05c-.5-.09-1.34.09-2-.64-.01-.02.3-.2.18-.36-.5-.74-1.8-5.98-2-7.1-.08-.46-.25-2.55.18-2.82.15.03.37,0,.55,0h.73c.59,2.87,1.53,5.77,2.46,8.56.12,0,.1-1.13.09-1.18-.38-2.13-1.27-4.64-1.82-7.37h1.82c.27,1.42,2.35,8.24,2.19,8.83-.28.99-2.46.89-2.37,2.09Z" fill="#8d8170"/>
            <path d="M35.82,52.12c-.14-.07-.61.07-.73,0-.59-.34-.93-2.42-1.09-3.19-2.4-11.16-.79-17.51.18-28.22.03-.3.15-.91-.36-.82.03-.08-.37-.35.09-.55.18-.08,1.26-.13,1.37.09-2.06,10.85-1.92,21.93.55,32.68Z" fill="#c2bdba"/>
            <path d="M31.27,52.12c-2-8.64-3.12-18.23-1.82-27.04.13-.87.84-4.8,1.09-5.37.5.31.64-.07.73.64.09.67-.96,4.88-1.09,6.01-1.14,9.48.28,16.78,2.19,25.77.42,1.98,2.14,7.74,2.19,9.01,0,.13-.1.88-.27,1-.89-3.35-2.22-6.64-3-10.01Z" fill="#7d6f5b"/>
            <path d="M27.26,52.12c-1.58-7.62-3.35-25.16-.55-32.23.76-.24.4,1.14.36,1.37-1.67,11.79-1.43,19.2.91,30.86.55,2.73,1.44,5.25,1.82,7.37.01.06.03,1.19-.09,1.18-.93-2.78-1.86-5.69-2.46-8.56Z" fill="#7d6f5b"/>
            <path d="M34.18,52.12c-1.85-8.16-3.62-24.51-.36-32.23.52-.09.39.52.36.82-.97,10.72-2.59,17.07-.18,28.22.17.77.51,2.85,1.09,3.19.09.47.15,1.03.36,1.46-.08,1.83.95,4.06,1.09,5.92,0,.05.67.28,0,.73-.75-2.69-1.75-5.39-2.37-8.1Z" fill="#7d6f5b"/>
            <path d="M37.09,55.95c-.39-.69-1.3-1.71-1.64-2.37-.22-.43-.28-.99-.36-1.46.12.07.59-.07.73,0,.3.15.7.16.73.18.21.17.84,2.42.91,2.82.1.59.3.56-.36.82Z" fill="#8d8170"/>
            <path d="M66.41,31.91c.01-.95.19-1.5-.73-2l-1.09-.46.27-.82c3.31.52,2.46,1.19,1.55,3.28Z" fill="#66492d"/>
            <g>
              <path d="M44.56,63.41l-.27-1.09,1.73-.09-2.73-9.83c4.16.95,3.87.12,6.74-1.73,1.45-.94,4.75-2.6,5.1-4.55,1.25,5.96,2.48,12.02,5.83,17.21-4.88.15-9.77.11-14.66.09-.05,0-.56-.54-.73-.55-.06,0-.77.51-1,.55Z" fill="#7d6f5b"/>
              <path d="M53.12,56.04c.48,2.47-1.65,4.34-2.19,1.46-.52-2.83,1.78-3.56,2.19-1.46Z" fill="#432511"/>
            </g>
            <g>
              <path d="M58.58,8.42c-.85.28-2.67,1.13-3.1,1.91-.02.03.38.52.36.55-.22.52-1.33.81-1.46,1.09-.03.07-.24,1.6.18,1.55-.49.23-1.24,1.82-1.91,2.19s-.38-.24-.64-.18c-.95.21-.91,1.62-1.27,2.37v.18c-.49-.52-.86-1.69-1.18-1.82-.35-.15-1.82-.05-2.55-.36-2.47-1.06-1.89-4.78-1.64-6.92l-2.82,1.27c.53-2,1.59-4.54,1.37-6.37l.82-.18c.4.05.78.38,1,.36.09,0,.47-.55.55-.55,4.85-.05,9.71.03,14.57,0,.36.24.18.33.09.64-.22.74-1.91,3.13-2.37,4.28Z" fill="#c2bdba"/>
              <path d="M53.66,6.88c-.65.17-1.51,3.73-2,1.64-.31-1.33.81-2.07,2-1.64Z" fill="#ddeae9"/>
              <path d="M49.84,9.43c-.2.71-1.05,1.19-1.64.55l.27-.64,1.37.09Z" fill="#c2bdba"/>
              <path d="M50.75,17.89c.36-.75.33-2.15,1.27-2.37-.2.82-.41,2.01-1.27,2.37Z" fill="#432511"/>
            </g>
            <g>
              <path d="M74.24,24.08c-.74-.8-2.68.98-3.1-.27-.29-.87.81-1.59.91-2.19.46-2.85-2.41-.58-3.73-.82-1.13-.2-1.36-1.58-1.46-1.64-.74-.41-2.27,1.33-3.19.91-.38-4.38-.77-8.75-1.27-13.11,2.17-3.65,4.35-5.38,7.28-1.09,2.8,4.09,4.13,13.24,4.55,18.21Z" fill="#66492d"/>
              <path d="M70.96,16.89c.64,2.51-6.01,3.06-4.73-1.09.89-2.9,1.82-.39,2.28-.09.75.49,1.9.13,2.46,1.18Z" fill="#461700"/>
            </g>
            <path d="M23.25,52.12c-.29,0-.66.05-.91,0-.84-.15-.88.37-1.27-.64-2.56-6.58-1.45-23.09-.36-30.23.03-.22.39-1.61-.36-1.37.03-.17-.03-.37,0-.55.22-.04.49.02.73,0,.9-.06,1.09.12,1.82.18-2.03,10.77-1.51,21.84.36,32.59Z" fill="#c2bdba"/>
            <path d="M24.53,52.12c-.44.14-.92,0-1.27,0-1.87-10.75-2.39-21.82-.36-32.59.38.03.62-.42,1.09,0-.02.11.02.25,0,.36-2.17,12.22-1.7,19.14.55,31.05.05.24-.37.69-.36.73.04.22.22-.26.36.46Z" fill="#d4d4d4"/>
            <path d="M18.34,9.52c-3.11-.1-6.81-.16-9.47-1.73-.02-1.49,8.71-.68,10.01-1.37.25.56-.29,2.75-.55,3.1Z" fill="#d4d4d4"/>
          </g>
        </g>
      </g>
      <g>
        <path d="M120.12,48.67c-.82-.43-2.93-4.28-3.19-4.37-2.36-.87.28,2.95.64,3.46.24.34,1.46,1.44,1.46,1.55,0,.14-1.71,1.16-1.82,2-.13.98.85,1.69.91,2.82-4.48.85-6.07,4.5-9.2,6.92-1.95,1.51-5.46,3.33-7.74,4.37-9.41,4.29-24.06,6.32-29.68-4.64-3.61-7.05-1.48-17.55,2.73-23.94,1.98-3.01,3.29-.78,5.55-2,1.15-.62,1.33-2.47,1.46-2.55.09-.05,1.91-.22,2-.18.43.17.19.77.27.91,1.52,2.76,4.63,1.58,3.91-1.46,3.52.28,7.23.55,10.47-.73,1.24-.49,3.34-2.39,3.55-2.37s.48,1.2,1.09,1.27c.52.06,1.79-1.36,2.73-1.09.99.28,2.11,5.77,5.55,2.64.32,4.65-.38,5.7,5.01,5.19.46.19-.04.86-.09,1.09-.24,1.21-1.55,3.98-.18,4.73,1.25.68,3.33-1.56,4.73-1.37.18.33-4.09,3.28,1.46,3.1-1.72,1.07-.74,3.92-1.64,4.64Z" fill="#bd6027"/>
        <g>
          <path d="M117.58,47.75c-.36-.51-3-4.33-.64-3.46.26.09,2.37,3.94,3.19,4.37-1.29,1.04-1.42-.62-2.55-.91Z" fill="#960700"/>
          <path d="M99.55,61.5c.33,1.8-1.31,2.4-2.82,2.82-2.8.79-10.21.79-12.93-.18-.82-.29-6.04-3.25-5.19-4.28,3.17.54,5.37-1.72,7.01,2.09l.36-.91c1.61,2.73,3.17.33,4.73,0,.95-.2,2.09.14,3.28-.18,1.12-.3,2.69-2.23,3.64-2,.29.07,1.85,2.32,1.91,2.64Z" fill="#822607"/>
          <path d="M81.7,39.74c.29.39.04.37-.18.64-4.71,5.58-11.45,11.07-5.83,19.3,4.24,6.21,10.44,5.9,16.93,6.19.49.02.3-.05.55.46-7.17,1.26-17.11-.51-20.39-7.92-3.46-7.82,3.34-14.27,8.92-18.66Z" fill="#9d471a"/>
          <path d="M97.73,43.84c.66,3.39-4.71,4.08-6.56,1.27-3.37-5.11,5.95-4.37,6.56-1.27Z" fill="#6d0f00"/>
          <path d="M107.74,43.48l-.27.27c-2.5-3.56-7.05-7.3-11.47-7.83-1.99-.24-4.12.25-6.1.09,6.68-2.97,15.65.17,17.84,7.47Z" fill="#da8657"/>
          <path d="M99.55,54.4c.58,1.96-2.87,2.22-3.28.91-.7-2.25,2.91-2.17,3.28-.91Z" fill="#822607"/>
          <g>
            <path d="M81.7,39.74c-5.58,4.39-12.38,10.85-8.92,18.66,3.28,7.41,13.22,9.19,20.39,7.92,11.24-1.98,24.48-15.38,16.02-26.86-2.48-3.37-6.01-4.89-9.83-6.19l2.82.64c8.64,3.35,11.16,11.02,10.11,19.76l-.46.27c-.08-.13-.68-.55-.73-.55-.28.05-2.51,4.01-3.19,4.83-7.14,8.55-21.89,12.81-31.41,5.74-14.6-10.84,4.74-29.12,16.93-30.04,10.69-.81,21.07,9.45,14.57,19.85,0-1.59,1.17-3.11,1.37-4.64,1.12-8.78-7.86-15.68-16.11-14.84-2.44.25-4.56,1.59-6.74,2.55-.57.25.02-.63-.55-.36-1.04.48-3.25,2.47-4.28,3.28Z" fill="#461700"/>
            <path d="M88.08,35.65c-.45.14-.96.69-1.46.55.09-.19,1.38-.89,1.46-.55Z" fill="#bd6027"/>
          </g>
        </g>
      </g>
    </g>
  </g>
</svg>