<?xml version="1.0" encoding="UTF-8"?>
<svg id="Ebene_2" data-name="Ebene 2" xmlns="http://www.w3.org/2000/svg" viewBox="0 0 148.68 81.74">
  <g id="Ebene_16" data-name="Ebene 16">
    <g id="muell8">
      <polygon points="54.27 45.4 51.12 46.96 57.79 52.1 87.83 60.54 118.01 63.22 119.75 57.16 68.23 46.01 54.27 45.4" fill="#ca8b59"/>
      <g id="Generatives_Objekt" data-name="Generatives Objekt">
        <g>
          <g>
            <path d="M117.83,59.3c2.03.24,4.06.32,6.1.49.69.06,4.91.22,5.12.37.07.05.07.04.12.12-6.8-.19-13.63-.91-20.31-2.2-.08-.02-.71-.13-.43-.37,3.12.45,6.25,1.22,9.39,1.59Z" fill="#54230f"/>
            <path d="M42.46,51.01c-.15.24-.36.03-.12.43.71,1.18,2.06,1.66,2.8,3.41.28.65,2.07,6.05.55,5.79l-3.48-3.84c1.07,3.32.49,7.18.49,10.67-.88-.01-1.71-.21-2.56-.24l-.55-7.56-2.13,6.89.37.67c-8.58-.59-20.61-2.01-27.99-6.59-1.37-.85-2.78-2.12-2.99-3.78,3.92-7.27,13.73-6.61,20.67-5,3.01.7,5.17,1.27,6.89,4.09.93,1.52,1.29,3.32,1.52,5.06.72-3.29.25-6.39-2.13-8.84,3.88-1.06,8.57,1.95,10.79,5.06-.67-3.02-2.88-5.14-5.79-6.04,1.09-.62,2.54-.55,3.66-.18Z" fill="#ca8b59"/>
            <path d="M53.19,47.35l-2.07.55c2.66,3.54,4.39,7.67,6.28,11.65,5.54-2.18,11.07-4.35,16.89-5.73.13.75.1,1.45.18,2.2.77-.32,2.28.2,3.23.37,1.42,4.21-5.14,5.95-8.11,6.95-8.89,3-17.47,4.3-26.89,4.15,0-3.49.58-7.35-.49-10.67l3.48,3.84c1.52.26-.27-5.14-.55-5.79-.75-1.75-2.1-2.23-2.8-3.41-.24-.39-.03-.19.12-.43,2.03.67,2.87,2.21,3.72,4.02.01-2.15-.83-3.66-2.62-4.82,3.13-2.32,4.91.26,7.74,1.04-.29-.46-1.02-.61-1.46-.98-.24-.2-1.53-1.58-1.52-1.77,1.11-1.56,3.27-2.59,4.88-1.16Z" fill="#ae7247"/>
            <path d="M92.7,59.18l-.12,3.05-.73.12-18.78,4.51c-.53.25-.38,1.32-.49,1.59l-.12-1.4c-4.51.82-9.11,1.57-13.72,2.01-6.9.67-15.33,1.32-22.2.85-7.39-.51-14.69-3-21.77-5-.1-.82-.21-.11-.24-.12-1.77-.59-9.04-2.86-8.9-5.18.02-.35.98-2.3,1.22-2.74.2,1.66,1.62,2.93,2.99,3.78,7.38,4.58,19.41,5.99,27.99,6.59.75.05,1.63-.03,2.32,0,.85.04,1.68.23,2.56.24,9.42.15,18-1.14,26.89-4.15,2.97-1,9.53-2.74,8.11-6.95.46.08,1.12.01,1.65.12.83.17,6.21,1.39,6.59,1.59.1.05.2.23.3.3l-.43,1.04c2.35-.92,4.53-.32,6.89-.24Z" fill="#80431d"/>
            <path d="M53.19,47.35c.82.73,1.42,3.88,1.95,5.18.75,1.83,1.9,3.7,2.87,5.43,3.45-1.86,7.35-2.44,11.1-3.41.71-.19,4.91-1.66,5.18-1.4.1.14,0,.64,0,.67-5.82,1.39-11.35,3.55-16.89,5.73-1.89-3.98-3.62-8.1-6.28-11.65l2.07-.55Z" fill="#80431d"/>
            <path d="M92.83,61.98c.15-.85-.11-1.92,0-2.8.79.03,1.67-.19,2.5-.12,3.69.28,7.38,1.08,11.04,1.65-4.57-.06-9.07.44-13.54,1.28Z" fill="#80431d"/>
            <path d="M92.83,59.18c-.11.88.15,1.95,0,2.8-.02.13-.18.19-.12.37l-.12-.12.12-3.05s.04,0,.12,0Z" fill="#ddc5a8"/>
            <path d="M132.58,56.62c-.15.57-.32,2.05-.37,2.68,0,.08,0,.16,0,.24-.63.66.31,3.21-1.34,2.38.97.04.85-.52.85-1.34-.04-.08-1.52.35-1.59-.12l1.46-.12-1.59-.06s-.19-.15-.12-.49c.08-.41,2.16-2.8,2.68-3.17Z" fill="#683318"/>
            <path d="M132.22,59.54c-.03.59-.1,2.46,0,2.93-.44-.15-1.48.43-1.71.06-.09-.15-.47-1.96-.49-2.26l1.59.06-1.46.12c.07.47,1.54.05,1.59.12,0,.82.12,1.38-.85,1.34,1.65.83.71-1.71,1.34-2.38Z" fill="#350902"/>
            <path d="M72.95,68.57c-.03.3-.15.55-.12.85-.3.06-.6.07-.85.12l.12-.73c.2-.1.35-.03.49-.37.11-.26-.04-1.33.49-1.59-.03.56-.06,1.15-.12,1.71Z" fill="#80431d"/>
            <path d="M40.14,67.23c-.69-.03-1.56.05-2.32,0l-.37-.67,2.13-6.89.55,7.56Z" fill="#ae7247"/>
            <path d="M72.58,68.45c-.14.33-.28.26-.49.37-1.47.73-6.57,1.13-8.41,1.34-3.27.38-6.59.67-9.88.85-14.01.8-25.3.16-38.6-4.51-.23-.08-.59-.17-.55-.49.03-.37-.1-.76.12-1.1,7.07,2,14.38,4.49,21.77,5,6.86.47,15.3-.19,22.2-.85,4.61-.44,9.21-1.19,13.72-2.01l.12,1.4Z" fill="#350902"/>
            <path d="M91.85,62.35c.24.53.15,1.17.24,1.71l-19.15,4.51c.06-.56.1-1.14.12-1.71l18.78-4.51Z" fill="#350902"/>
            <g>
              <path d="M109.29,61.01c1.18.22,2.36.49,3.54.73s2.21.59,3.35.73l-3.23-.85c-.42-.25-.99-.27-1.46-.37-.05-.37.6-.26.79-.24,5.65.43,11.39.98,17.01-.12.2.59.25,1.34.37,1.95-12.13,1.77-24.55-2.34-36.59.98-.07-.42-.44-.97-.37-1.46-.06-.18.1-.23.12-.37,4.47-.84,8.97-1.34,13.54-1.28-3.65-.57-7.35-1.36-11.04-1.65-.83-.06-1.71.15-2.5.12-.08,0-.11,0-.12,0-2.36-.07-4.54-.68-6.89.24l.43-1.04c-.11-.07-.21-.25-.3-.3-.38-.2-5.75-1.42-6.59-1.59-.53-.11-1.18-.04-1.65-.12-.96-.17-2.46-.68-3.23-.37-.08-.75-.05-1.45-.18-2.2,0-.03.1-.53,0-.67-.28-.26-4.47,1.22-5.18,1.4-3.75.97-7.65,1.55-11.1,3.41-.96-1.73-2.12-3.6-2.87-5.43-.53-1.3-1.13-4.45-1.95-5.18-1.61-1.43-3.77-.4-4.88,1.16,0,.19,1.28,1.57,1.52,1.77.44.37,1.18.51,1.46.98-2.84-.77-4.61-3.35-7.74-1.04,1.79,1.16,2.64,2.67,2.62,4.82-.85-1.82-1.69-3.36-3.72-4.02-1.12-.37-2.57-.44-3.66.18,2.91.89,5.12,3.02,5.79,6.04-2.22-3.11-6.91-6.12-10.79-5.06,2.39,2.46,2.86,5.55,2.13,8.84-.24-1.74-.6-3.54-1.52-5.06-1.72-2.82-3.88-3.39-6.89-4.09-6.94-1.61-16.75-2.27-20.67,5-.24.44-1.2,2.39-1.22,2.74-.14,2.33,7.13,4.59,8.9,5.18.04.35-.35,1.15-.37,1.34-2.14-.82-4.34-1.68-6.28-2.93-.66-.43-3.25-2.39-3.48-2.99-.07-.19.3-.27.18-.43-.32.05-.78.17-1.04.37l-.37-.12c.63-.52,1.22-.46,1.83-.91,2.54-11.14,14.56-10.65,23.48-8.48.68.17,4.05,1.5,4.27,1.46.09-.01.85-.76,1.59-.85.85-.11,2.46.36,2.93.24.29-.07,1.23-1.08,2.44-1.22.67-.08,2.55.27,2.68.24.16-.04,1.37-1.41,2.44-1.59.63-.1,1.95.15,2.44,0,.19-.06,1.1-1.41,1.46-1.71,2.31-1.85,3.77-.26,6.1.37.39.22-.62,1.01.24,1.46.24.05,1.05-.69,1.22-.73.25-.06,2.66.16,2.8.24.39.23-.03.93.37,1.1.48.21,3.69.14,4.02.61.12.16-.44.91-.24.98l1.1-1.34,14.15,3.66c.56,0-.06.96-.12.98-.8.28-3.7-1.51-3.29,1.1l11.34,2.32.12.98c3-.46,6.57-.28,9.63,0,4.2.38,8.95,1.28,13.11,2.07Z" fill="#350902"/>
              <path d="M111.49,61.25c.48.1,1.04.12,1.46.37l-.12.12c-1.17-.25-2.36-.51-3.54-.73v-.12c.72.15,1.46.21,2.2.37Z" fill="#ae7247"/>
              <path d="M75.45,53.32c.13-.06,2.77.36,2.74.67-.27.35-4.04-.07-2.74-.67Z" fill="#80431d"/>
              <path d="M112.83,61.74l.12-.12,3.23.85c-1.14-.14-2.24-.5-3.35-.73Z" fill="#ceb8aa"/>
              <path d="M74.59,53.2c.55-.35.55,1.41.24,1.71l-.24-1.71Z" fill="#80431d"/>
              <g>
                <path d="M56.3,48.57c.17-.03,2.44.19,2.56.24.35.15.06.78.24.98.14.15,3.61.35,4.15.61-.15.68-.48,1.24-.98,1.71,1.03.05,1.53-1.93,2.44-1.95.08,0,.98.31,1.22.37.27.07.03.35.12.37.31.07.94-.13,1.46,0,1.38.35,2.71.9,4.09,1.28l-13.35,3.84c-.34-.09-1.08-2.45-1.28-2.87-.06-.13-.31,0-.37-.12-.22-.48-1.41-3.62-1.28-3.84.03-.05.92-.6.98-.61Z" fill="#ca8b59"/>
                <g>
                  <path d="M58.37,50.27c.66.12.93,2.02,1.34,2.2l1.28.06c-1.93.7-1.82-1-2.62-2.26Z" fill="#431a11"/>
                  <path d="M57.4,52.84c.19.03.82,1.15.61,1.22-.2-.35-.65-.79-.61-1.22Z" fill="#54230f"/>
                  <path d="M69.47,52.1c.54.09-.52.57-.79.3.08-.13.75-.31.79-.3Z" fill="#72442c"/>
                  <path d="M56.55,50.27c.12.28.41.67.12.85l-.12-.85Z" fill="#431a11"/>
                  <path d="M57.64,48.93l.37.73c-.27.07-.56-.67-.37-.73Z" fill="#72442c"/>
                  <path d="M63.62,53.44c.13-.03.43-.02.55.06l-.79.18c-.13-.06.23-.24.24-.24Z" fill="#72442c"/>
                  <polygon points="58.62 54.42 59.17 54.6 58.62 54.66 58.62 54.42" fill="#54230f"/>
                  <path d="M64.47,51.37c.1,0,.28-.03.3.06-.08.23-.71.24-.73.12.15,0,.4-.18.43-.18Z" fill="#72442c"/>
                  <path d="M61.91,53.81s.36-.02.43.06c-.2.36-.7.12-.43-.06Z" fill="#54230f"/>
                  <path d="M65.33,52.96c.42-.05.29.46-.12.24-.12-.06.1-.24.12-.24Z" fill="#350902"/>
                  <path d="M60.33,53.81c.19-.07.27.18.12.24-.18.08-.27-.19-.12-.24Z" fill="#80431d"/>
                  <polygon points="60.69 54.05 60.81 54.18 60.81 54.3 60.69 54.3 60.69 54.05" fill="#270a08"/>
                </g>
              </g>
            </g>
          </g>
          <g>
            <path d="M113.56,49.54c2.49-.27,7.87-.3,5,3.48.05.17,2.79.96,3.23,1.16s1.78,1.19,1.89,1.22c.1.03.25-.02.37,0-.02.75-.66,2.02-.61,2.87l.79-2.01c.65.29-.26,1-.24,1.46.63-.64.42-1.3,1.52-.73-.46.25-1.5,2.18-1.59,2.8-2.03-.16-4.07-.25-6.1-.49-.29-.49-1.31-.39-1.83-.49.08-.22-.29-.33-.43-.37-2.9-.79-6.3-1.52-9.27-2.2-4.24-.97-10.57-1.75-14.51-3.17-.49-.17-1.61-1.25-1.71-1.22-.12.04.08.39-.37.49-.14.03-2.44-.53-2.87-.61-.98-.53.29-.98.67-1.71,1.62.07,7.93.23,9.02-.61.42-.32-.05-1.77.49-2.2l.61,3.41,6.71-.61c.24-.13.18-1.95.49-1.71l-.49,5.73,6.59-4.76c.11,1.77.22,4.03,1.59,5.24-.15-1.63-.49-3.98,1.04-5Z" fill="#ae7247"/>
            <path d="M108.44,57.71c-.28.24.35.35.43.37,6.68,1.28,13.51,2,20.31,2.2.02.03.05.39.12.61-5.63,1.1-11.36.55-17.01.12-.2-.01-.85-.13-.79.24-.73-.15-1.47-.22-2.2-.37-.97-.2-1.96-.39-2.93-.61v-.73c0-.31-.05-1.99.06-2.07.69-.03,1.34.15,2.01.24Z" fill="#80431d"/>
            <path d="M101.97,56.49c.58.09,3.16.48,3.48.73.47.37.41,1.91.91,2.32v.73c-1.3-.29-2.6-.56-3.9-.85-.85-.19-2.03-.75-2.99-.98-1.45-.35-5.05-.53-6.1-.98-.32-.13-.97-1.36-1.22-1.71-.12-.05-.78.92-.98.98-.57.16-3.67-.49-2.44-1.34.94-.65,3.97.35,5.12.49,2.67.31,5.45.59,8.11.61Z" fill="#ae7247"/>
            <path d="M91.73,10.88c-.32.67-.97-.04-1.46.3-.3.21-1.97,6.7-1.71,7.07.07.1,1.58.2,1.83.49-.59.2-2.32-.65-1.77.43,4.55.16,9.1.57,13.66.37,1-.04,2.34.04,3.29-.12.13-.02,1.62-1.17.85-.12l2.87-.24c.36.05.84,0,1.22,0,1.51,0,3.33-.21,4.82-.49.31.21.1.33.06.61-7.56.81-15.1,1.36-22.68.73-1.42-.12-2.79-.33-4.21-.49-.1.05.06.42.06.61-.06,7.24-.13,9.3-5.91,14.02l-18.72,13.72,4.63,1.28c-1.59-.28-4.18-.23-5.12-1.46.18-.14.76-2.13.37-2.44.05-.11.1-.23.24-.24.16.9.14,1.66-.24,2.5,7.33-5.67,15.58-10.51,22.32-16.95,3.77-5.13,1.3-10.76,3.05-16.65.5-1.69.48-3.24,2.56-2.93Z" fill="#350902"/>
            <path d="M59.78,43.81c-.04.87-.55,1.58.12,2.56-.24-.1-.35.24-.37.24-2.19-.25-2.31.21-2.5-2.2l-.3,1.77c-3.46.67-.14-4.19.79-4.33.4-.06,2.28,1.45,2.26,1.95Z" fill="#ca8b59"/>
            <path d="M86.85,51.74c.42.08,2.72.64,2.87.61.45-.1.24-.45.37-.49.1-.03,1.22,1.04,1.71,1.22,3.94,1.42,10.27,2.2,14.51,3.17,2.97.68,6.36,1.4,9.27,2.2.13.04.51.15.43.37-8.17-1.48-16.36-4.08-24.57-5.49l-.98-.98c-.2.75-1.21.02-1.95-.12-.97-.19-6.39-1.11-6.77-1.65-.05-.08-.03-.84-.3-.91-.17-.05-2.69,1.06-3.29,1.1-1.03.06-3.73-.65-4.94-.85.91-.28,1.49.2,2.38-.37l-.12.49c2.07.56,4.56.39,6.34-.85.27.02-.14.98.24,1.34.18.17,4.24,1.11,4.82,1.22Z" fill="#270a08"/>
            <path d="M101.97,56.49c-2.66-.02-5.44-.3-8.11-.61-1.15-.13-4.18-1.14-5.12-.49-1.23.86,1.87,1.5,2.44,1.34.19-.05.86-1.03.98-.98.25.35.9,1.57,1.22,1.71,1.04.44,4.64.63,6.1.98.96.23,2.14.78,2.99.98-3-.68-6.01-1.37-9.09-1.71l-1.46-1.46c-.22.07-.68.84-.73.85-.14.04-2.8-.54-2.87-.67-.73-1.36,1.4-1.57,2.26-1.52,2.9.16,8.35,1.09,11.4,1.59Z" fill="#270a08"/>
            <path d="M64.05,44.91c-.14.01-.19.13-.24.24-.67,1.37-1.13,1.94-2.8,1.95-.31-.16-.91-.45-1.1-.73-.67-.98-.16-1.7-.12-2.56.22.17.23-.04.37.12-.54,1.68.54,3.46,2.38,2.44,2.25-1.25-.75-6.05-1.77-4.63-.13-.19-.17-.39-.24-.61,1.82-.43,3.27,2.28,3.54,3.78Z" fill="#54230f"/>
            <path d="M63.44,47.59c-.65.49-1.85-.17-2.44-.49,1.67-.01,2.14-.58,2.8-1.95.39.31-.18,2.3-.37,2.44Z" fill="#ca8b59"/>
            <path d="M127.46,29.54c-1.35.03-2.79-.02-4.15.37-.42-.03-.81.08-1.22.12-2.48.24-6.77,1.6-9.21,2.44-2.86.99-5.75,2.26-8.35,3.78-.1-.12-.19-.25-.3-.37-.12.03-.03.35-.06.37-.7.5-4.1,2.33-4.94,2.68-2.65,1.11-5.99,1.47-8.54,3.05,2.89-2.78,6.52-4.85,10.12-6.59,3.19-1.54,7.11-3.12,10.49-4.15,6.11-1.86,12.53-2.14,17.44-6.83l-6.71,2.32c1.57-1.44,3.44-2.56,4.94-4.09-4.85,1.48-9.45,4.14-14.45,5.43l1.65-1.89-1.65-.91c2.03-.32,4-.99,5.91-1.71,1.74-.65,3.4-1.39,5-2.32.12-.07.22-.15.37-.12.07.21-.18.79.24.79.26-1.17-.73-1.19.12-1.89.15-.12,2.03-1.12,1.95-1.28l-1.59.3c0-.08-.1-.77-.12-.98l9.09-2.56c.35.06-.59,5.5-.43,6.28.44,2.08,5.24,2.07,3.54,5.61-1.18,2.44-2.39,1.42-4.45,1.52-.12,0-.2.36-.24.37-1.38.07-3.31-.56-4.45.24Z" fill="#80431d"/>
            <path d="M123.93,19.05c-5.46.99-7.95.94-13.35,1.22-5.8.3-10.94.98-16.83.49-1.54-.13-3.41-.69-4.82-.73-.24-.35.08-.24.3-.24.88-.02,1.71.27,2.56.37.18.02.96.14.91-.24,7.59.63,15.13.08,22.68-.73-.02.12-.37.92-.18.98.21-.25.27-.57.43-.85l8.11-1.22.18.98Z" fill="#80431d"/>
            <path d="M115.63,48.44l-.73.79c.24.13.43-.06.73-.06,1.04-.01,3.98.1,4.7.98.26.31.11,2.49.3,3.05-1.09-1.41.6-3.29-1.95-3.48,1.57,1,1.15,1.96.12,3.17.07.27,4.79,1.29,4.88,2.5-.11-.03-1.44-1.02-1.89-1.22s-3.19-.99-3.23-1.16c2.87-3.78-2.51-3.74-5-3.48.39-.26,2-.76,1.83-1.65-.05-.24-2.26-1.93-2.62-2.13-.1-.06-.53.05-.61,0-.21-.15.2-.99-.37-1.34-.51-.32-1.13.1-1.59,0-.43-.09-.56-.84-.98-1.1s-1.52-.31-1.59-.37c-.16-.14.33-.68.3-.79-.03-.16-1.09-.59-1.46-1.04-.17-.12-.71-2.71-.18-2.32.23.17.23,1.94.55,2.38.19.27,1.3.63,1.34.73.08.2-.26.7-.24.73.08.22.99.24,1.28.43.33.21.77,1.03.98,1.1.41.13,1.47-.3,1.95.24.41.47.04.99.06,1.04.06.13.49-.09.79.06.38.2,2.63,1.97,2.74,2.26.11.27-.11.54-.12.67Z" fill="#350902"/>
            <path d="M124.05,17.47c.06.52.18,1.05.12,1.59-.17.19-.23,0-.24,0l-.18-.98-8.11,1.22c.04-.08-.04-.37,0-.43.38-.51,3.76-.56,4.57-.67,1.28-.17,2.59-.43,3.84-.73Z" fill="#350902"/>
            <path d="M123.44,21.25c-1.6.93-3.26,1.67-5,2.32.14-.34-.25-.35-.18-.49s2.49-1.34,2.8-1.46c.54-.22,2.17-.9,2.38-.37Z" fill="#ca8b59"/>
            <path d="M123.8,15.27c.1.75.36,1.45.49,2.2.04.21.1.42.12.61.02.2.12.9.12.98-.02.5-.15.57-.37.98-.85.7.14.72-.12,1.89-.42,0-.18-.59-.24-.79s-.39-.64-.37-.79.63-.38.73-1.28c.06-.53-.06-1.06-.12-1.59-.02-.19-.08-.41-.12-.61,0-.04,0-.08,0-.12-.08-.4-.25-.83-.37-1.22.03-.03-.03-.28,0-.3.13-.11.18.12.24.06Z" fill="#80431d"/>
            <path d="M92.7,19.91c.05.38-.73.26-.91.24-.85-.09-1.68-.39-2.56-.37-.22,0-.55-.11-.3.24-.12,0-.24,0-.37,0,0-.19-.17-.56-.06-.61,1.41.15,2.79.37,4.21.49Z" fill="#ae7247"/>
            <g>
              <path d="M124.17,19.05c-.1.9-.71,1.13-.73,1.28s.3.59.37.79c-.15-.03-.25.05-.37.12-.2-.53-1.84.15-2.38.37-.32.13-2.73,1.32-2.8,1.46s.32.15.18.49c-1.92.72-3.89,1.38-5.91,1.71l1.65.91-1.65,1.89c5-1.29,9.61-3.95,14.45-5.43-1.5,1.53-3.37,2.64-4.94,4.09l6.71-2.32c-4.91,4.69-11.33,4.97-17.44,6.83-3.38,1.03-7.3,2.61-10.49,4.15-3.6,1.74-7.23,3.81-10.12,6.59,2.55-1.58,5.89-1.94,8.54-3.05.84-.35,4.24-2.18,4.94-2.68l1.34,2.01-2.13.43-.43.43,2.93-.67c.18,1.05-.19,1.73.61,2.68.38.45,1.43.87,1.46,1.04.02.11-.46.65-.3.79.06.05,1.19.12,1.59.37s.55,1.01.98,1.1c.46.1,1.07-.32,1.59,0,.57.35.15,1.19.37,1.34.08.05.51-.06.61,0,.36.2,2.57,1.89,2.62,2.13.17.88-1.44,1.39-1.83,1.65-1.53,1.02-1.19,3.37-1.04,5-1.37-1.22-1.48-3.48-1.59-5.24l-6.59,4.76.49-5.73c-.31-.25-.25,1.58-.49,1.71l-6.71.61-.61-3.41c-.54.42-.07,1.87-.49,2.2-1.09.84-7.41.68-9.02.61-.38.73-1.65,1.18-.67,1.71-.58-.11-4.64-1.05-4.82-1.22-.38-.36.03-1.32-.24-1.34-1.78,1.25-4.27,1.41-6.34.85l.12-.49c-.89.57-1.46.08-2.38.37-1.53-.26-3.09-.58-4.63-.85l-4.63-1.28,18.72-13.72c5.79-4.73,5.85-6.78,5.91-14.02.12,0,.24,0,.37,0,1.41.04,3.28.6,4.82.73,5.89.5,11.03-.18,16.83-.49,5.41-.28,7.89-.22,13.35-1.22.01,0,.08.19.24,0Z" fill="#ca8b59"/>
              <g>
                <path d="M88.13,44.3c.06-.02.76-.08.73.12-2.14.85-4.28,1.67-6.52,2.26-.16-.43,4.21-1.52,4.57-1.65.3-.1,1.07-.69,1.22-.73Z" fill="#350902"/>
                <path d="M104.53,36.25c.49.63.71,1.55,1.46,2.01-.05.06-.14.09-.12.18l-2.93.67.43-.43,2.13-.43-1.34-2.01s-.06-.33.06-.37c.11.11.21.24.3.37Z" fill="#350902"/>
                <path d="M80.69,47.96l-.61.61-3.48.79c1.11-.99,2.88-.62,4.09-1.4Z" fill="#54230f"/>
                <path d="M97.52,40.76c.1-.01.38-.03.43.06-1.07.43-2.13,1.03-3.29,1.22.65-.36,2.2-1.19,2.87-1.28Z" fill="#270a08"/>
                <path d="M81.3,46.74c.11,0,.24-.04.3.06.04.17-3.05,1.03-3.41.98.58-.28,2.59-1.04,3.11-1.04Z" fill="#350902"/>
                <path d="M91.42,43.08c.36.32-1.59,1.04-1.65.91l1.65-.91Z" fill="#270a08"/>
                <path d="M101.91,39.18s.12.14.18.18c-.58.15-1.18.56-1.83.49.27-.14,1.46-.71,1.65-.67Z" fill="#350902"/>
                <path d="M74.72,48.69c.16-.01.33,0,.49,0-.13.27-1.27.67-1.65.43.34-.06.85-.4,1.16-.43Z" fill="#350902"/>
                <path d="M96.06,42.35c.41.04-.2.34-.24.37-.2.1-.91.37-1.16.3l1.4-.67Z" fill="#350902"/>
                <path d="M103.25,39.54c.28.45-1.47.77-1.77.79l1.77-.79Z" fill="#72442c"/>
                <path d="M76.91,48.08c.12,0,.24,0,.37,0,.25.13-1.44.67-1.65.55-.04-.13,1.18-.54,1.28-.55Z" fill="#350902"/>
                <path d="M90.57,44.42c.41.04-.2.34-.24.37-.13.07-1.13.48-1.16.43l1.4-.79Z" fill="#350902"/>
                <path d="M99.35,40.03c.12-.01.24,0,.37,0,.22.11-1.2.73-1.4.55-.06-.12.98-.54,1.04-.55Z" fill="#350902"/>
                <path d="M93.13,42.35c.12-.02.25.01.37,0,.24.12-1.18.81-1.4.55.19-.09.93-.53,1.04-.55Z" fill="#350902"/>
                <path d="M83.01,47.1c.34.36-1.37.87-1.4.79l1.4-.79Z" fill="#350902"/>
                <path d="M92.64,43.57c.11,0,.24-.04.3.06.03.12-1.13.4-1.34.49-.05-.18.98-.55,1.04-.55Z" fill="#80431d"/>
                <path d="M88.62,46.74c.12-.02.25.01.37,0,.21.11-.88.55-1.04.43-.01-.04.63-.42.67-.43Z" fill="#80431d"/>
                <path d="M85.45,46.37c.2.32-1.01.61-1.04.55l1.04-.55Z" fill="#80431d"/>
                <path d="M87.4,45.52c.2.28-.89.62-.91.55l.91-.55Z" fill="#80431d"/>
                <path d="M99.35,40.88c.21.37-.87.73-.91.55l.91-.55Z" fill="#72442c"/>
                <path d="M94.23,44.66s.24.18.12.24l-1.04.18c.09-.16.86-.44.91-.43Z" fill="#80431d"/>
                <path d="M104.72,40.52c.21-.05.44.05.24.24l-.79.18c.11-.06.51-.42.55-.43Z" fill="#72442c"/>
                <path d="M99.6,42.47c.1-.01.24-.03.3.06.03.09-.84.42-.85.37-.03-.15.51-.42.55-.43Z" fill="#80431d"/>
                <path d="M83.62,48.69c.06-.02.5-.05.37.12l-.79.18c.08-.09.35-.28.43-.3Z" fill="#683318"/>
                <path d="M92.16,45.4c.16,0,.35.13.24.24l-.67.06s.4-.3.43-.3Z" fill="#72442c"/>
                <path d="M101.18,41.86c.06-.01.5-.05.37.12l-.79.18c.07-.08.36-.29.43-.3Z" fill="#80431d"/>
                <path d="M85.57,47.96c.39.02-.29.55-.37.49v-.24l.37-.24Z" fill="#80431d"/>
                <path d="M96.06,43.93c.09-.01.28-.03.3.06l-.18.18-.55.06s.39-.3.43-.3Z" fill="#683318"/>
                <path d="M97.64,43.2l.18.06c-.17.18-.35.44-.61.24l.43-.3Z" fill="#72442c"/>
                <path d="M90.81,46.01c.37.14-.69.75-.37.24.03-.05.35-.25.37-.24Z" fill="#80431d"/>
                <path d="M103.01,41.25c.52.02-.38.45-.43.18.15,0,.4-.18.43-.18Z" fill="#80431d"/>
                <path d="M86.91,47.47c.41-.01-.07.26-.24.37-.22-.16.22-.37.24-.37Z" fill="#80431d"/>
              </g>
            </g>
            <path d="M89.78,11l-.61,2.8c-1.75,5.88.72,11.52-3.05,16.65-6.74,6.44-14.99,11.29-22.32,16.95.39-.84.4-1.6.24-2.5-.27-1.5-1.72-4.21-3.54-3.78-.22-.67-.51-1.36-.3-2.07l5.24.73c.25.12.18.64.3.85,2.13,3.61,6.11-.9,4.63-2.87-.54-.73-2.15-.94-2.99-.67-.55.17-1.2.69-.91,1.1.02.03-.01.17,0,.24-1.55-.17-3.08-.76-4.63-.91.4-.24,2.69-2.12,2.87-2.13.67-.04.53,2.99,1.4,2.26l-.61-2.32c.3-.63,5.48-.63,6.16-.3.1.05.41,1.14.91,1.59,1.8,1.58,4.4-.38,4.27-2.44s-3.82-2.67-4.7-.85l-1.28-2.62c1.84-.47,4.02-.42,5.85.06-.26,3.28,4.26,3.34,5,.55.45-1.7-1.06-3.39-2.74-2.99-.42.1-.83.84-1.04.98-1.39.94-3.38-1.5-3.78-2.74,1.87-.33,3.74-.03,5.61.06,1.23,3.99,6.23,1.01,5.12-2.13-.54-1.52-4.15-1.26-4.88.18-.03,0-.47.23-.67.12-.16-.06-1.81-2.82-1.77-2.99.03-.14,2.12-1.63,2.26-1.65.23-.02,1.03.57,1.28.73.35,5.36,7.02.97,3.35-1.95-1.03-.82-1.45-.59-2.5-.24-.13.04-.5.37-.55.37-.85-.09.56-.79.61-.98l-.12-.24c-1.59.98-1.76-.05-2.87-1.04.02-.18,2.7-1.09,2.87-1.04.32.09.69,1.83,2.68,1.22,2.85-.87,2.19-5.72-.98-5-.97.22-1.36,1.7-1.71,1.95-.4.3-2.04.24-2.56.61l-.12-.24,1.1-2.93-.12,1.22c.11.04.71-1.38.98-1.46.61-.21,4.17-.08,5.12-.12,1.15-.05,2.34-.74,3.48,0Z" fill="#ca8b59"/>
            <path d="M141,38.81s.62.39.85.79c3.03,5.21,4.05,11.85,3.29,17.81-.41.83-10.54,3.37-12.07,3.11-.06-.29.06-.73,0-1.04-.03-.19-.36-.16-.37-.18-.19-.85.51-3.47.85-4.39.17-.45.41-1.11.73-1.46.65-.71,2.39-1.39,3.05-2.38,1.56-2.34.6-6.38-.98-8.54-.19-.1-.35.1-.61.18,1.8-1.27,3.08-3.24,5.24-3.9Z" fill="#80431d"/>
            <path d="M87.83,9.54c.99.25,1.68.88,3.05.85.11,0,.23-.2.43-.12.32.15-.8.48.43.49.04,0,.08,0,.12,0,.02.14-.12.11-.12.12-2.08-.32-2.06,1.23-2.56,2.93l.61-2.8c-.42-.6-2.45-.81-3.23-.85-1.31-.08-7.58.68-7.93.49-.57-.32.75-.69.98-.73,1.26-.24,7.18-.63,8.23-.37Z" fill="#ca8b59"/>
            <path d="M79.78,26.61c.34.02.4-.27,1.22-.12-.9-.13-.1,1.04.18,1.22,3.28,2.05,5.41-6.31-.43-2.8-.65,0-.57-.21-.73-.24.73-1.45,4.34-1.7,4.88-.18,1.11,3.14-3.9,6.12-5.12,2.13Z" fill="#54230f"/>
            <path d="M77.22,31.01c.13.05.83.07.91.12.12.08,1.21,2.2,2.01.3.9-2.13-1.03-1.35-1.77-1.65-.49-.2-.15-.27-.18-.37,1.54-1.4,4,.16,2.8,2.26-.95,1.67-3.79,1.45-3.78-.67Z" fill="#b5c5d7"/>
            <path d="M66,40.27c.38-1.45,1.29.07,1.65.24,1.43.7,2.25-1.83,1.1-2.2-.44-.14-1.61.19-2.26.12-.01-.08.02-.22,0-.24,6.35-3.04,2.99,6.21-.49,2.07Z" fill="#b2b8c1"/>
            <path d="M81,26.49c.74.14,1.17.73,1.77.61.96-.19,1.03-2.18.12-2.44-.3-.09-1.54.25-2.13.24,5.84-3.5,3.71,4.85.43,2.8-.29-.18-1.08-1.35-.18-1.22Z" fill="#b5c5d7"/>
            <path d="M60.14,43.93c.45.51.2.95.37,1.28.74,1.47,3.05.88,1.83-1.46-.39-.75-1.03-.96-1.59-1.4.06-.22-.05-.18-.12-.24.1-.1.11-.35.12-.37,1.02-1.41,4.02,3.39,1.77,4.63-1.84,1.02-2.92-.76-2.38-2.44Z" fill="#b5c5d7"/>
            <path d="M65.75,40.64c.24-.05.2-.21.24-.37,3.48,4.13,6.83-5.12.49-2.07-.28-.4.37-.92.91-1.1.84-.27,2.44-.05,2.99.67,1.48,1.97-2.5,6.48-4.63,2.87Z" fill="#54230f"/>
            <path d="M76.24,34.18c.18,1.64-2.16,3.21-3.54,2.07-.19-.15-.68-1-.3-1.1.27-.07,2.5,1.8,2.74-.3.26-2.25-1.96-.66-2.38-1.65.89-.72,3.34-.28,3.48.98Z" fill="#b5c5d7"/>
            <path d="M76.73,30.76c.42.11.42.22.49.24,0,2.12,2.83,2.34,3.78.67,1.19-2.1-1.26-3.65-2.8-2.26-.07-.16-.09-.14-.24-.12.21-.14.62-.88,1.04-.98,1.68-.4,3.19,1.29,2.74,2.99-.74,2.79-5.26,2.73-5-.55Z" fill="#54230f"/>
            <path d="M81.12,20.88c.17.11.3.12.49.24-.26,2.09,2.79,2.25,3.17.3.34-1.76-1.12-3.09-2.8-2.26-.1-.26-.05-.2,0-.49,1.05-.35,1.47-.57,2.5.24,3.66,2.92-3,7.31-3.35,1.95Z" fill="#54230f"/>
            <path d="M81.61,21.13c.2.13.72.92.91.98,1.47.43,2.12-1.28.85-2.07-.54-.34-1.03.11-1.4-.85,1.68-.84,3.15.49,2.8,2.26-.38,1.95-3.43,1.79-3.17-.3Z" fill="#b5c5d7"/>
            <path d="M122.83,6.74c.17.18.1.58,0,.73h-1.28c-.21.37.55.25.67.24-.22.68-.34,1.3-.85,1.83-.35.04-.85-.15-.98.24-.13.01-.43.09-.61.12h-.49c-.6-2.71,1.88-1.03,2.07-2.93.48-.06.98-.18,1.46-.24Z" fill="#ae7247"/>
            <path d="M76.85,34.18c.13,2.06-2.46,4.02-4.27,2.44l.12-.37c1.38,1.14,3.72-.44,3.54-2.07h.61Z" fill="#54230f"/>
            <path d="M139.17,35.52c-1.52.49-3.53.76-5.12,1.1.09-.19.2-.4.24-.61.92-.11,1.99-.44,2.99-.61.77-.13,1.62-.02,2.38-.24,0,.13.05.28-.06.37-.13.02-.32-.03-.43,0Z" fill="#80431d"/>
            <path d="M127.46,29.54s.08,0,.12,0c-.14.3-.4.58-.61.85l-3.66-.49c1.36-.39,2.8-.33,4.15-.37Z" fill="#ca8b59"/>
            <g>
              <path d="M147.46,60.27h-.12c.06-.58-.29-1.12-.61-1.59-.17-.25-.25-.54-.55-.73-.23,1.06-1.26,1.45-2.2,1.83-3.16,1.28-7.31,1.61-10.61,2.56-.11-.61-.17-1.22-.3-1.83,1.53.26,11.66-2.28,12.07-3.11.75-5.95-.26-12.6-3.29-17.81-.23-.4-.82-.74-.85-.79-.1-.17-.23-.23-.24-.24-.55-.86-1.09-2.12-1.59-3.05.11-.03.3.02.43,0,.11-.09.05-.24.06-.37.01-.27-.6-.94-.73-1.28-.29-.74,0-1.68-1.22-2.26,0-.04,0-.08,0-.12,0-.46-.22-.26-.49-.67-.19-.3-.3-.86-.55-1.04-.58-.43-2.52-.45-3.29-.61l.61.61c-2.15-.25-4.26-.28-6.4-.24-.04,0-.08,0-.12,0,1.14-.8,3.07-.18,4.45-.24.04,0,.12-.36.24-.37,2.06-.1,3.28.91,4.45-1.52,1.71-3.54-3.09-3.53-3.54-5.61-.17-.78.77-6.22.43-6.28l-9.09,2.56c-.02-.19-.09-.4-.12-.61,3.46-.55,6.95-1.32,10.12-2.87-.83-2.17.83-4.43.98-6.71-.06-.42-2.03.64-2.26.67-.84.11-1.76-.23-2.62-.06.82-.42,1.9-.04,2.74-.18.11-.02,1.99-.66,2.07-.73.26-.21.61-3.52.79-4.09-2.5,1.22-5.31,1.97-8.05,2.5-1.71.33-3.52.49-5.24.73-.48.07-.99.18-1.46.24-9.82,1.24-19.64,1.27-29.45-.12-.79.64.42.57.3.79-1.49.25-.58-.66-.61-.73-.12-.29-5.65-.95-6.16-.91-.67.04-1.44.3-1.95.73s-2.22,2.94-.49,2.2c.13-.06.57-1.26.79-1.52,1.45-1.71,5.45-1.15,4.27,1.77-.06.15-.2.21-.24.37-1.05-.26-6.97.12-8.23.37-.22.04-1.54.42-.98.73.35.19,6.62-.57,7.93-.49.78.05,2.81.25,3.23.85-1.14-.74-2.33-.05-3.48,0-.95.04-4.51-.08-5.12.12-.26.09-.86,1.5-.98,1.46l.12-1.22-1.1,2.93.12.24c.53-.37,2.16-.31,2.56-.61.34-.26.74-1.73,1.71-1.95,3.17-.72,3.82,4.13.98,5-1.99.61-2.37-1.13-2.68-1.22-.17-.05-2.85.85-2.87,1.04,1.1.99,1.28,2.01,2.87,1.04l.12.24c-.05.18-1.46.89-.61.98.05,0,.42-.32.55-.37-.05.28-.1.22,0,.49.37.97.86.51,1.4.85,1.26.79.61,2.5-.85,2.07-.2-.06-.71-.84-.91-.98-.19-.12-.32-.14-.49-.24-.25-.16-1.05-.76-1.28-.73-.14.01-2.22,1.51-2.26,1.65-.04.17,1.61,2.93,1.77,2.99.2.11.64-.13.67-.12.16.03.08.24.73.24.59,0,1.83-.33,2.13-.24.91.26.84,2.25-.12,2.44-.6.12-1.03-.47-1.77-.61-.82-.15-.88.14-1.22.12-1.87-.09-3.74-.39-5.61-.06.4,1.24,2.39,3.68,3.78,2.74.16-.02.18-.04.24.12.04.09-.31.17.18.37.73.29,2.67-.48,1.77,1.65-.8,1.89-1.89-.23-2.01-.3-.09-.05-.79-.07-.91-.12-.06-.02-.07-.13-.49-.24-1.84-.48-4.02-.53-5.85-.06l1.28,2.62c.88-1.82,4.57-1.14,4.7.85h-.61c-.14-1.26-2.59-1.7-3.48-.98.42.98,2.64-.61,2.38,1.65-.25,2.11-2.47.23-2.74.3-.38.1.12.94.3,1.1l-.12.37c-.51-.45-.82-1.54-.91-1.59-.68-.32-5.86-.32-6.16.3l.61,2.32c-.87.73-.73-2.3-1.4-2.26-.18.01-2.47,1.9-2.87,2.13,1.55.15,3.08.75,4.63.91.65.07,1.82-.26,2.26-.12,1.15.36.33,2.89-1.1,2.2-.35-.17-1.27-1.7-1.65-.24-.04.16,0,.32-.24.37-.13-.22-.05-.73-.3-.85l-5.24-.73c-.21.72.09,1.4.3,2.07.07.21.11.42.24.61-.01.02-.02.26-.12.37-.86-.76-.69-1.92-1.71-1.28.64-.56.68-.69.43-1.52l-1.28,1.16c.04.16,2.38,1.65,2.68,1.89.56.44,1.19.65,1.59,1.4,1.22,2.34-1.09,2.94-1.83,1.46-.17-.33.08-.77-.37-1.28-.14-.16-.15.05-.37-.12.02-.5-1.86-2.01-2.26-1.95-.93.14-4.26,5-.79,4.33l.3-1.77c.19,2.4.31,1.94,2.5,2.2-.77.33-5.62-.3-5.73-1.04.42-.85,1.65-3.2,1.71-4.02,0-.04-.43-.37-.37-.73.03-.18,2.66-1.45,3.11-1.89.67-.65.32-1.1.98-1.59.52-.39,1.44-.38,1.83-.61.52-.31,2.51-1.79,2.93-2.2.51-.5.56-1.3,1.1-1.59.46-.25,1.37-.12,1.71-.24,1.11-.43,1.33-2.78,2.56-3.54.52-.32,1.57-.27,1.89-.79.16-.26.1-1.33.49-1.95.43-.69,2.44-1.86,2.68-2.44.27-.65.25-3,.37-3.9.07-.56.45-1.48.49-1.95.14-1.86-.5-3.68-.12-5.55-.1-.26-1.08-.63-1.22-.3l-1.52,6.77c1.53-1.84.5-5.33,2.62-6.46-.96,2.48-.41,6.12-2.87,7.81-1.31-.16.1-3.31-.12-3.41-1.61,2.09-6.8,3.47-7.13-.3-.28-3.1,3.01-6.01,5.67-7.01.76-.29,2.36-.4,2.8-.61.12-.06.45-.68.73-.85.48-.29,1.82-.39,1.89-.55.32-.73-.29-7.37.06-7.62,4.29-.21,9.08.69,11.83,4.27,11.29-1.08,22.56-2.76,33.9-3.29,2.89-.14,11.94-.7,14.15.49.93.5.95,1.2.91,2.13-.13,3.95-2.03,8.48-2.56,12.32-.15,1.11-.57,4.57-.37,5.49.3,1.32,3.03,1.63,3.66,3.41.73,2.08-.79,2.94-.61,4.02.06.37,3.48,5.23,4.02,6.22,3.61,6.61,6.29,14.18,4.88,21.83,1.86,1.14,1.39,1.58,1.59,3.35Z" fill="#350902"/>
              <g>
                <path d="M75.14,12.59h-.12c-2.12,1.14-1.09,4.62-2.62,6.46l1.52-6.77c.14-.32,1.12.04,1.22.3Z" fill="#ca8b59"/>
                <path d="M125.57,1.49c1.37-.03,10.13-.24,10.43.91.33,1.27-6.51,2.67-7.5,2.87-13,2.58-26.41,2.44-39.51.73l-.67-.91.06-.3c12.38-.96,24.76-2.99,37.2-3.29Z" fill="#54230f"/>
                <path d="M86.36,5.64c-.04-.86-1.61-.97-2.13-.85-.83.18-1.05,1.06-1.4,1.59-.3.46-1.43,2.7-1.65,2.8-.12.06-2.55.51-2.68.49-.12-.02-1.74-1.41-1.77-1.52-.1-.36-.16-7.35.18-7.5,4.41-.06,9,1.24,11.4,5.18-.66,0-1.29-.16-1.95-.18Z" fill="#ca8b59"/>
                <path d="M73.01,9.3l-4.15,2.68c-1.37.97-3.76,4.01-1.46,5.24,2.86,1.53,4.8-3.82,6.1-5.49l-.79,2.62c-.43.97-1.04,1.97-1.89,2.62-1.41,1.08-4.73,2.11-5.06-.43-.44-3.36,4.45-6.45,7.26-7.26Z" fill="#ca8b59"/>
                <path d="M75.08,8.44c.9-.12,1.48.43,2.01,1.04.01.14-1.76,1.98-1.89,2.01-1.94.52-2.04-2.8-.12-3.05Z" fill="#ca8b59"/>
                <path d="M84.11,12.35c.12,0,1.11.4,1.22.49,2.14,1.6-1.61,5.55-2.93,2.68.38-.4,2.7,1.06,2.87-.91.2-2.31-2.64-.34-3.05-.85.21-.48,1.46-1.39,1.89-1.4Z" fill="#b5c5d7"/>
                <path d="M76.06,16.61c1.01.79,1.7,3.03.18,1.04l.91,2.26.49-1.46,2.01,1.52-2.13,1.52c-.63-1.57-1.72-3.11-1.46-4.88Z" fill="#ca8b59"/>
                <path d="M75.08,25.4c.89-.07,6.62-.1,7.07.12.07.04.37.34.3.43l-9.94.18c.24-.63,1.91-.68,2.56-.73Z" fill="#ca8b59"/>
                <path d="M70.08,30.64c.68-.07,1.06,2.12,1.22,2.68l-3.23-.55c.29-.32,1.75-2.11,2.01-2.13Z" fill="#ca8b59"/>
                <path d="M65.08,33.69c.34-.15,6.55.12,7.32.24s1.09.07,1.16.91c-1.06-.38-2.22-.59-3.35-.67-.74-.05-5.2.18-5.31-.06-.06-.13.05-.37.18-.43Z" fill="#ca8b59"/>
                <polygon points="73.5 26.61 75.2 29.05 71.61 28.63 73.5 26.61" fill="#ca8b59"/>
                <path d="M79.47,11.37c.19,1.28-.64,2.41-1.46,3.29-.22-2.12-1.45-3.28,1.46-3.29Z" fill="#ca8b59"/>
                <path d="M76.06,14.42c1.26,2.86,4.42,4.04,6.65,6.04-.22.47-5.58-3.32-5.98-3.9-.14-.2-.94-2.02-.67-2.13Z" fill="#ca8b59"/>
                <path d="M86.73,6.98c-.63.42-1.07.39-1.34,1.1-.08.21-.18.34-.12.61-.3-.01-1.47.28-1.77.12.32-1.68,1.61-2.42,3.23-1.83Z" fill="#b2b8c1"/>
                <path d="M69.47,29.66c2.63.18,6.29-.36,8.78.49.66.23.69.7.12.73-.2.01-2.98-.9-3.78-.98-1.74-.16-3.86.02-5.61.12l.49-.37Z" fill="#ca8b59"/>
                <path d="M59.23,38.08l8.48,1.28c-2.97.08-5.97-.29-8.78-1.1l.3-.18Z" fill="#ae7247"/>
                <path d="M86.36,5.64c-1.4-.04-2.3-.09-3.54.73.35-.52.58-1.41,1.4-1.59.52-.11,2.09,0,2.13.85Z" fill="#80431d"/>
                <path d="M86.73,8.81c.43-1.1-.54-1.31-1.34-.73.27-.71.71-.68,1.34-1.1.73.27,1.56,1.05,1.22,1.89-.12.29-.98-.06-1.22-.06Z" fill="#9ca6b6"/>
                <path d="M83.25,14.42c.24-.02.49.01.73,0-.71.41-1.92.37-2.8.61-.51.14-2.42,1.09-2.56,1.1-.24,0-.69-.62-.67-.67.09-.26,4.78-1,5.31-1.04Z" fill="#ca8b59"/>
                <path d="M60.63,42.1c.07.06.18.02.12.24-.3-.24-2.64-1.73-2.68-1.89l1.28-1.16c.25.84.21.97-.43,1.52,1.02-.64.85.52,1.71,1.28Z" fill="#ca8b59"/>
                <path d="M77.77,10.03c1.67-.19-1.94,3.19-1.89,1.77,0-.13,1.76-1.75,1.89-1.77Z" fill="#ca8b59"/>
                <path d="M55.94,40.76l1.46.24c1.89.67,3.51,2.16,4.57,3.84-1.41-1.05-2.44-2.76-4.09-3.48-.55-.24-1.48-.15-1.95-.61Z" fill="#905423"/>
                <polygon points="76.42 23.08 77.22 24.6 75.2 24.66 76.42 23.08" fill="#ca8b59"/>
                <path d="M75.57,20.03c.54,1.05,1.07,2.3-.12,3.05l.12-3.05Z" fill="#ca8b59"/>
                <path d="M86.73,8.81c-.5,0-.98-.1-1.46-.12-.06-.27.04-.4.12-.61.8-.58,1.78-.37,1.34.73Z" fill="#566e8d"/>
                <path d="M77.16,22.1c.17.17,1.35,2.5,1.22,2.56-.87.45-.99-1.94-1.22-2.56Z" fill="#ae7247"/>
                <path d="M76.3,12.35c.75-.22.77,1.88.85,2.44-.08-.25-1.24-2.32-.85-2.44Z" fill="#ca8b59"/>
                <path d="M76.55,19.91c.18.57.81,1.49.49,2.07l-.49-2.07Z" fill="#80431d"/>
              </g>
            </g>
            <path d="M133.44,54.79c-.21.6-.71,1.28-.85,1.83-.52.37-2.6,2.76-2.68,3.17-.62-.33-.93-.61-.85.37-.21-.15-4.43-.31-5.12-.37.08-.62,1.13-2.56,1.59-2.8.12-.06.55.13.61-.12,1.04.55,1.84.82,2.68,1.83l.24-.06-1.34-2.26c1.87-.27,4.3-1.59,5.91-2.56.26.12-.11.78-.18.98Z" fill="#80431d"/>
            <path d="M120.63,53.2c.1.13.34.28.49.37.86.52,2.97.63,2.93,1.83-.11-.02-.27.03-.37,0-.08-1.21-4.81-2.23-4.88-2.5,1.03-1.21,1.45-2.18-.12-3.17,2.56.18.86,2.06,1.95,3.48Z" fill="#80431d"/>
            <path d="M124.66,55.88c.02-.33.27-.73.06-1.1-.32.81-.64.83-.06,1.34.46.4.75.37,1.22.61.08.04.17.08.24.12-.06.25-.49.06-.61.12-1.11-.57-.89.09-1.52.73-.02-.46.89-1.18.24-1.46l-.79,2.01c-.05-.85.59-2.11.61-2.87.04-1.2-2.07-1.31-2.93-1.83.49.03,3.72.94,3.84,1.1.05.07.13,1.41-.3,1.22Z" fill="#350902"/>
            <path d="M110.51,19.05c-.38,0-.86.05-1.22,0-.15-.02-.52-.23-.79-.12.15-.62,1.74-.03,2.01-.43.26-.8.42-5.31,1.65-5.06l.98,1.22c.71-.87.28-2.28,1.59-2.68l.43,2.74.79-.43.24.73c.51-1.23.57-2.38.85-3.78,1.33-.27.92.9.79,1.77,1.24-.18-.37.47.18,1.52l4.27-2.44c-.22.44-.3,2.13-.43,2.38-.14.26-3.42,1.76-3.84,2.26l-.24-.61-1.65,2.01c.06.15,1.76-.75,2.07-.37-1.08.21-2.12.84-2.93.61l-2.26-3.35c-.33.62-.36,3.09-.67,3.48-.39.49-1.63-.2-1.83.55Z" fill="#ae7247"/>
            <g>
              <path d="M80.94,53.57l5.43,1.65c-.7-.12-2.22.44-2.74.43-.81-.02-2.55-.92-3.54-.85l-.12-.24.98-.98Z" fill="#350902"/>
              <path d="M80.94,53.93c.15-.04,2.84.63,3.05.73.17.09.57.16.43.43-.32.59-3.29-.57-3.96-.43-.18-.19.45-.72.49-.73Z" fill="#80431d"/>
            </g>
            <path d="M133.93,43.44c.67.08,1.2-.54,1.83-.73.26-.08.42-.28.61-.18,1.57,2.16,2.53,6.19.98,8.54-.66.99-2.39,1.66-3.05,2.38.52-2.12,1.56-5.06-.91-6.34l-1.65,3.84c-.4-1.89-.04-3.97-.12-5.79l2.2-1.28-2.32,1.04c-.08-.39.16-.64-.3-.61-.2.01-2.38,1.93-2.56,1.95-.15.02-1.28-.35-1.59-.37-1.16-.05-2.32-.05-3.48-.06,1.66-1.46,5.63-3.62,6.71-5.43.61.3,4-1,4.15-1.34-.1.59-.36.78-.37,1.52,0,.04.35.11.37.24.03.28-1.63,2.97-2.07,3.29.5.14,1.18-.45,1.59-.67Z" fill="#ae7247"/>
            <path d="M125.39,33.08s.62.14.73.12l1.1,2.44c-.13,0-1.05.12-1.1.37-.93-.04-1.8.18-1.77-.98-.71,1.22-5.35,3.14-6.46,2.68-.21-.09-.84-.81-.55-1.1l.61-.49c.25-.15.47-.25.73-.37s.61-.11.73-.49c.3-.11.6-.1.98-.24.22-.08.51-.15.73-.24.55-.25.57-.36.98-.61-.02.13.08.1.12.12.8.37,1.11-.27,1.46-.61l.37.24c-.03.12-.03.54.06.61l.67-.91c-.03-.12-.28-.03-.37-.06-.3-.11-.43-.23-.73,0,.33-.36,1.1-.41,1.71-.49Z" fill="#ae7247"/>
            <path d="M128.32,36.01c.41.03.81.08,1.22.12.54.06,1.35.26,1.95.37-.33,1.19-.56,2.16-1.1,3.29-.5.32-.4-.86-.61-1.04-.34-.29-1.84,1.19-2.26,1.4l-1.04-4.02c.51.03.98-.19,1.83-.12Z" fill="#ae7247"/>
            <path d="M134.41,39.05c-.15.34-3.54,1.64-4.15,1.34.02-.03.06-.48.12-.61.54-1.13.77-2.11,1.1-3.29.02,0,.02-.28.43-.24.25.02,2.25,1.37,2.38,1.65.02.05.15,1.11.12,1.16Z" fill="#80431d"/>
            <path d="M123.32,29.91l3.66.49c-.16.21-.34.41-.49.61-.24.1-1.49-.48-1.34.12-.36.05-.88.14-1.22.24-.74-.13-1.41-.73-1.83-1.34.41-.04.8-.16,1.22-.12Z" fill="#ae7247"/>
            <path d="M133.56,54.91c-.34.92-1.05,3.54-.85,4.39h-.49c.04-.63.21-2.11.37-2.68s.64-1.23.85-1.83l.12.12Z" fill="#80431d"/>
            <path d="M128.8,58.69c-.84-1.01-1.65-1.27-2.68-1.83-.07-.04-.17-.08-.24-.12v-.12c1.83-.65,2.02.9,2.93,2.07Z" fill="#80431d"/>
            <path d="M127.71,56.37l1.34,2.26-.24.06c-.9-1.18-1.1-2.73-2.93-2.07.5-.54,1.45-.19,1.83-.24Z" fill="#350902"/>
            <path d="M131.61,45.15s-.35.05-.37-.06c.03-.11.25-.17.24-.18l2.32-1.04-2.2,1.28Z" fill="#80431d"/>
            <path d="M128.32,36.01c-.85-.07-1.32.15-1.83.12-.1,0-.14-.11-.37-.12.05-.24.97-.37,1.1-.37.27,0,1.13.09,1.1.37Z" fill="#54230f"/>
            <path d="M124.66,55.88c0,.08,0,.16,0,.24-.58-.51-.26-.53.06-1.34.21.37-.04.77-.06,1.1Z" fill="#80431d"/>
            <path d="M115.63,49.18c-.3,0-.49.19-.73.06l.73-.79c0,.14.08.53,0,.73Z" fill="#ece4de"/>
            <g>
              <path d="M123.93,31.37c-.22.06-1.87.67-1.83.79l3.84-.91c.18-.51-.67-.14-.79-.12-.15-.6,1.1-.02,1.34-.12-.22.29-.83.74-.85.79-.12.32.13.41.12.43-.08.39.15.58-.37.85-.61.08-1.38.13-1.71.49-.18.2,0,.12,0,.12-.35.34-.67.98-1.46.61l.49-.43c-.18.04-.44.2-.61.3-.41.25-.43.36-.98.61-.11-.29-.66.01-.73.24-.38.14-.68.13-.98.24-.27.1-.59.21-.73.49-.26.12-.49.22-.73.37-.18.11-.66.06-.61.49-.29.29.34,1.01.55,1.1,1.11.46,5.75-1.46,6.46-2.68-.03,1.16.84.93,1.77.98.23.01.27.12.37.12l1.04,4.02c.41-.22,1.91-1.69,2.26-1.4.21.18.11,1.36.61,1.04-.06.13-.1.58-.12.61-1.08,1.81-5.05,3.96-6.71,5.43,1.15.01,2.32.01,3.48.06.3.01,1.44.39,1.59.37.18-.02,2.36-1.94,2.56-1.95.46-.03.23.22.3.61,0,.01-.21.08-.24.18.01.11.36.04.37.06.09,1.82-.28,3.9.12,5.79l1.65-3.84c2.48,1.28,1.43,4.23.91,6.34-.32.35-.56,1.01-.73,1.46l-.12-.12c.07-.2.45-.86.18-.98-1.62.98-4.04,2.29-5.91,2.56-.38.06-1.33-.3-1.83.24v.12c-.47-.24-.76-.21-1.22-.61,0-.08,0-.16,0-.24.44.19.36-1.15.3-1.22-.12-.16-3.35-1.06-3.84-1.1-.15-.09-.39-.24-.49-.37-.19-.56-.05-2.74-.3-3.05-.71-.88-3.65-.99-4.7-.98.08-.2,0-.59,0-.73,0-.13.23-.4.12-.67-.12-.29-2.36-2.06-2.74-2.26-.3-.15-.74.07-.79-.06-.02-.05.35-.57-.06-1.04-.48-.55-1.54-.12-1.95-.24-.21-.06-.65-.89-.98-1.1-.29-.19-1.2-.21-1.28-.43-.01-.04.32-.53.24-.73-.04-.1-1.15-.46-1.34-.73-.31-.44-.32-2.21-.55-2.38-.52-.39.01,2.19.18,2.32-.8-.95-.43-1.64-.61-2.68-.02-.09.07-.13.12-.18-.75-.46-.97-1.38-1.46-2.01,2.61-1.52,5.49-2.79,8.35-3.78,2.44-.84,6.73-2.2,9.21-2.44.42.61,1.09,1.21,1.83,1.34Z" fill="#ca8b59"/>
              <g>
                <path d="M121.79,32.1c-.6.69-1.84.78-2.68,1.1-.93.35-1.74.98-2.74,1.04,1.65-1.09,3.59-1.51,5.43-2.13Z" fill="#350902"/>
                <path d="M123.93,31.37c.34-.1.86-.19,1.22-.24.12-.02.97-.39.79.12l-3.84.91c-.04-.12,1.61-.73,1.83-.79Z" fill="#350902"/>
                <path d="M113.99,35.03c.12-.01.25,0,.37,0,.25.13-2.34,1.12-2.62.91-.04-.12,2.13-.9,2.26-.91Z" fill="#270a08"/>
                <path d="M110.57,36.25c.12,0,.24,0,.37,0,.31.16-1.38.52-1.52.55-.08-.2,1.08-.54,1.16-.55Z" fill="#54230f"/>
                <path d="M113.74,36.01c.2-.02.41.02.61,0-.16.23-1.1.52-1.4.3.18-.08.64-.29.79-.3Z" fill="#350902"/>
                <path d="M107.77,37.1s.61-.07.49.12l-1.16.43c.17-.16.45-.49.67-.55Z" fill="#350902"/>
                <path d="M120.94,33.08c.16.37-.71.58-.91.67.07-.41.67-.41.91-.67Z" fill="#683318"/>
                <path d="M115.45,34.42c.1-.01.24-.03.3.06.04.1-.93.53-.98.37,0-.13.63-.42.67-.43Z" fill="#54230f"/>
                <path d="M124.41,33.57c-.07.13-.36.34-.37.37l-.37-.24s-.18.07,0-.12c.3-.23.43-.11.73,0Z" fill="#54230f"/>
                <path d="M116.79,34.79c.09-.02.24-.03.3.06.02.06-.8.52-.98.49.03-.13.63-.54.67-.55Z" fill="#54230f"/>
                <path d="M115.57,36.86c.14-.03.42-.03.55.06l-.91.3c-.12-.13.34-.36.37-.37Z" fill="#683318"/>
                <path d="M122.77,32.59c.2.34-.88.56-.91.43l.91-.43Z" fill="#72442c"/>
                <path d="M117.95,36.13l-.61.49c-.05-.43.43-.38.61-.49Z" fill="#54230f"/>
                <path d="M109.11,39.3c.21-.03.42,0,.24.24l-.67.06s.39-.3.43-.3Z" fill="#80431d"/>
                <path d="M124.96,31.86c.09-.01.27-.03.3.06-.06.13-.67.45-.73.24.06-.08.39-.3.43-.3Z" fill="#80431d"/>
                <path d="M107.52,39.91c.1-.02.38-.03.24.12l-.79.18c.16-.03.46-.29.55-.3Z" fill="#72442c"/>
                <path d="M122.22,34.3s-.14.01-.12-.12c.17-.1.43-.26.61-.3l-.49.43Z" fill="#683318"/>
                <path d="M119.41,35.27c-.13.37-.47.37-.73.49.14-.28.46-.39.73-.49Z" fill="#683318"/>
                <path d="M121.12,34.79c-.22.1-.51.16-.73.24.07-.23.62-.53.73-.24Z" fill="#683318"/>
                <path d="M112.28,38.08c.51.02-.33.59-.43.3.06-.08.4-.31.43-.3Z" fill="#683318"/>
                <path d="M110.57,38.81c.1-.02.38-.03.24.12l-.67.18c.07-.08.36-.29.43-.3Z" fill="#72442c"/>
                <path d="M118.13,34.18l.18.06c-.17.18-.35.44-.61.24l.43-.3Z" fill="#72442c"/>
                <path d="M107.52,38.2c.21,0,.27.11.12.24l-.55.06s.4-.31.43-.3Z" fill="#885742"/>
                <path d="M111.06,36.98c.44.05-.34.48-.43.3l.43-.3Z" fill="#80431d"/>
                <path d="M113.99,37.59c.41-.01-.07.26-.24.37-.22-.16.22-.37.24-.37Z" fill="#72442c"/>
                <path d="M109.11,37.71c.06-.03.27-.02.3.06-.25.27-.57.05-.3-.06Z" fill="#72442c"/>
              </g>
            </g>
            <path d="M124.17,20.03c.22-.4.35-.48.37-.98l1.59-.3c.08.16-1.8,1.16-1.95,1.28Z" fill="#ca8b59"/>
            <path d="M123.56,15.52c.12.39.28.82.37,1.22l-1.46.37c-.35-1.34.6-1.16,1.1-1.59Z" fill="#905423"/>
            <g>
              <path d="M121.36,6.98c-.19,1.89-2.67.22-2.07,2.93l.06.24c.39.06.4-.24.43-.24.18-.03.48-.11.61-.12.98-.11,2.85.02,3.6-.12.26-.05,1-.62,1.46-.73.55-.13,1.44.09,2.01-.24.52-.12.32.33.37.37-.48.34,0,.22,0,.24-.26,2.22-2.4,4.57-4.02,5.98-.07.06-.12-.17-.24-.06-.03.03.03.28,0,.3-.49.43-1.45.25-1.1,1.59l.18.24,1.28-.49c.04.2.1.42.12.61-1.25.3-2.56.56-3.84.73-.81.11-4.19.16-4.57.67-.04.06.04.35,0,.43-.16.29-.21.6-.43.85-.19-.05.16-.85.18-.98.04-.28.24-.4-.06-.61-1.49.28-3.31.49-4.82.49.2-.75,1.44-.06,1.83-.55.31-.39.34-2.85.67-3.48l2.26,3.35c.81.23,1.85-.4,2.93-.61-.32-.38-2.01.52-2.07.37l1.65-2.01.24.61c.42-.5,3.7-2,3.84-2.26.13-.24.21-1.94.43-2.38l-4.27,2.44c-.55-1.05,1.05-1.71-.18-1.52.13-.86.53-2.03-.79-1.77-.28,1.4-.34,2.55-.85,3.78l-.24-.73-.79.43-.43-2.74c-1.3.4-.87,1.82-1.59,2.68l-.98-1.22c-1.22-.25-1.39,4.27-1.65,5.06-.27.4-1.87-.2-2.01.43.28-.11.64.1.79.12l-2.87.24c.77-1.05-.73.1-.85.12-.95.17-2.29.08-3.29.12-4.56.2-9.11-.2-13.66-.37-.55-1.08,1.18-.23,1.77-.43-.25-.29-1.76-.39-1.83-.49-.26-.37,1.41-6.87,1.71-7.07.5-.35,1.15.36,1.46-.3,0,0,.14.02.12-.12,2.03-.18,1.79-.05,3.72.12.92.08,1.88-.06,2.8,0l-.73-.24c-2,.52-4.28-1.2-5.91.12-1.23-.01-.11-.34-.43-.49-.2-.08-.32.12-.43.12l-2.07-.67c.47-.35,1.43.35,1.89.18.16-.06.93-1.68.61-1.95-.81,2.52-1.06,1.46-3.23,1.22,1.19-2.92-2.82-3.47-4.27-1.77-.23.27-.66,1.47-.79,1.52-1.73.75-.03-1.76.49-2.2s1.28-.69,1.95-.73c.51-.03,6.04.63,6.16.91.03.07-.88.98.61.73.11-.22-1.09-.15-.3-.79,9.81,1.39,19.63,1.36,29.45.12Z" fill="#ca8b59"/>
              <g>
                <path d="M90.88,10.4c-1.37.03-2.06-.61-3.05-.85.04-.15.18-.21.24-.37,2.17.24,2.43,1.3,3.23-1.22.32.27-.45,1.89-.61,1.95-.46.17-1.42-.54-1.89-.18l2.07.67Z" fill="#350902"/>
                <path d="M123.93,16.74s0,.08,0,.12l-1.28.49-.18-.24,1.46-.37Z" fill="#270a08"/>
                <path d="M102.28,16.61c1.09.89.17,1.3.55,2.38l-2.5.3c-.06-.54,1.35-.06,1.52-.3.07-.1.04-2.05.43-2.38Z" fill="#ae7247"/>
                <path d="M91.85,10.76s-.08,0-.12,0c1.64-1.32,3.92.4,5.91-.12l.73.24c-.93-.06-1.88.08-2.8,0-1.93-.17-1.69-.3-3.72-.12Z" fill="#54230f"/>
                <path d="M98.62,11c2.04.2,4.18.16,6.16.79l-3.11-.3-3.05-.49Z" fill="#350902"/>
                <path d="M112.4,11.37c.19.02.41.17.24.37-1.76.26-3.8-.3-5.37.37l-.55-.18,5.67-.55Z" fill="#350902"/>
                <path d="M95.08,18.93l4.45.3c-1.02.05-2.09.14-3.11.06-.18-.01-1.39-.06-1.34-.37Z" fill="#350902"/>
                <path d="M103.38,10.76l4.33.06c-1.35.38-2.99.21-4.33-.06Z" fill="#350902"/>
                <polygon points="120.82 10.52 119.72 11 116.36 10.82 120.82 10.52" fill="#54230f"/>
                <path d="M96.79,10.03c.72-.16,2.13.09,2.87.3-.44-.04-3.32.04-3.29-.12.15,0,.39-.17.43-.18Z" fill="#350902"/>
                <path d="M123.13,10.03c.48-.05.86.17,1.34.12-.05.48-.77.06-1.22.12-.55.08-1.28.53-1.89.43.34-.2,1.45-.64,1.77-.67Z" fill="#270a08"/>
                <path d="M91.3,18.69c.43-.07,1.95.1,2.38.3l-2.74.06c-.24-.19.34-.36.37-.37Z" fill="#54230f"/>
                <path d="M115.57,10.4c.16,0,.69-.1.49.24l-2.62.06c.65-.13,1.48-.29,2.13-.3Z" fill="#350902"/>
                <path d="M99.23,7.83c.18,0,.86.06.91.3l-1.65.06c-.11-.22.69-.36.73-.37Z" fill="#54230f"/>
                <path d="M112.16,8.2c.22-.04,1.16-.11,1.28.18l-1.77.18c-.24-.21.44-.36.49-.37Z" fill="#350902"/>
                <path d="M116.42,7.71c.12,0,.24,0,.37,0,.35.19-1.85.64-2.01.43.33-.15,1.34-.43,1.65-.43Z" fill="#350902"/>
                <path d="M95.45,7.59l1.77.18c-.53.04-1.4.26-1.77-.18Z" fill="#431a11"/>
                <path d="M101.06,10.52l1.77.18c-.29.15-1.77.21-1.77-.18Z" fill="#54230f"/>
                <path d="M101.91,7.96c.37-.02.69.09,1.04.18l-1.89.3c-.26-.34.71-.48.85-.49Z" fill="#80431d"/>
                <path d="M109.47,10.64c.19-.01.77-.11.73.24l-1.52.06c-.04-.17.74-.3.79-.3Z" fill="#54230f"/>
                <path d="M96.06,11.25c.19,0,.56-.08.37.24l-1.28.06c.09-.14.84-.31.91-.3Z" fill="#72442c"/>
                <path d="M103.74,18.81c.17-.03.97.05.91.3-.25-.08-1.44.04-1.34-.12.14,0,.4-.18.43-.18Z" fill="#72442c"/>
                <path d="M89.11,7.22l1.04.18c-.16.05-1.22.24-1.04-.18Z" fill="#54230f"/>
                <path d="M126.97,9.54c.04.42-.87.24-1.22.18l1.22-.18Z" fill="#54230f"/>
                <path d="M104.84,8.2c.14-.02.7-.09.49.24l-1.04.06c-.08-.15.51-.3.55-.3Z" fill="#54230f"/>
                <path d="M106.3,8.32l1.28.06c-.31.36-.96.16-1.28-.06Z" fill="#54230f"/>
                <path d="M93.25,7.59c.22-.07.89,0,1.16.06l-1.28.18c-.12-.06.09-.23.12-.24Z" fill="#54230f"/>
                <path d="M113.99,18.08c.17-.06.71,0,.91.06l-1.04.18c-.12-.06.09-.23.12-.24Z" fill="#54230f"/>
                <path d="M118.5,7.59c.58.09-.64.59-.91.3.14-.08.87-.31.91-.3Z" fill="#54230f"/>
                <path d="M112.52,10.64c.16-.02.58-.09.55.18l-.91.06c-.08-.09.34-.24.37-.24Z" fill="#54230f"/>
                <path d="M112.77,18.44l.67.06c-.2.38-1.02.13-.67-.06Z" fill="#683318"/>
                <path d="M119.84,7.59c.12-.02.25.01.37,0,.31.16-.75.39-.79.18.14,0,.4-.18.43-.18Z" fill="#72442c"/>
                <path d="M107.52,18.81c.1-.02.54-.02.55.06l-.79.18c-.13-.06.23-.24.24-.24Z" fill="#80431d"/>
                <path d="M119.11,17.47c.12-.02.34-.03.43.06l-.67.18c-.13-.06.23-.24.24-.24Z" fill="#350902"/>
                <path d="M119.78,9.91s-.04.3-.43.24l-.06-.24h.49Z" fill="#54230f"/>
                <path d="M95.08,10.03s.36-.02.43.06c-.2.36-.7.12-.43-.06Z" fill="#54230f"/>
                <path d="M91.06,9.79c.12-.08.35.06.43.18-.21.19-.7,0-.43-.18Z" fill="#54230f"/>
                <path d="M126.97,9.54l.49-.3-.49.3Z" fill="#54230f"/>
                <path d="M120.08,17.22c.42-.05.29.46-.12.24-.12-.06.1-.24.12-.24Z" fill="#72442c"/>
                <path d="M92.89,10.88c.42-.05.29.46-.12.24-.12-.06.1-.24.12-.24Z" fill="#72442c"/>
                <path d="M108.74,8.44s.36-.02.43.06c-.21.26-.75.13-.43-.06Z" fill="#54230f"/>
                <path d="M117.4,10.15c.12.01.54-.05.55.06-.07.08-.64.15-.55-.06Z" fill="#72442c"/>
                <path d="M97.28,11.25s.25.18.12.24c-.31.17-.35-.22-.12-.24Z" fill="#80431d"/>
              </g>
            </g>
            <g>
              <path d="M124.29,17.47c-.13-.75-.39-1.44-.49-2.2,1.62-1.41,3.76-3.75,4.02-5.98l.61-.06c-.2-.1-.41-.03-.61-.18-.04-.03.16-.49-.37-.37v-.12c.79-.3,1.01-1.9,0-2.01.29-.06.8-.11.61-.55,2.73-.53,5.55-1.28,8.05-2.5-.18.56-.53,3.88-.79,4.09-.09.07-1.96.71-2.07.73-.84.14-1.92-.24-2.74.18.86-.17,1.78.17,2.62.06.23-.03,2.19-1.09,2.26-.67-.15,2.27-1.8,4.54-.98,6.71-3.17,1.55-6.66,2.31-10.12,2.87Z" fill="#80431d"/>
              <g>
                <path d="M127.83,9.3s-.48.1,0-.24c.2.16.41.08.61.18l-.61.06Z" fill="#54230f"/>
                <path d="M133.99,14.05c.59.07-1.51,1.05-1.77.91.23-.18,1.62-.93,1.77-.91Z" fill="#54230f"/>
                <path d="M127.64,16.13c.21.02.28.1.12.24-.19.04-1.98.53-2.01.43.2-.18,1.79-.68,1.89-.67Z" fill="#54230f"/>
                <path d="M130.33,15.4c.08-.02.75-.08.73.12l-1.65.43c-.04-.08.86-.54.91-.55Z" fill="#350902"/>
                <path d="M131.55,7.59c.13-.04,1.15-.01,1.16.06l-1.4.3c-.2-.16.17-.34.24-.37Z" fill="#350902"/>
                <path d="M131.91,5.39c.1-.01.24-.03.3.06.02.05-.77.57-.98.37-.01-.04.63-.42.67-.43Z" fill="#350902"/>
                <path d="M133.86,4.91c.45.08-.47.49-.55.43l.55-.43Z" fill="#54230f"/>
                <path d="M129.72,6c.32.14-.49.54-.55.3l.55-.3Z" fill="#350902"/>
                <path d="M129.11,9.54s.25.18.12.24l-.55-.06c.15,0,.4-.19.43-.18Z" fill="#431a11"/>
              </g>
            </g>
            <path d="M134.29,36.01c-.04.21-.16.42-.24.61-.42.93.28.55.49,1.28.1.37-.06.81-.12,1.16.02-.05-.1-1.11-.12-1.16-.13-.27-2.13-1.62-2.38-1.65-.41-.04-.4.25-.43.24-.6-.1-1.41-.31-1.95-.37,1.7.09,3.04.08,4.76-.12Z" fill="#350902"/>
            <g>
              <path d="M137.71,31.49c-.34-.08-.29.35-.18.61l.18-.49c1.22.57.93,1.51,1.22,2.26.13.34.75,1.01.73,1.28-.76.22-1.6.11-2.38.24-1,.17-2.07.5-2.99.61-1.71.2-3.06.21-4.76.12-.41-.04-.81-.09-1.22-.12.03-.27-.82-.36-1.1-.37l-1.1-2.44c1.12-.14,2.34-.28,3.41-.67l-3.23.43.43-.43-.98-.3s-.24-.1-.12-.43c.02-.05.64-.5.85-.79.15-.2.33-.4.49-.61.21-.27.47-.55.61-.85,2.14-.03,4.25,0,6.4.24l-.61-.61c.77.16,2.71.18,3.29.61.24.18.36.74.55,1.04.26.41.48.21.49.67Z" fill="#80431d"/>
              <g>
                <path d="M137.71,31.49s0,.08,0,.12l-.18.49c-.11-.26-.16-.69.18-.61Z" fill="#ddc5a8"/>
                <path d="M126.12,33.2c-.11.01-.69-.13-.73-.12.52-.27.28-.47.37-.85l.98.3-.43.43,3.23-.43c-1.07.39-2.29.53-3.41.67Z" fill="#54230f"/>
                <path d="M132.4,32.1c1.39-.16,2.93.12,4.33.06l-5.43.3c.24-.15.84-.34,1.1-.37Z" fill="#350902"/>
                <path d="M133.01,31.25c.34-.11,1.93.19,2.38.3l-2.5-.06c-.12-.06.09-.23.12-.24Z" fill="#350902"/>
                <path d="M136.06,33.08l.55.91c-.25.06-.44-.5-.67-.43-.1.03-.16.65-.49.61l.61-1.1Z" fill="#f6f3e8"/>
                <path d="M131.06,31.37c.2-.07,1.2-.07,1.4.18l-1.52.06c-.12-.06.09-.23.12-.24Z" fill="#54230f"/>
                <path d="M128.62,31.62c.24-.08.99,0,1.28.06l-1.4.18c-.12-.06.09-.23.12-.24Z" fill="#350902"/>
                <path d="M135.21,30.88l1.16.18c0,.06-1.33.24-1.16-.18Z" fill="#350902"/>
                <path d="M128.86,30.4c.3.03.64-.07.91.06,0,.05-.9.18-.91-.06Z" fill="#54230f"/>
                <path d="M136.18,30.03s.25.18.12.24c-.31.17-.35-.22-.12-.24Z" fill="#54230f"/>
              </g>
            </g>
            <g>
              <path d="M140.75,38.57c-2.66,1.34-4.13,3.41-6.83,4.88-.41.22-1.09.81-1.59.67.44-.33,2.11-3.01,2.07-3.29-.02-.13-.37-.2-.37-.24,0-.74.27-.93.37-1.52.06-.35.23-.78.12-1.16-.2-.73-.91-.35-.49-1.28,1.59-.34,3.6-.61,5.12-1.1.5.92,1.03,2.19,1.59,3.05Z" fill="#80431d"/>
              <path d="M141,38.81c-2.16.66-3.44,2.63-5.24,3.9-.63.19-1.16.81-1.83.73,2.7-1.47,4.17-3.54,6.83-4.88,0,.01.14.08.24.24Z" fill="#ece4de"/>
              <path d="M134.72,39.3c.08-.02.26-.02.3.06l-.67.67c-.16-.19.26-.71.37-.73Z" fill="#ece4de"/>
            </g>
            <path d="M122.83,7.47s.06.18-.06.24c-.06.04-.4-.01-.55,0-.12.01-.88.12-.67-.24h1.28Z" fill="#683318"/>
            <g>
              <path d="M128.07,6c.19.44-.32.49-.61.55,1.01.11.79,1.71,0,2.01-1.12.43-4.73.82-6.1.98.52-.53.63-1.15.85-1.83.15-.01.49.04.55,0,.12-.07.04-.21.06-.24.1-.15.17-.55,0-.73,1.73-.24,3.54-.4,5.24-.73Z" fill="#ca8b59"/>
              <path d="M127.46,8.57v.12c-.57.33-1.46.11-2.01.24-.47.11-1.21.68-1.46.73-.75.14-2.61,0-3.6.12.13-.4.62-.2.98-.24,1.36-.16,4.98-.55,6.1-.98Z" fill="#54230f"/>
              <path d="M126.06,6.61c.21,0,.42-.02.24.24l-1.04.18c-.02-.08.74-.43.79-.43Z" fill="#72442c"/>
              <path d="M124.23,7.1c.07,0,.17-.02.18.06-.19.19-.45.4-.61.12.15,0,.4-.18.43-.18Z" fill="#54230f"/>
            </g>
            <path d="M124.05,33.93s.3-.23.37-.37c.09.03.34-.06.37.06l-.67.91c-.09-.07-.09-.49-.06-.61Z" fill="#ece4de"/>
          </g>
        </g>
        <path d="M3.56,60.15c-.07.05-.18.17-.24.24-.26.34-.4.84-.24,1.22.02.04-.02.1,0,.12-.13.02-.2.13-.24.24-.78,2.36-.92,4.97-2.32,7.13.03.22,2.94,2.16,3.35,2.26,1.95.46,1.94-.66,2.56-.85.2-.06,2.07.6,2.2.73.41.43-.49,2-.3,2.38.13.25,4.91,2.04,5.18,2.01.76-.09,1.31-1.77,1.46-1.83.26-.09,2.9.55,2.99.79.12.32-.71,2.19-.18,2.38,1.03-.3,3.31,1.04,4.27.73.61-.19.66-1.41.73-1.46.24-.17,2.78.23,2.99.55.18.28.07,1.8.3,2.01.19.16,4.64.79,4.88.73.5-.12,1.15-1.97,1.46-2.07.2-.07,2.38.15,2.56.24.83.43-.13,1.73.61,2.32l5.24.37c.64-.13,1.45-2.92,1.83-3.17.42-.27,1.21,0,1.46-.12.21-.1.07-1.01.91-.73.06,1.23.4,2.46.24,3.72,1.02.05,2.03-.05,3.05-.06.58.79,2.4.14,3.35.49.4-.21.23-.53.3-.73.21-.54.6-2.64,1.04-2.8.35-.13,1.24.18,1.59-.37l.79,3.35c.3.39.84.08,1.22.06,1.61-.09,3.17-.38,4.82-.12.37-.16.71-2.61,1.04-2.99.41-.47.95-.18,1.28-.43.05-.04.66-1.03.67-1.1l1.77,3.78c2.96-.09,5.9-.81,8.72-1.52.01-.61-.55-3.59-.18-3.84l14.57-3.9c.03.15.17.4.18.61.1-.07.18-.69.18-.73,5.17-1.19,9.87-1.75,15.18-1.34,2.63.2,18.05,2.68,19.15,2.07.3-.17.95-1.84,1.22-2.2.08.45.11,1.01.06,1.46s-.34,1.01-.43,1.46l.12-1.95-1.34,1.95c-6.67-.71-13.37-2.25-20.06-2.13-.13.31.13.86.12,1.04-.05,2.77.14,5.54.43,8.29.19.14,4.51.2,4.76.12.66-.22,1.12-2.54,1.4-2.87.31-.36,1.37-.32,1.46-.49.14-.26-.23-1.34.3-1.65.29.02.63,4.33.91,4.7.23.3,2.05.2,2.5.18.07,0,.29-.24.3-.24.83-.03,2.37.19,2.99.12.09-.01.17-.24.18-.24,1.17-.39.48-1.83.98-2.5.18-.24,1.65-.39,1.77-1.04l1.22,3.66,5.85-.24c.74-1.1.77-1.87,1.65-2.93.47.42.8.3.73-.37.03,0,.32-.3.61-.06.25.2,1.24,3.2,1.77,3.35l4.63-.49c.44-.21.31-2.5.55-2.99.12-.25.83-.49.91-1.16.46-.08.25,3.12,2.44,3.17.09,0,1.75-.32,1.83-.37.54-.33.4-2.64,1.1-2.8.05-.01,1,.15,1.04.18.14.13.18,1.27.43,1.4.15.08,1.47-.21,1.52-.3.23-.43-.58-4.54-.49-5.37l-.24-.12c-.07.01-.88.87-.98.91-.69.32-6.38,1.2-6.59.91.07-.18.34-.67.37-.79,2.49-.09,5.18-.54,7.07-2.26,0-.18,0-.37,0-.55.08-1.75-.55-4.17-.61-5.98.44-.39.8-.61.85-1.1h.12c.55,5.03.63,10.15,1.22,15.18-1.2.76-3.11,1.32-3.48-.55.14,2.64-4.68,3.42-5.73,1.1l-.85,2.2c-1.58-.47-5.07,1.18-6.16.18-.56-.51-.83-1.94-1.77-2.26-.31.06-.49,2.41-1.46,2.8-.41.17-6.5.6-6.83.49-.49-.17-.9-2.52-1.34-2.93-.37.8-.38,2.33-1.34,2.68-.31.11-6.24.55-6.59.49-1.56-.26-1.37-2.85-1.83-2.8-.49.54-1.32,2.42-1.95,2.68-.48.2-4.73.37-5.24.24s-.95-.89-1.04-1.4c-.45-2.6.33-6.5-.24-9.27-9.33-.77-18,3.51-26.89,5.55-.96.56-.26,2.65-.3,3.6-.17.38-5.83,1.43-6.65,1.52s-3.27.41-3.9.24c-.68-.18-1.05-1.99-1.83-2.32-.41.64-.85,2.9-1.46,3.17-1.06.47-4.92-.04-6.34.49-1.34-.22-1.51-3.18-1.83-3.17-1.04,1.12-.9,2.2-1.34,3.54-1.03-.34-7.7.09-8.05-.12-.28-.17-.2-2.59-.49-2.68-1.44.31-1.09,2.27-2.56,2.56-.34.07-5.69-.27-5.98-.37-1.27-.43-.55-2.36-1.59-2.56-1.45-.28-1.56,1.86-2.56,2.07-.51.11-5.68-.85-5.85-1.1-.3-.43.38-2.12-.73-2.32-1.2-.22-1.95,1.48-2.44,1.59-.44.1-4.28-.81-4.63-1.1-1.07-.86.39-2.16-.73-2.56-2.14-.77-1.38,1.45-3.66,1.22-.53-.05-5.43-2.1-5.55-2.38-.24-.6.55-1.52.18-1.89-.56-.56-2.27.38-3.29.24-.52-.07-4.22-2.32-4.33-2.62-.04-.1-.02-.69,0-.85.05-.55,1.99-6.59,2.32-7.44.28-.74.27-.92.85-1.4l.37.12Z" fill="#211e1f"/>
        <path d="M146.73,58.69c-3.81,2.64-9.54,3.55-14.15,4.27-.11-.29-.29-.13-.37-.49-.1-.46-.03-2.34,0-2.93,0-.08,0-.16,0-.24h.49s.33-.01.37.18c.06.3-.06.75,0,1.04.13.61.19,1.22.3,1.83,3.31-.96,7.45-1.28,10.61-2.56.94-.38,1.97-.77,2.2-1.83.3.19.38.49.55.73Z" fill="#b2b8c1"/>
        <path d="M131.12,74.66c-.21-.03.02-.39-.55-.12-.43.2-.17.47-.18.49-.88,1.06-.91,1.82-1.65,2.93l-5.85.24-1.22-3.66c-.12.65-1.59.8-1.77,1.04-.5.67.2,2.11-.98,2.5l.79-5.24,10.98.12,1.1,1.34c.44-.73-.52-1.38.37-1.71,2.86-1.07,12.27-.57,14.27-2.07.4-.3.36-.5-.18-.49.1-.05.91-.9.98-.91l.24.12c-.09.82.72,4.93.49,5.37-.05.09-1.37.39-1.52.3-.24-.13-.29-1.27-.43-1.4-.04-.04-.99-.2-1.04-.18-.7.17-.56,2.48-1.1,2.8-.08.05-1.74.37-1.83.37-2.19-.05-1.98-3.25-2.44-3.17-.08.67-.79.91-.91,1.16-.24.48-.11,2.78-.55,2.99l-4.63.49c-.53-.16-1.52-3.15-1.77-3.35-.29-.24-.58.07-.61.06Z" fill="#9a9b9f"/>
        <path d="M125.27,69.79c.13.09.35.49.37.61.03.21-.11,1.07-.06,1.1.22.11,4.06.2,4.39.12s.61-.6.85-.73c.18-.1.39.18.49.12.19-.13,1.48-1.89,1.59-1.83l-.49,2.32c.31.16,6.66-.18,6.95-.37.16-.1.13-.74.18-.85.12-.27.18-.59.24-.73.05-.11.27-.3.3-.49.1.05.07.38.06.49,0,.05-.1.48-.12.61-.02.12-.3.61-.37.79.21.29,5.9-.6,6.59-.91.54-.02.58.19.18.49-2,1.5-11.41,1.01-14.27,2.07-.88.33.07.98-.37,1.71l-1.1-1.34-10.98-.12-.79,5.24s-.09.23-.18.24c-.62.07-2.16-.15-2.99-.12.17-2.22-1.25-2.72-2.56-4.09-.29-.31-1.07-1.71-1.16-1.77-.28-.19-5.7-1.75-6.46-1.95-.6-.16-1.27-.23-1.89-.24,0-.17-.25-.73-.12-1.04,6.69-.12,13.39,1.42,20.06,2.13l1.34-1.95-.12,1.95c.08-.45.38-1.03.43-1.46Z" fill="#6a6562"/>
        <path d="M63.8,72.47v.24c-.39.15-5.94,5.03-6.34,5.55-.32.42-.81,1.22-.85,1.77-.38.02-.92.33-1.22-.06l-.79-3.35c-.35.55-1.24.24-1.59.37-.43.16-.83,2.27-1.04,2.8-1.01.23-2.52.23-3.66.24-1.01.01-2.03.12-3.05.06.16-1.26-.19-2.49-.24-3.72-.04-.91.16-1.79,0-2.68,6.42-.02,12.43-.44,18.78-1.22Z" fill="#d1cdcc"/>
        <path d="M115.75,78.2s-.24.24-.3.24c-.45.02-2.27.11-2.5-.18-.28-.37-.62-4.68-.91-4.7-.54.31-.16,1.38-.3,1.65-.09.17-1.15.13-1.46.49-.28.33-.74,2.65-1.4,2.87-.24.08-4.56.02-4.76-.12-.28-2.75-.48-5.52-.43-8.29.62.01,1.29.09,1.89.24.76.2,6.19,1.76,6.46,1.95.09.06.87,1.46,1.16,1.77,1.31,1.37,2.73,1.87,2.56,4.09Z" fill="#9a9b9f"/>
        <path d="M64.41,75.4c-.01.06-.62,1.06-.67,1.1-.33.24-.87-.04-1.28.43-.33.38-.66,2.83-1.04,2.99-1.65-.26-3.21.03-4.82.12.04-.55.53-1.35.85-1.77.4-.52,5.95-5.4,6.34-5.55.15-.06.63-.21.73-.06-.24.8.04,2.05-.12,2.74Z" fill="#9a9b9f"/>
        <path d="M14.17,66.13s0,.7,0,.73c-1.53-.9-3.26-1.34-4.82-2.2-2.16-1.19-3.95-2.98-6.04-4.27.06-.08.18-.2.24-.24.26-.19.71-.32,1.04-.37.11.16-.25.24-.18.43.22.6,2.81,2.56,3.48,2.99,1.94,1.25,4.14,2.11,6.28,2.93Z" fill="#b2b8c1"/>
        <path d="M140.02,70.15c.03-.13.12-.56.12-.61,2.48-.07,4.85-.92,6.95-2.2,0,.18,0,.37,0,.55-1.89,1.71-4.59,2.16-7.07,2.26Z" fill="#6a6562"/>
        <path d="M48.31,80.03c1.13-.02,2.65-.01,3.66-.24-.08.2.09.53-.3.73-.95-.35-2.77.3-3.35-.49Z" fill="#80431d"/>
        <path d="M131.12,74.66c.07.66-.26.79-.73.37.02-.02-.24-.29.18-.49.57-.27.34.09.55.12Z" fill="#80431d"/>
        <path d="M129.66,62.84c.02.08.23.37.12.61-11.69,1.28-23.45-1.77-35.06.61v1.22c-.35-.98-.61-1.39-1.65-.73-.02-.24.01-.65,0-.73,12.04-3.31,24.46.8,36.59-.98Z" fill="#b2b8c1"/>
        <path d="M129.9,59.79c-.07.34.12.46.12.49.02.29.39,2.11.49,2.26.23.37,1.26-.21,1.71-.06.08.36.26.2.37.49-.92.14-1.88.39-2.8.49.11-.24-.11-.53-.12-.61-.12-.61-.16-1.36-.37-1.95-.08-.22-.1-.58-.12-.61-.06-.08-.05-.07-.12-.12-.07-.97.23-.7.85-.37Z" fill="#80431d"/>
        <path d="M92.58,62.23l.12.12c-.07.49.3,1.04.37,1.46.01.08-.02.49,0,.73.03.4,0,.82,0,1.22,0,.73.06,1.47-.06,2.2-.19-.61-.41-1.34-.55-1.95-.1-.43-.16-1-.24-1.46-.03-.17-.09-.31-.12-.49-.09-.53,0-1.17-.24-1.71l.73-.12Z" fill="#80431d"/>
        <path d="M14.78,64.91c-.22.34-.09.73-.12,1.1-.02.25-.07.6-.12.85-.04.18-.07.34-.18.49-.09-.16-.16-.3-.18-.49,0-.04,0-.7,0-.73.02-.2.41-1,.37-1.34.03.01.15-.69.24.12Z" fill="#80431d"/>
        <g>
          <path d="M147.34,60.27c-.05.49-.41.71-.85,1.1-2.63,2.31-15.76,3.94-19.63,4.15-.1,0-.13-.13-.37-.12-7.27.34-13.7-.64-20.79-.85-4.32-.13-8.41.37-12.62,1.22,0-.4.03-.82,0-1.22,1.04-.66,1.29-.25,1.65.73v-1.22c11.62-2.38,23.37.67,35.06-.61.93-.1,1.89-.34,2.8-.49,4.6-.72,10.33-1.62,14.15-4.27.32.46.67,1.01.61,1.59Z" fill="#2a3d66"/>
          <path d="M124.6,64.54c.16-.04.51-.02.67.06l-1.16.55c-.2-.24.39-.59.49-.61Z" fill="#80431d"/>
          <path d="M134.96,63.45l.79.18c-.21.4-1.2.39-.79-.18Z" fill="#80431d"/>
          <path d="M133.01,64.18c.12-.02.25.01.37,0,.21.11-.85.69-1.04.43-.02-.03.63-.42.67-.43Z" fill="#80431d"/>
          <path d="M129.35,64.42c.16-.02.21.09.3.18l-.55.3c-.19-.14.21-.48.24-.49Z" fill="#80431d"/>
        </g>
        <path d="M133.32,70.27s-.21.06-.12.3c.2.38,5.5-.32,6.34-.3-.05.11-.03.75-.18.85-.29.19-6.64.53-6.95.37l.49-2.32c-.1-.06-1.39,1.7-1.59,1.83-.09.06-.3-.22-.49-.12-.24.13-.52.65-.85.73s-4.17,0-4.39-.12c-.05-.02.09-.89.06-1.1,1.47-.28,4.65.37,5.91,0,.32-.09,1.48-1.8,1.71-2.2.36,0,.05,1.81.06,2.07Z" fill="#211e1f"/>
        <path d="M139.78,69.54c-.07.14-.12.46-.24.73-.84-.02-6.15.69-6.34.3-.09-.25.12-.29.12-.3l6.46-.73Z" fill="#6a6562"/>
        <g>
          <path d="M147.1,67.35c-2.11,1.28-4.47,2.13-6.95,2.2,0-.11.04-.44-.06-.49-.03.19-.26.38-.3.49l-6.46.73c-.02-.26.3-2.08-.06-2.07-.23.39-1.38,2.1-1.71,2.2-1.26.37-4.44-.28-5.91,0-.02-.12-.24-.52-.37-.61.05-.45.02-1.01-.06-1.46-.27.36-.92,2.03-1.22,2.2-1.1.61-16.52-1.87-19.15-2.07-5.31-.41-10.02.16-15.18,1.34-.02-.55-.43-1.21-.49-1.77l-.67-.91c.3.72.74,1.62.91,2.38.04.16-.17.2-.12.43l-14.57,3.9c-.37.25.2,3.23.18,3.84-2.82.71-5.76,1.43-8.72,1.52l-1.77-3.78c.16-.69-.12-1.95.12-2.74-.1-.15-.59,0-.73.06v-.24c1.91-.23,3.84-.41,5.73-.73l.79,1.34-.43-1.34c5.56-.98,11.45-2.84,16.95-4.27.44.3,1.39.14,1.46-.49,1.37-.35,2.78-.6,4.15-.98.14.62.36,1.34.55,1.95.12-.72.05-1.47.06-2.2,4.22-.85,8.3-1.35,12.62-1.22,7.09.21,13.52,1.19,20.79.85l1.04,2.2-.67-2.07c3.87-.21,17-1.83,19.63-4.15.06,1.81.69,4.23.61,5.98Z" fill="#b2b0af"/>
          <path d="M89.66,69.79s-.08.66-.18.73c-.02-.21-.15-.46-.18-.61-.04-.22.16-.27.12-.43-.18-.75-.61-1.66-.91-2.38l.67.91c.05.56.47,1.22.49,1.77Z" fill="#80431d"/>
          <path d="M126.85,65.52l.67,2.07-1.04-2.2c.24-.01.27.13.37.12Z" fill="#80431d"/>
          <path d="M69.9,71.74l.43,1.34-.79-1.34c.24-.04.32,0,.37,0Z" fill="#80431d"/>
          <path d="M124.35,66.13c.11-.03.71-.09.67.18l-.91.06c-.13-.06.23-.24.24-.24Z" fill="#d1cdcc"/>
        </g>
        <g>
          <path d="M3.43,62.59c.09,1.13,1.32,1.71,2.32,1.95.52.36,1.12.74,1.71.98-.31.62-.43,1.45-.79,2.07.3-.15.53-.72.73-.85.1-.06.35.26.43.06.09-.23-.32-.13-.24-.37.09-.27.56-.62.61-.79.48.65,2.3,1.59,3.11,1.83.29.09.47-.26.49-.24.13.09.02.4.06.43,1.09.73,3.48,1.11,4.76,1.65.15.06.58.4.85.43-1.13.23-1.65,1.69-1.89,2.74.83-2.65,3.75-.7,5.37,0,.47.2,2.17.55,2.44.85s.44,1.87.73,2.32v-1.71l6.95,2.32c-.55-.45-4.76-1.53-4.94-1.89-.07-.15.05-.75,0-.98.33-.69,4.07,1.08,4.57,1.65-.07-.75-.45-1.41-.3-2.2,4.83.84,9.74.87,14.63.85.16.89-.04,1.78,0,2.68-.84-.28-.71.63-.91.73-.26.13-1.05-.15-1.46.12-.38.25-1.19,3.04-1.83,3.17l-5.24-.37c-.74-.58.22-1.89-.61-2.32-.18-.09-2.36-.31-2.56-.24-.31.1-.97,1.95-1.46,2.07-.24.06-4.69-.57-4.88-.73-.24-.21-.12-1.73-.3-2.01-.2-.32-2.74-.72-2.99-.55-.07.05-.12,1.27-.73,1.46-.96.31-3.24-1.03-4.27-.73-.53-.19.31-2.06.18-2.38-.09-.24-2.73-.89-2.99-.79-.16.06-.71,1.74-1.46,1.83-.28.03-5.06-1.76-5.18-2.01-.19-.37.72-1.95.3-2.38-.12-.13-2-.79-2.2-.73-.62.19-.61,1.32-2.56.85-.42-.1-3.33-2.03-3.35-2.26,1.4-2.17,1.53-4.77,2.32-7.13.28,0,.44.43.61.61Z" fill="#9a9b9f"/>
          <path d="M8.19,65.64c-.05.17-.52.52-.61.79-.08.24.33.14.24.37-.08.2-.33-.13-.43-.06-.2.13-.43.7-.73.85.36-.62.48-1.46.79-2.07.19-.37.54-.69.67-1.1.16.19.1,1.07.06,1.22Z" fill="#80431d"/>
          <path d="M2.76,64.18c.36.95,1.43,2.07,1.34,3.05-.63-.91-1.36-1.9-1.34-3.05Z" fill="#d1cdcc"/>
        </g>
        <path d="M53.8,71.01l-.37.61c-5.69.31-11.61-.13-17.07.24-.15.01-.11-.12-.12-.12-7.43-.71-14.62-2.65-21.71-4.88.06-.25.1-.6.12-.85-.04.32.32.41.55.49,13.3,4.67,24.59,5.31,38.6,4.51Z" fill="#b2b8c1"/>
        <path d="M92.1,64.05c.03.18.09.31.12.49-6.48,1.48-12.88,3.55-19.39,4.88-.03-.3.09-.55.12-.85l19.15-4.51Z" fill="#b2b8c1"/>
        <path d="M21.12,70.88c.21.12.47.57.73-.12,1.32.27,2.67,1.03,4.09.85l3.84,1.22c-.51,1.39-1.05.31-1.52.24s-1.91.16-2.13-.3c-.11-.23.23-.61-.06-.79-.9-.58-.97.44-1.1.49-.1.04-1.98-.43-2.07-.49-.1-.07-.01-.59-.24-.61-.14,0-.14.45-.49.49-.2.02-3.37-1.3-3.35-1.95.93.41,1.35.43,2.32.98Z" fill="#b2b0af"/>
        <path d="M63.68,70.15c-.04.42-.27.27.18.37.85.19,2.55-.51,3.35-.12-4.57.67-9.17.97-13.78,1.22l.37-.61c3.29-.19,6.6-.47,9.88-.85Z" fill="#d1cdcc"/>
        <path d="M71.97,69.54c-1.59.31-3.15.62-4.76.85-.81-.39-2.5.31-3.35.12-.45-.1-.22.05-.18-.37,1.85-.21,6.95-.61,8.41-1.34l-.12.73Z" fill="#b2b8c1"/>
        <g>
          <path d="M14.17,66.86c.02.19.09.33.18.49.11-.15.14-.31.18-.49,7.09,2.23,14.28,4.17,21.71,4.88-.23.03-1.12-.11-.73.43.27.36,1.46-.09.85-.3,5.46-.37,11.38.07,17.07-.24,4.61-.25,9.21-.55,13.78-1.22,1.6-.23,3.17-.54,4.76-.85.25-.05.55-.06.85-.12,6.51-1.33,12.91-3.4,19.39-4.88.09.47.15,1.03.24,1.46-1.37.37-2.78.62-4.15.98-.49.13-.98.36-1.46.49-5.5,1.43-11.4,3.29-16.95,4.27-.04,0-.12-.04-.37,0-1.89.32-3.82.5-5.73.73-6.35.78-12.36,1.2-18.78,1.22-4.9.01-9.81-.01-14.63-.85.11-.61.98-1.62-.18-.37-.64-.87-.31.04-.43.37l-3.84-1.22c-1.42.18-2.76-.58-4.09-.85-.26-.06-.86-.2-.73.12-.97-.54-1.39-.57-2.32-.98-.86-.38-1.27-.44-1.77-1.34l-.43.73c-1.28-.53-3.67-.92-4.76-1.65-.04-.03.07-.34-.06-.43-.02-.02-.19.33-.49.24-.81-.24-2.63-1.18-3.11-1.83.04-.15.1-1.03-.06-1.22-.13.41-.48.73-.67,1.1-.59-.23-1.19-.62-1.71-.98-.81-.56-1.64-1.22-2.32-1.95-.17-.18-.33-.6-.61-.61.04-.12.11-.23.24-.24.09.12.56.31.61.18l-.61-.3c-.16-.38-.01-.88.24-1.22,2.09,1.29,3.88,3.08,6.04,4.27,1.55.86,3.29,1.3,4.82,2.2Z" fill="#2a3d66"/>
          <g>
            <path d="M3.07,61.74s.02-.08,0-.12l.61.3c-.05.13-.52-.07-.61-.18Z" fill="#d1cdcc"/>
            <path d="M86.85,67.47c.48-.13.97-.36,1.46-.49-.08.63-1.02.78-1.46.49Z" fill="#80431d"/>
            <path d="M5.75,64.54c-1-.24-2.22-.82-2.32-1.95.67.73,1.5,1.39,2.32,1.95Z" fill="#d1cdcc"/>
            <path d="M14.72,67.59c.19-.04,1.71.04,1.52.43-.65.57-3.14-.08-1.52-.43Z" fill="#80431d"/>
            <path d="M26.67,70.88c.22,0,.99-.1.91.3-.46.32-.84.51-1.22,0l.3-.3Z" fill="#80431d"/>
            <path d="M39.59,72.35c.21.03,1.55-.15,1.4.3-.1.32-1.35.18-1.4-.3Z" fill="#80431d"/>
            <path d="M36.24,71.74s-.03.13.12.12c.61.22-.59.67-.85.3-.39-.53.5-.4.73-.43Z" fill="#80431d"/>
            <path d="M73.98,69.42c1.25.02-.57,1.1-.67.43-.02-.11.61-.43.67-.43Z" fill="#80431d"/>
            <path d="M64.23,71.62c.43.37-.59.87-.67.43-.03-.16.57-.33.67-.43Z" fill="#e5e8ef"/>
            <path d="M21.85,70.76c-.26.69-.52.24-.73.12-.12-.33.47-.18.73-.12Z" fill="#ece4de"/>
            <path d="M36.42,72.71c.12-.04.53-.02.67.06l-.67.3c-.2-.11-.2-.3,0-.37Z" fill="#80431d"/>
            <path d="M72.22,70.4l-.61.49c-.41-.23.1-.94.61-.49Z" fill="#2a3d66"/>
            <path d="M72.22,70.4c.29.25-.46.57-.61.49l.61-.49Z" fill="#e5e8ef"/>
            <path d="M31.79,71.74c.28.18.69,0,.91.3-.08.1-1.09.03-.91-.3Z" fill="#9ca6b6"/>
            <path d="M65.45,71.37c.34.52-.63.6-.67.43l.67-.43Z" fill="#9ca6b6"/>
            <path d="M33.25,72.47c.42-.05.56.46,0,.37-.2-.03-.18-.34,0-.37Z" fill="#80431d"/>
            <path d="M67.28,70.88c.11-.04.48-.06.43.18l-.55.06c-.12-.06.08-.23.12-.24Z" fill="#c7c9d4"/>
            <path d="M27.89,71.62c.5-.12.85.24.24.24-.02,0-.37-.18-.24-.24Z" fill="#b2b8c1"/>
            <path d="M68.74,71.25c.25.11-.25.47-.43.3.06-.07.4-.31.43-.3Z" fill="#9ca6b6"/>
            <path d="M6.79,64.54c.42-.22.55.3.12.24-.03,0-.24-.18-.12-.24Z" fill="#959cba"/>
            <path d="M13.98,67.1c.09.09.1.43,0,.49-.06.04-.33-.34,0-.49Z" fill="#a7b6d4"/>
          </g>
        </g>
        <g>
          <path d="M18.8,69.91c-.01.65,3.16,1.97,3.35,1.95.35-.04.35-.5.49-.49.23.02.14.54.24.61.09.06,1.97.52,2.07.49.13-.05.2-1.06,1.1-.49.29.19-.05.56.06.79.22.46,1.67.24,2.13.3s1.01,1.15,1.52-.24c.12-.33-.22-1.24.43-.37,1.16-1.25.29-.25.18.37-.14.78.23,1.44.3,2.2-.51-.57-4.25-2.33-4.57-1.65.05.23-.07.83,0,.98.18.36,4.39,1.44,4.94,1.89l-6.95-2.32v1.71c-.29-.45-.47-2.02-.73-2.32s-1.97-.65-2.44-.85c-1.62-.7-4.54-2.65-5.37,0,.24-1.05.76-2.52,1.89-2.74-.28-.03-.7-.36-.85-.43l.43-.73c.5.9.9.96,1.77,1.34Z" fill="#80431d"/>
          <path d="M22.89,72.23c.11-.02,1.99.42,2.07.49s.1.49.06.55c-.06.1-2.17-.71-2.26-.79-.1-.09.09-.24.12-.24Z" fill="#9a9b9f"/>
        </g>
      </g>
    </g>
  </g>
</svg>