<?xml version="1.0" encoding="UTF-8"?>
<svg id="Ebene_2" data-name="Ebene 2" xmlns="http://www.w3.org/2000/svg" viewBox="0 0 156.94 65.03">
  <g id="Ebene_16" data-name="Ebene 16">
    <g id="muell2">
      <g>
        <path d="M138.55,45.4c.41,1.96,1.56,4.44,2.15,6.42,8.41.09,12.64-3.22,4.43-9.1.25-.35.48-.75.73-1.1,1.11.23,6.98,3.29,7.63,3.02,1-.42-1.13-1.77-1.15-2.38.71.41,1,.84,1.92.65.79.77,1.64,1.54,2.48,2.25.03.13.01.28.04.41l-.1,2.29c-.31-2.07-.06-2.81-2.43-2.78,2.18,3.8-1.93,5.63-4.86,6.76-1.55.6-9.33,2.27-9.73,3.28-.08.21.16,1,.12,1.33l-.21.02-1.93-5.2c-.07-1.51.48-4.36.9-5.88Z" fill="#6fafbb"/>
        <path d="M137.35,1.24c2.87.62,11.56,2.15,13.65,3.29,2.18,1.18,2.58,3.04,2.24,5.17l-3.58,4.88c-.16.02-2.21-1.81-2.57-2.04.32-1.1,2.21-5.43,1.9-6.28-.47-1.28-10.48-2.74-11.64-5.03Z" fill="#56929c"/>
        <path d="M89.64,44.56l18.02,11.37c-.23.67-1.02,2.22-.98,2.78l-15-9.99-2.04-4.16Z" fill="#6fafbb"/>
        <path d="M111.82,2.57c.46.06,1.24,1.18,1.88,1.27,1.6.24,13.37-1.19,15.04-1.81l-2.41,1.88c-3.44,1.49-6.54,4.39-10.5,3.87-.23-.56-.3-1.16-.57-1.71-.35-.03-.14.98-.1,1.15-1.3-1.4-2.86-2.71-3.33-4.66Z" fill="#348893"/>
        <path d="M156.78,45.58c1.79,8.73-11.49,8.21-16.99,10.89.04-.33-.21-1.12-.12-1.33.4-1.01,8.18-2.69,9.73-3.28,2.93-1.13,7.03-2.96,4.86-6.76,2.37-.04,2.12.7,2.43,2.78l.1-2.29Z" fill="#6fafbb"/>
        <path d="M121.7,53.38c1.15-.39,1.49,1.44,2.1,1.46.38.01.71-1.02,2.18-1.03,1.2-.01,4.25,1.64,4.5,1.65.17,0,1.1-1.22,1.76.04-.32.68-.49,1.48-.84,2.15-.37-.2-1.16-1.05-1.65-1.09-1.51-.11-4.63,1.37-6.28,1.41-.31,0-3.16-.57-3.69-.69.41-1.39,1.28-2.61,1.91-3.9Z" fill="#6fafbb"/>
        <path d="M136.29.92l-1.2,11.59c-.4,1.05-.47.23-1.22.22-.41-1.86-.8-3.71-1.14-5.58l1.43,4.21c-.54-2.24.39-6.68-.39-8.65-.1-.24-1.5-1.11-1.79-1.49-.35-.45.07-.8-.51-1.09,1.02-.39.82.24,1.37.29,1.41.12,2.08.22,3.46.51Z" fill="#56929c"/>
        <path d="M111.82,2.57c.47,1.95,2.02,3.25,3.33,4.66.21.96,1.04,2.9,1.41,4.01-.6.39-.73-.03-1.04-.11-.01-3.8-4.05-4.15-6.71-5.38-.18-.09-1.16-.22-1.27-.3-.26-.17-1.02-1.39-1.2-1.75.84-.24,4.91-1.2,5.48-1.13Z" fill="#6fafbb"/>
        <path d="M106.34,3.7c.18.36.94,1.59,1.2,1.75-7.29.67-12.94,6.39-19.42,9.25,5.44-4.06,11.59-9.1,18.22-11Z" fill="#56929c"/>
        <path d="M132.25,55.51c.43-.92,1.09-2.12,1.58-3.04.07-.13.68-.77.74-.9,1.28.84,2.41-.93,2.82,1.39-.07.85-.04,1.64-.18,2.5-1.83.02-3.9,1.4-4.9,2.94-.45-.11-.7-.64-.9-.74.35-.67.52-1.47.84-2.15Z" fill="#badbdb"/>
        <path d="M133.87,12.73c.75,0,.82.83,1.22-.22l1.2-11.59c.27.06.62.35.65.35l-1.4,16.17c-1.51-1.13-1.34-3.18-1.68-4.71Z" fill="#1a6565"/>
        <path d="M108.09,56.09l3.25,1.56c0,.07.01.14.02.21.07.61.54,1.54-.07,1.46-.72.13-4.12.47-4.55,0l1.36-3.23Z" fill="#56929c"/>
        <path d="M117.02,51.95l2.51,4.73s.04.06-.19.22c-.75.53-1.99.98-2.29-.2-.17-.67,0-3.75-.03-4.76Z" fill="#6fafbb"/>
        <path d="M137.21,55.46c.14-.86.11-1.65.18-2.5.02-.28.07-.91.32-1.06.13,1.65,1.17,4.08,1.17,5.89-.72.54-1.67-.16-2.5-.18.91-.89.65-1.05.84-2.15Z" fill="#6fafbb"/>
        <path d="M137.21,55.46c-.19,1.1.08,1.26-.84,2.15-1.82-.06-2.78,1.11-4.06.79,1.01-1.54,3.07-2.92,4.9-2.94Z" fill="#93c7cc"/>
        <path d="M137.65,51.28l1.93,5.2c-.47.41-.13.87-.71,1.31,0-1.81-1.04-4.24-1.17-5.89-.02-.2-.05-.41-.06-.62Z" fill="#154e45"/>
        <path d="M108.8,5.74c2.66,1.23,6.69,1.58,6.71,5.38-1.96-.47-3.32-.16-4.86,1.17,2.68,1.63,5.9,2.63,7.45,5.62l-8.04-5.26c-.12-1.11-.26-2.27-.52-3.37-.24-1.03-1.9-3.03-.74-3.55Z" fill="#6fafbb"/>
        <path d="M132.95,18.4c-1.5.06-2.85-.39-4.13-1.07l-11.81-8.01c5.84,1.43,11.14,5.61,15.95,9.07Z" fill="#6fafbb"/>
        <path d="M110.37,49.46c.28-1.49.31-3.08.4-4.59.62.92-.06,3.19.17,4.02.08.31,2.33,3.03,2.85,1.7-.92,2.82-.68,2.44-.55,5.22.07,1.56.16,2.23-1.88,2.04,0-.07-.01-.14-.02-.21-.33-2.71-.72-5.45-.97-8.19Z" fill="#badbdb"/>
        <path d="M122.58,51.64c2.37,1.37,5.34,1.28,7.99,1.33l.32,1.21c1.17-.38.71-1.55,2.1-1.85.36-.08.53-.02.84.13-.49.93-1.15,2.12-1.58,3.04-.67-1.27-1.6-.04-1.76-.04-.25-.01-3.3-1.66-4.5-1.65-1.47.01-1.8,1.04-2.18,1.03-.61-.02-.95-1.85-2.1-1.46.28-.57.6-1.17.87-1.74Z" fill="#6fafbb"/>
        <path d="M137.93,43.18c.02-.09-.8-1.2.72-1.2-.43,1.15-.33,2.28-.1,3.42-.42,1.51-.97,4.37-.9,5.88,0,.2.04.41.06.62-.24.15-.29.79-.32,1.06-.41-2.33-1.53-.55-2.82-1.39,1.61-3.16,2.42-4.92,3.36-8.38Z" fill="#d9eaeb"/>
        <path d="M119.53,56.68l-2.51-4.73c0-.07-.02-.14-.02-.21.89-1.62,3.54-.15,4.8.49.06.24-2,4.18-2.28,4.45Z" fill="#56929c"/>
        <g>
          <path d="M111.36,57.86c2.04.2,1.95-.48,1.88-2.04,1.44-3.4,2.82-7.11,2.83-10.81-.3,1.8-1.77,4.06-2.28,5.59-.52,1.32-2.77-1.4-2.85-1.7-.22-.83.45-3.1-.17-4.02.56-9.44-.02-21.28-.78-30.76-.04-.48.09-1.31.07-1.46l8.04,5.26c-1.56-2.99-4.78-3.99-7.45-5.62,1.54-1.34,2.9-1.64,4.86-1.17.31.08.44.5,1.04.11.64,1.91,1.02,4.25,2.59,5.66-1.27-2.45-1.87-5.13-2.78-7.71.43-.47.6.14.63.15l11.81,8.01c1.28.67,2.64,1.13,4.13,1.07,1.93,5.22,4.95,9.93,6.79,15.2.83,2.38,2.29,10.04,3.13,11.4.07.11-.08.51.35.38.55-.96,1.28-1.78,1.93-2.66,8.21,5.88,3.98,9.2-4.43,9.1-.59-1.98-1.74-4.46-2.15-6.42-.24-1.14-.33-2.28.1-3.42-1.51,0-.69,1.11-.72,1.2l-4.95,9.15c-1.39.3-.93,1.47-2.1,1.85-.21-4.71,1.65-10.63,1.49-15.14-.11-3.09-1.47-6.78-1.34-10.01-.55-.26-.35.15-.37.45-.64,7.35,1.02,16.02-.1,23.49-2.64-.04-5.61.04-7.99-1.33,1.46-3.05,2.93-6.25,3.98-9.47l-4.31,9.3c-2.41-.96-4.97-1.13-5.16-4.28-.36,1.37-.11,3.13-.09,4.56,0,.07.02.14.02.21.02,1.01-.14,4.09.03,4.76-2.24-.14-4,2.27-5.76,2.6.61.09.14-.84.07-1.46Z" fill="#badbdb"/>
          <g>
            <path d="M122.58,51.64c-.27.57-.59,1.17-.87,1.74-.63,1.29-1.5,2.51-1.91,3.9-.2-.05-.4-.15-.45-.37.23-.16.18-.21.19-.22.28-.27,2.34-4.21,2.28-4.45-1.26-.64-3.92-2.11-4.8-.49-.02-1.43-.26-3.2.09-4.56.19,3.16,2.74,3.32,5.16,4.28l4.31-9.3c-1.05,3.23-2.52,6.42-3.98,9.47Z" fill="#1a6565"/>
            <path d="M130.56,52.97c1.12-7.48-.54-16.15.1-23.49.03-.3-.18-.71.37-.45-.12,3.24,1.23,6.93,1.34,10.01.16,4.51-1.7,10.43-1.49,15.14l-.32-1.21Z" fill="#277378"/>
            <path d="M137.93,43.18c-.94,3.46-1.75,5.22-3.36,8.38-.06.12-.68.77-.74.9-.31-.15-.48-.21-.84-.13l4.95-9.15Z" fill="#badbdb"/>
            <path d="M113.79,50.6c.5-1.54,1.97-3.8,2.28-5.59,0,3.7-1.38,7.42-2.83,10.81-.13-2.78-.37-2.4.55-5.22Z" fill="#9bb5b4"/>
            <path d="M129.21,18.34c-1.07-.34-6.99-2.31-7.55-2.2-.69.13-.31,1.22-.95.92-.2-.09-1.51-3.43-2.11-3.84,3.15,2.83,7.22,2.74,10.61,5.12Z" fill="#9bb5b4"/>
            <path d="M115.15,7.22c-.04-.17-.25-1.17.1-1.15.27.54.34,1.15.57,1.71.19.47.37.92.54,1.4.92,2.58,1.51,5.26,2.78,7.71-1.57-1.41-1.96-3.75-2.59-5.66-.37-1.11-1.19-3.05-1.41-4.01Z" fill="#154e45"/>
            <path d="M129.21,18.34s.5-.06.64.25c-.32.41-.61-.24-.64-.25Z" fill="#9bb5b4"/>
          </g>
        </g>
        <g>
          <path d="M60.67,11.03c3.82-2.14,9.39-2.81,13.49-.63,1.72.91,4.6,4.14,6.12,4.61-.04.67.19,1.22.38,1.83-.88,3.6.34,6.53,2.62,9.28.23-.07.16-1.39.17-1.46.67-2.84,2.16-5.36,2.98-8.04.12-.4.25-.56-.09-.92.63-.11,1.19-.74,1.77-.99,6.48-2.86,12.13-8.58,19.42-9.25.11.07,1.09.21,1.27.3-1.15.52.5,2.52.74,3.55.26,1.1.4,2.25.52,3.37.01.14-.11.97-.07,1.46l-.21.02c-.05-.44.06-.93-.42-1.2-3.1,2.38-5.52,5.42-8.02,8.4-.29-1.95,1.48-4.36,1.71-6.06s-.1-5.13-.24-7.01l-2.04,13.74c-2.69,3.18-5.97,9.9-10.77,9.9-4.09,0-8.18-7.56-12.26-8.38-1.43-4.49-3.81-8.73-5.46-13.15,1.33,4.18,2.37,8.53,3.76,12.69l-12.42-.09c-.88-4.01-1.75-8.01-2.97-11.93Z" fill="#6fafbb"/>
          <path d="M101.35,21.33c-.19.22-.37.45-.56.67l2.04-13.74c.14,1.88.48,5.25.24,7.01s-2,4.11-1.71,6.06Z" fill="#277378"/>
          <path d="M91.77,29.56l.89-11.57c.8,3.81-.12,7.81-.89,11.57Z" fill="#348893"/>
        </g>
        <path d="M141.01,9.38c1.15.86,8.16,4.94,8.39,5.74-2.06,5.53-2.86,10.83-1.97,16.74.13.87,1.43,3.87,1.43,4.21,0,.47-1.4,1.89-1.65,2.33-3.97-3.75-5.02-10.08-5.15-15.35-.11-4.58,1.68-9.49-1.06-13.66Z" fill="#56929c"/>
        <g>
          <path d="M128.74,2.03c1.49-.56,1.8-1.56,2.72-1.91.58.29.16.64.51,1.09.3.38,1.7,1.24,1.79,1.49.78,1.97-.15,6.42.39,8.65l-1.43-4.21c.34,1.88.73,3.73,1.14,5.58.34,1.53.17,3.58,1.68,4.71l1.4-16.17c.11.02.3-.06.41-.04,1.16,2.28,11.17,3.75,11.64,5.03.31.85-1.59,5.18-1.9,6.28-2.2-1.42-4.48-2.74-6.69-4.14-.56.05.56.94.61.98,2.74,4.17.95,9.08,1.06,13.66.13,5.28,1.18,11.6,5.15,15.35-1.31,2.31-2.62,4.58-4.35,6.61-.83-1.36-2.29-9.02-3.13-11.4-1.84-5.26-4.86-9.98-6.79-15.2-4.81-3.46-10.1-7.64-15.95-9.07-.04,0-.2-.61-.63-.15-.17-.47-.35-.93-.54-1.4,3.96.52,7.06-2.38,10.5-3.87l2.41-1.88Z" fill="#6fafbb"/>
          <path d="M141.34,35.32c-.07-.6-.08-1.12.37-1.59,1.77-.84,1.36,1.47,1.8,2.63s1.46,2.71,1.07,3.73c-.73.33-3.14-4.02-3.24-4.77Z" fill="#93c7cc"/>
          <path d="M134.41,20.85c-.88-2.28.92-2.34.65.35-.23.36-.61-.23-.65-.35Z" fill="#93c7cc"/>
        </g>
        <g>
          <path d="M142.86,45c1.73-2.03,3.04-4.3,4.35-6.61.25-.44,1.64-1.85,1.65-2.33,0-.34-1.29-3.34-1.43-4.21-.9-5.9-.09-11.21,1.97-16.74-.24-.8-7.25-4.88-8.39-5.74-.05-.03-1.17-.93-.61-.98,2.21,1.4,4.5,2.72,6.69,4.14.35.23,2.41,2.05,2.57,2.04l3.58-4.88c-.2,1.26-1.95,5.66-1.68,6.47.09.26,3.11,2.86,3.68,4,2.69,5.37-.73,9.51-3.91,13.6,1.28,3.74,4.46,7.62,5.4,11.4-.85-.72-1.69-1.48-2.48-2.25-1.95-1.9-3.71-3.86-5.22-6.14-.13.01-1.17,1.94-1.35,2.19-.62.88-1.21,1.77-1.82,2.65-.25.35-.47.76-.73,1.1-.64.89-1.38,1.7-1.93,2.66-.43.13-.28-.27-.35-.38Z" fill="#154e45"/>
          <path d="M150.98,32.15c-.7-5.02-.62-10.07.37-15.04.28.7.98.72,1.46,1.21,3.66,3.77,2.27,10.8-1.82,13.83Z" fill="#277378"/>
        </g>
        <path d="M147.68,38.97c1.51,1.16,3,2.33,4.65,3.29.02.61,2.15,1.95,1.15,2.38-.65.27-6.52-2.79-7.63-3.02.61-.88,1.2-1.77,1.82-2.65Z" fill="#6fafbb"/>
        <path d="M154.25,42.91c-.92.19-1.21-.24-1.92-.65-1.65-.96-3.14-2.13-4.65-3.29.18-.26,1.22-2.18,1.35-2.19,1.51,2.27,3.28,4.24,5.22,6.14Z" fill="#56929c"/>
        <path d="M110.37,49.46c.24,2.74.63,5.47.97,8.19l-3.25-1.56c.6-2.14,1.88-4.45,2.28-6.63Z" fill="#56929c"/>
      </g>
      <g>
        <path d="M16.39,33.34c2.71-.78,5.8-.48,8.44-1.61,2.12-.91,5.12-5.44,6.98-7.27,5.96-5.86,12.06-10.41,20.23-12.84,0,4.93.19,9.05-.14,14.08-7.85,2.37-14.33,8.44-18.65,15.28-3.71,5.88-6.03,9.02,1.1,13.04,4.28,2.41,11.21,4.24,16.08,4.92,1.7.24,2.89.31,4.59.4,1.81.1,3.56.29,5.39.12-.74,1.48-1.78,3.03-3.15,4.02-.29.21-1.69.26-2.04,1.43-1.09-1.06-2.82-.77-4.24-1.06-10.61-2.14-19.23-8.16-27.82-14.39l-5.25.28c-.15-5.06-.89-11.33-1.52-16.41Z" fill="#6fafbb"/>
        <path d="M15.82,29.46c1.21.05,4.01.11,5.05-.26.65-.23,7.44-7.52,8.71-8.67,6.6-5.93,13.67-10.95,22.48-13.05-.16.74-.03,3.18-.03,4.14-8.16,2.43-14.27,6.98-20.23,12.84-1.86,1.83-4.86,6.36-6.98,7.27-2.64,1.13-5.72.83-8.44,1.61-.14-1.13-.3-2.15-.51-3.26-.04-.2-.01-.42-.06-.62Z" fill="#56929c"/>
        <path d="M61.63,59.36c2.22-.34,4.55-.52,6.73-1.04.42-.1,1.69-.45,2.22-.62.82-.25,1.58-.75,2.39-1.05,3.04-1.12,6.44-2.71,9.34-4.18.15.71,4.43-2.14,3.74-.97-5.41,3.82-9.89,8.86-15.63,12.21l-6.91.23c-.2,0-.24-.17-.63-.15.06-.26.21-.3.15-.63-.18-.93-1.02-2.75-1.39-3.8Z" fill="#6fafbb"/>
        <path d="M53.39,6.12c4.89-.41,2.74,1.88,4.23,3.23.58.53,1.12-.45,1.3-.43.3.03.8,1.31.95,1.36.55.17,8.32-4.71,10.55-4.5,1.93.19,8.91,7.53,10.68,9.15-.21-.05-.63.13-.82.08-1.52-.47-4.4-3.69-6.12-4.61-4.11-2.18-9.67-1.51-13.49.63l1.02,8.8c-.39-1.16-3.34-9.43-3.79-9.68-.89-.5-3.59,1.03-4.69.75-.19-1.26.24-3.41.18-4.78Z" fill="#56929c"/>
        <path d="M11.84,35.63c-.2-1.91-.12-5.44-.44-6.99l2.67-.25c-.22,2.42.81,6.42,1.04,9.01.28,3.04.38,11.67,1.09,13.97l-2.67.25c-.04-4.46-1.19-11.3-1.69-15.98Z" fill="#17ad9f"/>
        <path d="M82.31,52.48c.8-.4,3.67-1.41,3.94-2.12.38-.97-.11-5.56-.02-6.93.23-.12.73-.74,1.07-.72.24.01,1.02,1.21,1.43.9.08.12.85.64.92.95l2.04,4.16c-.56-.95-4.75.45-4.99.88s.17,1.37.06,1.75c-.28.95-13.19,12.66-14.6,13.25-2.99,1.25-5.69-.53-8.65-.65l6.91-.23c5.74-3.35,10.22-8.39,15.63-12.21.69-1.17-3.58,1.68-3.74.97Z" fill="#6fafbb"/>
        <g>
          <path d="M.54,36.47c1.27.22-.02.72,1.31.71,1.91-.02,7.58-1.18,8.7-1.01.56.08.79,1.29.58,1.81l-9.31,1.17c1.87.44,8.02-1.21,9.34-.76.45.15.54,1.47.36,1.62l-9.29,1.38,9.12-.95c.59.32.29.95.44,1.41.15.6-.51.45-.89.5-2.81.32-5.72.19-8.5.89.05.52,8.7-.89,9.14-.74.48.16.61,1.6.17,1.85-1.34.75-7.35-.03-9.1,1.15l9.46-.67.04,1.55-9.31,1.17c1.84.43,7.84-1.18,9.14-.74.45.15.54,1.47.36,1.62-.44.38-8.31.44-9.53.99l9.57-.58.15,1.64-9.51,1.19c1.88.44,8.01-1.21,9.34-.76.37.12.52,1.07.43,1.3-.34.96-8.54,1.06-9.8,1.43-.29-.21-.64-.36-.89-.64-.73-5.5-1.21-10.97-1.53-16.51Z" fill="#eaab24"/>
          <path d="M.43,28.61l10.08-.62c0,.43.31,1.3-.17,1.57-1.2.67-7.39.18-9.12.95,1.21.71,9.06-.92,9.36-.56.19.22.32,1.5.15,1.64l-9.31,1.17c1.84.43,7.84-1.18,9.14-.74.45.15.54,1.47.36,1.62-.57.49-8.25.21-9.51,1.19,1.75.61,8.26-1.13,9.34-.76.48.16.61,1.6.17,1.85l-9.09,1.26c-1.33.01-.04-.48-1.31-.71-.12-2-1.08-6.48-.11-7.85Z" fill="#d48a20"/>
          <path d="M11.4,28.63c.32,1.56.24,5.08.44,6.99l.51,7.71c-.28-.36-.39-1.01-.55-1.5-.15-.45.15-1.09-.44-1.41l-9.12.95,9.29-1.38c.18-.15.1-1.47-.36-1.62-1.32-.45-7.47,1.2-9.34.76l9.31-1.17c.21-.52-.02-1.72-.58-1.81-1.12-.17-6.79.99-8.7,1.01l9.09-1.26c.44-.25.31-1.69-.17-1.85-1.09-.37-7.6,1.37-9.34.76,1.26-.99,8.94-.7,9.51-1.19.18-.15.1-1.47-.36-1.62-1.3-.44-7.3,1.18-9.14.74l9.31-1.17c.16-.14.03-1.42-.15-1.64-.3-.36-8.15,1.27-9.36.56,1.73-.76,7.92-.28,9.12-.95.47-.26.16-1.14.17-1.57l-10.08.62c.21-.3.75-.83,1.05-.93.58-.18,8.39-.91,8.82-.82.65.14.98,1.2,1.09,1.76Z" fill="#bc6410"/>
          <path d="M11.8,41.84c.17.5.27,1.14.55,1.5l-.51-7.71c.5,4.68,1.65,11.52,1.69,15.98,0,.7-.05,1.64-.75,1.93-1.27.52-8.65.92-9.82.08,1.26-.37,9.46-.46,9.8-1.43.08-.24-.06-1.18-.43-1.3-1.34-.45-7.46,1.2-9.34.76l9.51-1.19-.15-1.64-9.57.58c1.22-.55,9.09-.61,9.53-.99.18-.15.1-1.47-.36-1.62-1.3-.44-7.3,1.18-9.14.74l9.31-1.17-.04-1.55-9.46.67c1.75-1.18,7.76-.4,9.1-1.15.44-.25.31-1.69-.17-1.85-.44-.15-9.09,1.27-9.14.74,2.79-.7,5.69-.58,8.5-.89.37-.04,1.03.11.89-.5Z" fill="#d48a20"/>
        </g>
        <path d="M15.11,37.39l.77-7.31c.21,1.12.37,2.13.51,3.26.63,5.08,1.37,11.35,1.52,16.41.03.96.51,2.06-.27,2.71-.76.32-1.26-.51-1.45-1.11-.71-2.3-.81-10.93-1.09-13.97Z" fill="#17ad9f"/>
        <path d="M80.28,15.01c.19.06.61-.13.82-.08.84.21,4.57.87,5.24.76.33.36.21.52.09.92-.82,2.68-2.31,5.19-2.98,8.04-1.13-2.52-2-5.17-2.79-7.81-.18-.61-.42-1.16-.38-1.83Z" fill="#277378"/>
        <path d="M51.89,25.71c.33-5.03.15-9.16.14-14.08,0-.96-.13-3.4.03-4.14.34-1.57.31-1.28,1.32-1.36.06,1.36-.37,3.52-.18,4.78.02.13,0,.28.04.41-.04,4.34-.33,8.66-.66,12.99-.04.5.3.82.29.9-.42,5.16-1.59,12.13-2.52,17.51-.12.68-1.3,7.59-1.68,7.5,1.39-8.11,2.66-16.28,3.21-24.51Z" fill="#1a6565"/>
        <path d="M60.4,59.47l.82-.08c.43,1.13.79,3.14,1.8,3.76.07.34-.08.38-.15.63-.62.03-.82.71-1.48.76-.52.04-3.27-1.11-4.13-1.07,1.36-.99,2.41-2.53,3.15-4.02Z" fill="#56929c"/>
        <path d="M14.07,28.39c.04-.45.24-1.47,1.01-1.34s.6,1.78.74,2.41c.04.2.02.42.06.62l-.77,7.31c-.24-2.59-1.26-6.59-1.04-9.01Z" fill="#198679"/>
        <path d="M55.01,59.35c-1.7-.09-2.89-.16-4.59-.4-1.37-1.95.03-4.03,1.92-4.94,5.65-2.69,2.4,2.16,2.67,5.34Z" fill="#d9eaeb"/>
        <path d="M77.76,23.52c1.34,4.2,1.95,8.89,3.18,13.15-1.23-4.67-3.36-9.07-4.88-13.62-1.39-4.16-2.43-8.51-3.76-12.69,1.65,4.42,4.03,8.66,5.46,13.15Z" fill="#277378"/>
        <path d="M80.66,16.83c.8,2.64,1.66,5.3,2.79,7.81-.02.07.05,1.4-.17,1.46-2.28-2.75-3.5-5.67-2.62-9.28Z" fill="#56929c"/>
        <path d="M55.14,36.17l3.71,13.21c1.54.52,3.04-.25,4.68.29,2.5.83,4.67,6.18,4.84,8.66-2.18.52-4.51.7-6.73,1.04-2.66-7.73-4.46-15.3-6.49-23.19Z" fill="#badbdb"/>
        <path d="M75.04,47.77c-.54,2.34-.9,4.56-1.85,6.79-.43.73-.97,1.6-.22,2.09-.81.3-1.57.79-2.39,1.05-2.24-1.84,2.37-4.74,3.32-6.62.57-1.12.34-2.45,1.14-3.31Z" fill="#badbdb"/>
        <path d="M53.21,10.9c1.1.28,3.8-1.25,4.69-.75.45.26,3.4,8.52,3.79,9.68.37,1.1,1,2.17,1.35,3.39-2.1.05-4.09.53-6.12.98l-2.55-9.7c-.09-.46.22-.44.12-.94-.03-.15-1.17-1.95-1.24-2.26-.03-.13-.02-.28-.04-.41Z" fill="#6fafbb"/>
        <path d="M53.25,11.31c.07.32,1.21,2.11,1.24,2.26.1.5-.21.48-.12.94.67,3.26,1.26,6.56,2.35,9.71-1.28.3-2.55.69-3.84.98,0-.09-.33-.4-.29-.9.33-4.33.62-8.65.66-12.99Z" fill="#6fafbb"/>
        <path d="M54.37,14.51l2.55,9.7c-.07.01-.14,0-.21.02-1.09-3.16-1.68-6.45-2.35-9.71Z" fill="#56929c"/>
        <g>
          <path d="M51.89,25.71c-.55,8.23-1.82,16.4-3.21,24.51.38.09,1.57-6.82,1.68-7.5.92-5.38,2.09-12.35,2.52-17.51,1.29-.29,2.56-.68,3.84-.98.07-.02.14,0,.21-.02,2.03-.45,4.02-.93,6.12-.98,2.67,9.33,3.08,19.46,5.47,28.87-1.05-9.8-2.75-19.52-4.87-29.14l12.42.09c1.52,4.54,3.66,8.95,4.88,13.62-1.24-4.26-1.85-8.95-3.18-13.15,4.08.82,8.17,8.37,12.26,8.38,4.8,0,8.09-6.72,10.77-9.9.19-.22.37-.45.56-.67,2.49-2.97,4.92-6.01,8.02-8.4.49.27.37.76.42,1.2,1.23,10.38,1.15,32.18-2.13,41.79l-18.02-11.37c-.07-.31-.84-.83-.92-.95-2.84-4.44,1.09-7.03,1.74-11.33-2.1,2.79-3.24,7.16-5.19,9.9s-5.7,4.96-8.01,7.36c3.19-1.62,5.83-4.41,8.95-6.11-.09,1.37.4,5.96.02,6.93-.28.71-3.14,1.72-3.94,2.12-2.9,1.47-6.3,3.05-9.34,4.18-.75-.49-.21-1.36.22-2.09.27-.45,2.59-2.96,2.6-3.24,0-.07-.61-.6-.54-1.4.2-2.27.71-4.47,1.03-6.72-.77,1.31-.89,3.09-1.23,4.56-.8.87-.58,2.19-1.14,3.31-.95,1.88-5.56,4.78-3.32,6.62-.53.17-1.79.52-2.22.62-.17-2.48-2.34-7.83-4.84-8.66-1.64-.54-3.15.23-4.68-.29l-3.71-13.21c-.22-.84-.39-1.69-.65-2.53.28,3.41,1.28,6.95,2,10.37,1.42,6.76,2.3,9.04,4.74,15.39l-.82.08c-1.83.17-3.58-.02-5.39-.12-.26-3.18,2.98-8.03-2.67-5.34-1.89.9-3.29,2.99-1.92,4.94-4.87-.68-11.8-2.51-16.08-4.92-7.13-4.02-4.82-7.16-1.1-13.04,4.32-6.84,10.8-12.91,18.65-15.28Z" fill="#badbdb"/>
          <g>
            <g>
              <path d="M106.68,58.7c-.04-.57.76-2.11.98-2.78,3.27-9.61,3.36-31.4,2.13-41.79l.21-.02c.76,9.48,1.34,21.32.78,30.76-.09,1.51-.13,3.1-.4,4.59-.41,2.18-1.68,4.48-2.28,6.63l-1.36,3.23c-.02-.2-.04-.41-.06-.62Z" fill="#277378"/>
              <path d="M106.17,50.99c-.53-4.44-.81-8.87-.3-13.32l.29,6.49v6.83Z" fill="#1a6565"/>
              <path d="M97.26,41.88c-.21-.57.68-4.76.61-5.75.34.72.16,5.8-.06,6.01-.17.08-.51-.16-.54-.26Z" fill="#9bb5b4"/>
              <path d="M96.85,46.47l.55-4.09c1.04.73.01,3.11-.55,4.09Z" fill="#9bb5b4"/>
            </g>
            <g>
              <path d="M60.67,11.03c1.21,3.92,2.08,7.93,2.97,11.93,2.12,9.62,3.82,19.33,4.87,29.14-2.39-9.41-2.8-19.55-5.47-28.87-.35-1.22-.97-2.29-1.35-3.39l-1.02-8.8Z" fill="#1a6565"/>
              <path d="M55.14,36.17c2.04,7.9,3.84,15.47,6.49,23.19.36,1.05,1.2,2.87,1.39,3.8-1.01-.63-1.36-2.63-1.8-3.76-2.43-6.35-3.32-8.63-4.74-15.39-.72-3.42-1.72-6.95-2-10.37.25.83.43,1.69.65,2.53Z" fill="#277378"/>
              <path d="M88.73,43.61c-.41.31-1.19-.89-1.43-.9-.34-.02-.84.6-1.07.72-3.12,1.7-5.76,4.48-8.95,6.11,2.31-2.4,6.1-4.67,8.01-7.36s3.08-7.11,5.19-9.9c-.66,4.3-4.58,6.89-1.74,11.33Z" fill="#154e45"/>
              <path d="M75.04,47.77c.34-1.48.46-3.25,1.23-4.56-.33,2.24-.83,4.45-1.03,6.72-.07.79.55,1.32.54,1.4,0,.28-2.33,2.79-2.6,3.24.96-2.23,1.31-4.45,1.85-6.79Z" fill="#9bb5b4"/>
              <path d="M55.94,53.78c-.09-.36,0-3.06.18-3.64.39.61.5,3.77.16,3.92-.08-.1-.32-.21-.34-.28Z" fill="#9bb5b4"/>
            </g>
          </g>
        </g>
      </g>
    </g>
  </g>
</svg>