<?xml version="1.0" encoding="UTF-8"?>
<svg id="Ebene_2" data-name="Ebene 2" xmlns="http://www.w3.org/2000/svg" viewBox="0 0 53.39 39.25">
  <g id="Ebene_16" data-name="Ebene 16">
    <g id="muell4">
      <g>
        <path d="M49.31.92l-25.57,17.7c-.54-.44-3.2-1.81-3.76-1.79v-.36C28.66,11.62,37.18,5.7,45.64.2c1.3-.53,2.55.08,3.67.72Z" fill="#fcb074"/>
        <g>
          <path d="M39.29,18.8c-.46.3-.88.65-1.25.89-.52.34-1.19.68-1.79,1.07-3.1,2.05-6.38,3.87-9.48,5.9.76-2.69-.96-6.35-3.04-8.05L49.31.92c2.43,1.38,5.01,5.76,3.76,8.49-.35.76-12.06,8.25-13.77,9.39Z" fill="#ed9b5d"/>
          <g>
            <path d="M50.83,6.46c1.72-.21-.46,1.64-1.07,1.25-.52-.34.91-1.23,1.07-1.25Z" fill="#fcb074"/>
            <path d="M30.8,19.33c.32-.06.6-.02.8.27-1.72,2.17-2.36.01-.8-.27Z" fill="#fcb074"/>
            <path d="M35.63,12.54c.56-.02.34.13.63.45-2.09,2.04-1.87-.39-.63-.45Z" fill="#fcb074"/>
            <path d="M39.2,14.69c1.34-.12-.02,1.46-.54,1.25-.7-.27.11-1.21.54-1.25Z" fill="#fcb074"/>
            <path d="M46.18,9.32c.54-.08.47.16.45.63-.58.3-1.38,1.17-1.43,0l.98-.63Z" fill="#fcb074"/>
            <path d="M27.4,18.8c1.36-.12,0,1.47-.54,1.07-.39-.3.16-1.04.54-1.07Z" fill="#fcb074"/>
            <path d="M39.56,10.04c.92.03.1,1.27-.72,1.07-.67-.16.55-1.08.72-1.07Z" fill="#fcb074"/>
            <path d="M42.6,12.36c.82-.04.38,1.32-.18,1.25-.73-.09-.21-1.23.18-1.25Z" fill="#fcb074"/>
            <path d="M34.73,17.37c1.22-.32.39,1.22-.36,1.07-.5-.1.13-1.01.36-1.07Z" fill="#fcb074"/>
            <path d="M43.14,7.71c1.23-.26.2,1.48-.36,1.07-.31-.23.08-1.02.36-1.07Z" fill="#fcb074"/>
            <path d="M31.51,14.69c.82-.02.37,1.26-.36,1.07-.57-.15.02-1.07.36-1.07Z" fill="#fcb074"/>
            <path d="M47.97,4.67c1.13-.2.32,1.12-.18,1.07-.63-.06-.23-1,.18-1.07Z" fill="#fcb074"/>
          </g>
        </g>
      </g>
      <g>
        <path d="M1.75,27.07c-4.01,3.34-.26,7.55,2.41,10.95,2.1.12,1.5,1.18,3.65,1.22l3.34-2.26c.02-.06.12-.11.24-.25.67-.85,13.4-8.84,15.47-10.19.76-2.69-.96-6.35-3.04-8.05-.54-.44-3.28-1.9-3.84-1.88-.39.01-.71.39-1.56.89" fill="#fff"/>
        <path d="M5.78,28.04c-.77-.27-2.84-.55-3.58-.36-1.45.38-2.37,4.33-2.06,5.63.29,1.2,3.29,5.52,4.74,5.81,6.82,1.38,4.57-9.78.89-11.09Z" fill="#161416"/>
        <path d="M7.37,25.77c-.38.03-1.36.15-1.52.63,2.97.5,4.07,2.16,5.01,4.83.24.68.46,3.32.98,3.31,3.67-3.56.44-9.12-4.47-8.76Z" fill="#d7d8d9"/>
      </g>
    </g>
  </g>
</svg>