<?xml version="1.0" encoding="UTF-8"?>
<svg id="Ebene_2" data-name="Ebene 2" xmlns="http://www.w3.org/2000/svg" viewBox="0 0 37.93 28.07">
  <g id="Ebene_16" data-name="Ebene 16">
    <g id="muell5">
      <g>
        <path d="M.03,4.96l19.04,11.14c-.12.48-.2,2.6-.02,2.95l-.23.11C13.1,15.02,6.74,11.32.67,7.53-.06,6.85-.04,5.87.03,4.96Z" fill="#fcb074"/>
        <g>
          <path d="M14.53,6.04c.33.2.68.37.95.54.37.23.79.56,1.23.83,2.24,1.38,4.4,2.94,6.63,4.32-1.95.32-3.79,2.52-4.26,4.37L.03,4.96C.19,2.98,2.23.02,4.37,0c.59,0,8.92,5.28,10.16,6.04Z" fill="#ed9b5d"/>
          <g>
            <path d="M3.14,2.32c-.65-1.04,1.19-.19,1.13.31-.06.44-1.06-.21-1.13-.31Z" fill="#fcb074"/>
            <path d="M17.42,11.34c-.13-.19-.2-.38-.07-.6,1.91.46.71,1.51.07.6Z" fill="#fcb074"/>
            <path d="M11.6,10.27c-.18-.35-.02-.26.1-.54,1.94.73.31,1.32-.1.54Z" fill="#fcb074"/>
            <path d="M11.91,7.33c-.48-.82.94-.43.97-.03.03.53-.81.29-.97.03Z" fill="#fcb074"/>
            <path d="M6.37,4.45c-.22-.32-.04-.35.27-.47.37.28,1.16.54.43.92l-.7-.44Z" fill="#fcb074"/>
            <path d="M18.09,13.68c-.48-.84.95-.43.85.02-.07.34-.72.21-.85-.02Z" fill="#fcb074"/>
            <path d="M8.82,8.49c-.26-.6.79-.45.9.14.1.48-.86-.03-.9-.14Z" fill="#fcb074"/>
            <path d="M9.4,5.84c-.27-.52.74-.64.86-.26.16.5-.73.5-.86.26Z" fill="#fcb074"/>
            <path d="M14.98,9.4c-.57-.69.67-.61.8-.09.09.35-.69.22-.8.09Z" fill="#fcb074"/>
            <path d="M6.25,6.89c-.53-.71.89-.58.8-.09-.05.27-.68.25-.8.09Z" fill="#fcb074"/>
            <path d="M14.22,12.27c-.26-.52.7-.61.8-.09.07.41-.69.31-.8.09Z" fill="#fcb074"/>
            <path d="M2.85,4.7c-.47-.67.62-.54.74-.21.15.42-.57.45-.74.21Z" fill="#fcb074"/>
          </g>
        </g>
      </g>
      <g>
        <path d="M31.09,27.69c3.35,1.58,4.93-2.1,6.32-4.83-.55-1.38.31-1.32-.31-2.71l-2.46-1.47s-.11-.05-.23-.08c-.75-.18-9.7-5.97-11.19-6.89-1.95.32-3.79,2.52-4.26,4.37-.12.48-.24,2.68-.06,3.03.13.25.46.34,1.04.74" fill="#fff"/>
        <path d="M30.51,24.81c.05.58.5,1.99.84,2.41.68.82,3.49.23,4.24-.37.69-.55,2.56-3.77,2.32-4.79-1.16-4.8-7.65,0-7.4,2.75Z" fill="#161416"/>
        <path d="M28.58,24.47c.13.24.5.83.86.79-.57-2.06.17-3.26,1.6-4.67.37-.36,2-1.29,1.83-1.62-3.39-1.3-6,2.45-4.29,5.5Z" fill="#d7d8d9"/>
      </g>
    </g>
  </g>
</svg>