<?xml version="1.0" encoding="UTF-8"?>
<svg id="uuid-29629ec2-d713-467b-b468-cac92c023460" data-name="Ebene 2" xmlns="http://www.w3.org/2000/svg" viewBox="0 0 71.03 171.56">
  <g id="uuid-4716de6a-1585-4156-9741-6a1331470165" data-name="Ebene 1">
    <g id="uuid-1ee59ef2-6a16-4350-8e01-49c156a4edb9" data-name="Generatives Objekt">
      <path d="M28.52,4.69c-3.17.52-4.97,2.62-6.45,5.33-1.15,2.11-1.51,5.21-3.59,6.77-2.42,1.81-6.13,1.91-8.9,2.92,3.52,6.6,11.82,14.36,9.24,21.82-2.6,7.52-5.49,11.43-7.02,20.11.65-.23.43.3.39.66-.15,1.3-.48,2.88-.9,4.13.99,4.05-2.41,8.13,2.46,10.1,5.93,2.4,11.55-1.69,16.13-5.62,7.05-6.06,11.7-15,11.46-24.38-3.17-6.69-9.16-7.69-15.91-7.98,1.17-5.73-9.99-10.28-8.88-15.3.76-3.45,6.29-5.39,7.45-8.19.28-.68.11-1.73.45-2.5,2.28-5.22,9.33-5.84,14.27-6.13-2.29-.83-7.88-2.12-10.2-1.74Z" fill="#48494a"/>
      <path d="M24.87,112.93c-.8.28-5.27,11.6-6.13,13.38-.75,1.55-2.83,3.85-3.29,4.96-.3.72-1.46,10.39-1.6,11.57-.8,6.42-2.47,21.16.35,26.9,1.83,3.73,4.15.93,6.08-1.22,3.13-3.48,3.53-6.86,5.43-10.6.31-.61,1.26-.91,1.5-1.36,4.4-8.32,6.07-20.86,6.92-30.27.65-7.19.84-14.51.54-21.71-1.59,2.45-3.91,7.79-6.84,8.46-.72.17-2.56-.25-2.96-.11Z" fill="#48494a"/>
      <path d="M42.04,67.15c-.48,1.96-1.07,3.91-1.66,5.84-.49-.18-3.13-2-3.32-1.97-2.18.37-.62,5.61,2.39,4.7l-3.3,8.75c-.89.4-3.55-3.18-4.15.3-.62,3.57,1.3,2.43,2.89,2.41.19,0,.18.38.21.38,3.7-.22,9.37-1.99,12.26-4.21.3.4-.24.97-.4,1.4,1.21-.53.48-1.97,1.36-2.73,1.04-.9,3.69-1.81,4.93-2.77.79-.61,1.57-2.16,2.43-2.79-.04-2.11,1.4-3.02-1.04-3.64-.21-.05-1.54.13-1.94.06-.34-.21.26-.26.25-.28-.22-1.37.29-2.15.44-3.36s.47-2.73.54-3.82c.35-5.1-.22-12.11-1.81-17.32-.91,1.48-1.01,3.5-1.74,5.1-.33.74-1.4,2.57-1.9,3.19-.9,1.13-4.58,3.54-4.75,3.92-.59,1.39.04,5.78-1.73,6.84Z" fill="#f7f2e3"/>
      <path d="M35.1,87.56c-1.39,3.42-2.92,6.8-4.34,10.21-.37.88-.69,1.78-1.06,2.65-1.39,3.32-2.76,6.65-4.19,9.95-.31.73-.69,1.45-.96,2.2.02,0,.26.28.31.36.39-.14,2.23.28,2.96.11,2.93-.67,5.25-6.01,6.84-8.46,3.61-5.55,10.08-13.94,12.29-19.82.16-.44.7-1,.4-1.4-2.9,2.22-8.56,3.99-12.26,4.21Z" fill="#ba2324"/>
      <path d="M22.07,10.02c1.47-2.7,3.28-4.81,6.45-5.33-4.8-.84-10.06.5-14.78.29-2.72-.12-4.79-1.15-7.24-1.62-.1-.02-1.19.27-1.73-.43-.39,1.99,2.4,3.01,3.26,4.7,1.34,2.65.48,5.31,4.08,7.09,4.08,2.02,7.88-1.48,9.97-4.71Z" fill="#d03336"/>
      <path d="M10.5,79.52c.69,0,.82,1.26,1.31,1.73,1.13,1.06,4.61.76,6.09.51-1.14,2.27,3.44,5.15,5.37,4.92,5.31-.62.26-3.89.95-4.79,1.95.62,11.04-.44,10.81-3.08-.02-.28-2.02-2.38-2.23-2.36-.22.03-1.33,2.02-2.69,2.2-1.94.26-1.99-2.09-2.3-2.23-.23-.11-3.82,1.3-4.83,1.45-4.16.61-9.21-.02-12.34-2.93-.03,1.34-.14,3.04-.13,4.59Z" fill="#f7f2e3"/>
      <path d="M9.58,19.7c2.77-1,6.48-1.11,8.9-2.92,2.08-1.55,2.44-4.66,3.59-6.77-2.09,3.23-5.88,6.73-9.97,4.71-3.6-1.78-2.74-4.44-4.08-7.09-.86-1.69-3.64-2.71-3.26-4.7.55.69,1.64.41,1.73.43L.12,0C-.42.44,3.27,3.66,3.62,3.98L0,2.52l3.74,3.6-1.86-.93c-.57.34,5,6.06,5.46,6.52-.42.61-1.52-1.39-1.71-1.19-.13.14.37,2.02.49,2.37.51,1.41,2.65,5.27,3.47,6.81Z" fill="#ba2324"/>
      <path d="M34.13,30.14c2.91,1.15,5.95,2.16,9.03,2.69-4.6-4.92-7.51-5.92-2.55-12.14l-3.76,1.83c-1.97,1.84-15.6-.83-9.89,4.15,1.49,1.3,5.25,2.72,7.17,3.48Z" fill="#48494a"/>
      <path d="M41.53,8.1c-.43,1.41-.17,3.73-1.25,5.3l.2-.05c4.53-2.54,9.38-4.52,13.93-7.02,2.79-1.53,6.09-3.49,8.28-5.36l-21.02,6.44c-.3.2-.13.61-.15.69Z" fill="#a1a1a1"/>
      <path d="M40.48,13.35l-.2.05c-.14.2-.42.74-.46.77.14,1.23.46,1.52,1.23,2.29.32.32,1.81,1.17,2.25,1.16,1.58-.03,6.96-1.73,8.86-2.26,4.52-1.24,8.93-2.98,13.43-4.29-1.09-.26-3-.15-4.13-.03-6.52.65-12.87,2.57-19.27,3.93,3.41-2.48,7.65-4.01,11.31-6.24,2.26-1.37,4.48-2.99,6.5-4.69l-19.52,11.47c-.54-.69-.33-1.45,0-2.17Z" fill="#747578"/>
      <path d="M62.69.97c-2.19,1.87-5.49,3.83-8.28,5.36-4.55,2.5-9.4,4.47-13.93,7.02-.32.72-.53,1.47,0,2.17l19.52-11.47c1.17-.99,2.41-1.86,3.32-3.12l-.64.05Z" fill="#848585"/>
      <path d="M10.95,88.08c1.41,1.5,3.73,2.29,3-.55.38-.24,2.06,3.76,4.7,2.27,1.64-.92-.35-3.56-1.14-3.61-1.41-.1-1.81,1.26-3.64-.26-.37-.31-.71-1.27-.77-1.32-.87-.74-2.24-.3-2.27-1.26.05,1.21-.05,3.08.12,4.74Z" fill="#f7f2e3"/>
      <path d="M10.99,96.74c.89.4,1.05,2.01,1.77,2.69,1.29,1.24,3.24.99,3.92-.78-.74-.57-1.55-2.82-1.9-3.2-1.2-1.32-2.56-.73-3.56-3.75-.39,1.55-.3,3.45-.23,5.05Z" fill="#f7f2e3"/>
      <path d="M11.24,107.08c1.54.8,2.53,4.38,4.7,3.57,1.55-.58.64-3.06-.04-4-1.24-1.7-3.14-.14-4.32-4.21-.44,1.16-.38,3.26-.34,4.64Z" fill="#f7f2e3"/>
      <path d="M11.66,122.36c.06.67.18,1.23.26,1.88l2.86,2.31c1.5.02,3.52-3.15,2.18-3.37-3.27,1.38-2.59-.33-4.44-2.12l-.86,1.3Z" fill="#f7f2e3"/>
      <g>
        <path d="M11.8,61.63c-.82,4.66-1.05,8.59-1.16,13.3,3.14,2.91,8.18,3.54,12.34,2.93,1.01-.15,4.61-1.56,4.83-1.45.31.15.36,2.49,2.3,2.23,1.36-.18,2.47-2.18,2.69-2.2.21-.02,2.2,2.08,2.23,2.36.22,2.64-8.86,3.7-10.81,3.08-.68.91,4.36,4.17-.95,4.79-1.93.23-6.51-2.65-5.37-4.92-1.48.26-4.96.56-6.09-.51-.49-.46-.61-1.72-1.31-1.73,0,1.09.27,2.65.32,3.82.03.96,1.41.52,2.27,1.26.06.05.4,1.02.77,1.32,1.84,1.53,2.23.16,3.64.26.79.06,2.77,2.69,1.14,3.61-2.64,1.49-4.32-2.51-4.7-2.27.72,2.84-1.59,2.04-3,.55.13,1.25-.15,2.33.27,3.62,1,3.02,2.36,2.44,3.56,3.75.35.38,1.16,2.64,1.9,3.2-.68,1.77-2.63,2.02-3.92.78-.72-.69-.88-2.29-1.77-2.69.06,1.4.23,4.47.59,5.7,1.18,4.07,3.09,2.51,4.32,4.21.68.94,1.59,3.42.04,4-2.17.81-3.17-2.77-4.7-3.57.14,4.81.03,10.63.42,15.28l.86-1.3c1.85,1.79,1.17,3.5,4.44,2.12,1.35.22-.67,3.4-2.18,3.37l-2.86-2.31c.19,1.54.65,5.78,1.33,6.92.41.7,1.52.37,1.68.65.27.48-1.81,9.54-1.1,11.01.15-1.18,1.3-10.86,1.6-11.57.46-1.11,2.54-3.4,3.29-4.96.86-1.78,5.33-13.1,6.13-13.38-.04-.08-.28-.35-.31-.36-1.28-.23-2.36-.53-2.33-2.33.03-1.89,2.26.63,3.29.14,1.42-3.3,2.79-6.64,4.19-9.95-2.01.49-3.68-3.8-1.49-3.74.49.01,1.38,1.78,2.55,1.08,1.42-3.41,2.95-6.79,4.34-10.21-.02,0-.02-.38-.21-.38-1.59.02-3.51,1.16-2.89-2.41.6-3.48,3.26.11,4.15-.3l3.3-8.75c-3.01.91-4.57-4.33-2.39-4.7.19-.03,2.83,1.79,3.32,1.97.58-1.94,1.17-3.88,1.66-5.84,1.72-6.97,2.47-13.93-.7-20.63.24,9.38-4.4,18.32-11.46,24.38-4.58,3.93-10.2,8.02-16.13,5.62-4.87-1.97-1.47-6.05-2.46-10.1.41-1.26.75-2.83.9-4.13.04-.36.26-.89-.39-.66Z" fill="#373838"/>
        <path d="M17.99,100.81c-.23.03-.71.77-.73.95-.92,5.62,10.53,5.28,7.8-.03-1.13-2.2-1.78.38-2.52.75-2.45,1.23-3.96-1.73-4.54-1.66Z" fill="#f7f2e3"/>
        <path d="M17.9,91.94c-2.59.82,1.69,7.84,5.22,4.31,2.21-2.21-1.32-2.87-2.41-4.37-.65.68-2.66.02-2.8.06Z" fill="#f7f2e3"/>
        <path d="M27.41,87.57c-.18-.01-3.14,1.37-3.18,1.57-.35,2.07,2.98,5.11,5.24,3.11,1.6-1.42-1.77-4.66-2.06-4.68Z" fill="#f7f2e3"/>
        <path d="M14.38,113.87c-1.73.28,1.87,6.05,4.96,4.16.95-.58,1.85-2.21,1.44-3.29-.74-1.95-1.5-.06-2.01.19-3.59,1.75-3.72-1.16-4.39-1.05Z" fill="#f7f2e3"/>
      </g>
      <path d="M29.7,100.42c.37-.87.69-1.78,1.06-2.65-1.17.69-2.07-1.07-2.55-1.08-2.19-.07-.51,4.23,1.49,3.74Z" fill="#f7f2e3"/>
      <path d="M24.56,112.57c.27-.75.64-1.46.96-2.2-1.03.49-3.25-2.03-3.29-.14-.03,1.8,1.05,2.11,2.33,2.33Z" fill="#f7f2e3"/>
      <path d="M41.05,16.46c-.77-.77-1.09-1.06-1.23-2.29-1.6,1.21-8.5,1.91-9.03,3.71-.24.81.66,2.71,1.46,2.77,1.68.14,6.87-3.59,8.8-4.19Z" fill="#48494a"/>
      <g>
        <path d="M53.96,65.42c-.08,1.1-.4,2.63-.54,3.82,1.39-.5,2.97-1,3.86-2.28.15.03.04,2.86.01,3.03,1.11-.96,2.62-3.33,4.01-3.84,1.16-2.14,3.74-3.16,6.1-2.85.23-1.26-1.78-.71-2.1-1.42,1.95-.8,3.41.5,5.22.51-2.03-3.82-7.27-2.2-9.99-.06,1.2-2.9,4.06-4.65,7.24-4.34.76-.82-2.22-1.06-2.3-1.37.8-1.27,7.64,1.91,4.91-.71-3.77-3.63-10.67,1.2-12.36,5.1-1.28,2.96.55,4.23-4.08,4.4Z" fill="#998664"/>
        <path d="M57.29,69.99c-.08.5-.83,3.52-1.44,2.86l.48-1.1-3.36.86s-.59.07-.25.28c.4.07,1.72-.11,1.94-.06,2.44.62.99,1.52,1.04,3.64.09,4.61,1.71,8.95,7.07,8.61-.63-.57-1.55-.32-2.32-1.03-3.38-3.12-1.44-9.86.53-13.25.24-.42.19-.46.61-1.02,2.01-2.7,2.45-2.71,5.98-2.06-1.36-1.63-4.35-2.25-6.25-1.55-1.39.51-2.89,2.88-4.01,3.84Z" fill="#b0a391"/>
        <path d="M53.41,69.24c-.15,1.22-.66,2-.44,3.36l3.36-.86-.48,1.1c.61.66,1.36-2.36,1.44-2.86.03-.17.14-3.01-.01-3.03-.89,1.28-2.47,1.79-3.86,2.28Z" fill="#cac0b1"/>
      </g>
      <g>
        <path d="M41.34,46.52c3.17,6.7,2.42,13.66.7,20.63,1.77-1.05,1.13-5.44,1.73-6.84.16-.38,3.85-2.78,4.75-3.92.49-.62,1.56-2.45,1.9-3.19.72-1.6.83-3.63,1.74-5.1-.94-3.07-5.91-13.61-8.68-14.92-.31-.15-2.52-.28-3.16-.5-1.99-.66-4.58-1.35-6.18-2.55-1.93-.76-5.68-2.19-7.17-3.48-5.71-4.97,7.92-2.31,9.89-4.15l3.76-1.83c.85-1.06,1.8-2.03,2.69-3.07-.44,0-1.93-.84-2.25-1.16-1.92.6-7.11,4.33-8.8,4.19-.8-.06-1.7-1.96-1.46-2.77.52-1.8,7.42-2.49,9.03-3.71.04-.03.32-.56.46-.77,1.08-1.57.82-3.89,1.25-5.3-.61-1.17-1.72-1.27-2.81-1.67-4.94.28-11.98.91-14.27,6.13-.34.77-.17,1.82-.45,2.5-1.16,2.8-6.69,4.74-7.45,8.19-1.11,5.02,10.05,9.57,8.88,15.3,6.74.29,12.74,1.29,15.91,7.98Z" fill="#f7f2e3"/>
        <g>
          <path d="M32.1,8.11c-3.77.91-1.08,6.69,2.82,4.27,2.91-1.81-.38-4.86-2.82-4.27Z" fill="#373838"/>
          <path d="M32.41,8.47c-1-.09-2.08,1.26-.65,1.68l1.12-.72c.41-.23-.13-.94-.46-.97Z" fill="#fefefe"/>
          <path d="M32.92,9.64c-.46,0-.82,1.13-.15,1.12.46,0,.82-1.13.15-1.12Z" fill="#fefefe"/>
        </g>
      </g>
    </g>
  </g>
</svg>