<?xml version="1.0" encoding="UTF-8"?>
<svg id="uuid-3ab65050-ec4d-45a1-b849-1ee3084bb3ff" data-name="Ebene 2" xmlns="http://www.w3.org/2000/svg" viewBox="0 0 308.57 221.55">
  <g id="uuid-0849cdc5-0236-44ed-bd00-fac783923c5c" data-name="Ebene 1">
    <g id="uuid-80301146-fba4-44c3-8735-66dcd367f0df" data-name="Generatives Objekt">
      <path d="M278.12,146.97c-4.85,2.86,1.72,5.99,2.83,9.38l-7.44.71,6.73,7.79-8.15,1.77,2.83,7.26c-15.24-1.04-32.84-16.43-37.54-30.81-2.92-8.94-1.32-20.32-2.48-29.57-1.59-12.66-8.48-24.02-19.12-30.99,1.12.36,3.53.27,4.78.71,28.01,9.75,34.31,46.01,57.55,63.74Z" fill="#6b6f70"/>
      <path d="M98.22,144.49c-7.84-2.11-15.48-5.17-22.31-9.56-16.32-10.49-22.13-22.78-30.46-39.31,21.85-10.53,36.21,3.82,44.98,22.49,4.5,9.58,5.92,16.11,7.79,26.38Z" fill="#d0cfc7"/>
      <path d="M98.22,144.49c.62,3.41,1.69,7.23,2.12,10.62l-4.25,51.35c-1.92.37-4.61,3.17-5.49,4.96-.49-.3.14-2.48-.35-2.83-.38-.27-7.48-.4-9.38-.71,2.15-24.26-.96-48.98-4.96-72.95,6.83,4.4,14.47,7.45,22.31,9.56Z" fill="#6b6f70"/>
      <path d="M188.52,142.36c4.62,10.28,9,17.41,17.53,25.14,1.57,1.42,8.19,3.29,5.84,6.91-.66,1.01-2.96.24-3.19,1.59-2.87.45-7.74,2.15-10.27,2.12-2.5-.02-9.68-2.78-12.22-3.9-12.73-5.6-23.15-16-28.15-29.04,10.14-1.01,20.22-2.58,30.46-2.83Z" fill="#6b6f70"/>
      <path d="M212.96,177.42c.15,9.71,2.5,28.86.71,37.36-.17.8-2.11,5.11-2.66,5.49-1.48,1.04-21.06,1.51-22.66.71-3.09-1.55-1.19-15.63,8.15-14.52.87.1,2.34,1.45,2.48,1.42,3.37-.73.09-26.12-.53-29.75,2.53.02,7.4-1.68,10.27-2.12.57-.09,3.04-.97,3.36-.71.56.44-.46,2.26.89,2.12Z" fill="#d0cfc7"/>
      <path d="M188.52,142.36c-10.24.25-20.31,1.82-30.46,2.83-11.77,1.18-23.51,3.07-35.41,2.48.37-1.93,2-11.45,3.01-12.04,12.88-3.23,26.34-4.87,39.66-3.54,3.37.34,19.2,3.5,21.25,5.31,1.17,1.04,1.33,3.58,1.95,4.96Z" fill="#d0cfc7"/>
      <path d="M248.73,177.78c.55,7.1,2.57,36.72-.71,41.26-.71.99-1.82,1.72-3.01,1.95-2.07.4-17.95.78-19.48.35-5.1-1.4-1.71-13.96,4.25-14.87l5.84.89c1.85-8.71.46-17.72-1.06-26.38,3.47.1,10.2-3.56,14.17-3.19Z" fill="#d0cfc7"/>
      <path d="M80.87,207.88c1.9.31,9,.44,9.38.71.49.35-.14,2.53.35,2.83.88-1.79,3.57-4.58,5.49-4.96,2.62-.51,4.06.67,6.37,1.06.04,0,.24.66.53.71,3.65.57,7.97.61,11.69.71,1.43.63-.94,8.04-.18,9.56-1.99,3.27-5.21,2.59-9.03,2.83-5.18.33-10.23-.71-14.87-.71-4.05,0-17.99,1.82-20.89.35-3.22-1.63-1.1-15.7,8.15-14.52.78.1,2.32,1.3,3.01,1.42Z" fill="#d0cfc7"/>
      <path d="M274.93,173.88l-2.83-7.26,8.15-1.77-6.73-7.79,7.44-.71c-1.12-3.39-7.68-6.53-2.83-9.38,8.57,6.54,19.48,11.25,30.46,9.03-6.41,12.45-19.86,18.83-33.64,17.88Z" fill="#d0cfc7"/>
      <path d="M49.35,20.54l-7.44,1.42-9.03-14.17c-3.75,6.67-5.32,15.28-3.72,22.84.26.23,3.02-2.61,3.54-3.01l-2.83,3.36c.44.58,5.7-.52,6.37,1.42-1.37-.23-3.31-1.52-4.6-.53-2.31-.19-2.98.24-4.6,1.77-1.89-10.79.46-22,4.78-31.87,1.7-.6,12.9,15.44,14.7,17.18,1.34,1.3.96,1.34,2.83,1.59Z" fill="#6b6f70"/>
      <g>
        <path d="M215.79,82.51c10.64,6.96,17.53,18.33,19.12,30.99,1.16,9.26-.44,20.63,2.48,29.57.64,6.27,1.9,13.61,4.6,19.3,3.41,7.16,6.02,6.3,6.73,15.4-3.96-.38-10.69,3.29-14.17,3.19-1.45-.04-10.29-3.44-12.22-4.25-3.01-1.26-6.33-3.35-9.21-4.96-1.02.35-.19,4.71-.18,5.67-1.35.13-.33-1.68-.89-2.12-.33-.26-2.79.62-3.36.71.22-1.35,2.53-.58,3.19-1.59,2.34-3.62-4.27-5.48-5.84-6.91-8.53-7.73-12.91-14.87-17.53-25.14-.62-1.38-.78-3.92-1.95-4.96-2.05-1.82-17.88-4.98-21.25-5.31-13.32-1.33-26.79.31-39.66,3.54-1.01.59-2.64,10.11-3.01,12.04-2.81,14.54-3.34,62.92-8.15,70.83-.76-1.52,1.61-8.93.18-9.56-3.72-.1-8.04-.14-11.69-.71-.29-.05-.49-.7-.53-.71.42-17.42.1-35.12-2.12-52.41-.44-3.39-1.5-7.21-2.12-10.62-1.87-10.27-3.29-16.81-7.79-26.38-8.77-18.67-23.12-33.02-44.98-22.49-1.33-2.64-2.24-5.54-3.54-8.15,11.47-.5,15.13-14.4,23.9-19.48,4.83-2.79,10.29-2.33,14.7-5.13-2.98-1.86-6.46-3.75-8.85-6.37-8.1-8.9-8.65-26.98-25.32-24.26-2.31.38-6.34,3.94-6.73,3.9-.45-.05-5.19-4.02-7.97-4.25,1.29-.99,3.23.3,4.6.53-.68-1.94-5.93-.84-6.37-1.42l2.83-3.36c2.96-2.3,5.54-4.47,9.21-5.67l7.44-1.42c.51.07,3.04.11,3.36,0,.6-.2,5.47-9.27,6.55-10.8,2.41-3.4,5.25-6.59,7.97-9.74,6.4,8.24,9.39,18.61,10.8,28.86.3,2.21-.46,5.86,0,7.79.47,1.96,11.53,15.87,13.63,17.88,35.68,34.08,82.71,14.8,124.12,27.98Z" fill="#7c7d8a"/>
        <path d="M66.88,5.31c5.81,7.07,8.74,18.21,7.08,27.27-4.85-5.32-10.81-9.71-17.88-11.51l10.8-15.76Z" fill="#d0cfc7"/>
      </g>
      <path d="M41.91,21.96c-3.67,1.2-6.25,3.36-9.21,5.67-.52.4-3.28,3.24-3.54,3.01-1.6-7.56-.03-16.18,3.72-22.84l9.03,14.17Z" fill="#d0cfc7"/>
      <g>
        <path d="M7.91,52.77c5.55,1.25-1.19,8.75-2.83,10.98-2.24-1.84-5.79-5-4.96-8.32.59-2.36,5.9-3.08,7.79-2.66Z" fill="#1a1917"/>
        <g>
          <path d="M31.64,31.87c2.78.22,7.51,4.2,7.97,4.25.39.04,4.42-3.52,6.73-3.9,16.67-2.72,17.22,15.36,25.32,24.26,2.39,2.63,5.87,4.51,8.85,6.37-4.4,2.8-9.87,2.34-14.7,5.13-8.78,5.08-12.43,18.98-23.9,19.48-1.72-3.44-5.37-11.23-8.68-13.1-4.4-2.5-12.56-2.16-17.18-4.96,7.6,1.65,25.76,3.32,30.1-4.78,3.79-7.07-2.68,1.66-3.01,1.95-6.03,5.32-17.95,2.65-25.14,1.77-.58-.07-3.15-.66-3.01.71-3.33-.86-7.3-3.16-9.92-5.31,1.64-2.23,8.38-9.73,2.83-10.98,2.36-1.86,6.44-.87,9.38-2.12,5.41-2.31,5.23-12.75,9.74-17,1.62-1.53,2.29-1.96,4.6-1.77Z" fill="#d0cfc7"/>
          <path d="M16.06,69.41c-.29-.06-.61-.24-1.06-.35-.14-1.37,2.43-.78,3.01-.71,7.2.88,19.11,3.55,25.14-1.77.33-.29,6.8-9.02,3.01-1.95-4.34,8.1-22.5,6.43-30.1,4.78Z" fill="#1a1917"/>
          <path d="M32.53,40.37c3.77-.49,3.82,7.4,1.06,8.15-4.42,1.2-4.2-7.73-1.06-8.15Z" fill="#1a1917"/>
          <path d="M49.52,41.79c3.87-.94,4.26,6.87,1.06,8.15h-1.42c-2.53-1.19-1.97-7.58.35-8.15Z" fill="#1a1917"/>
        </g>
      </g>
    </g>
  </g>
</svg>