<?xml version="1.0" encoding="UTF-8"?>
<svg id="Ebene_2" data-name="Ebene 2" xmlns="http://www.w3.org/2000/svg" viewBox="0 0 299.65 499.92">
  <g id="Ebene_12" data-name="Ebene 12">
    <g id="Generatives_Objekt" data-name="Generatives Objekt">
      <path d="M163.85,186.28c2.23.51,9.31,1.24,10.89,1.98,7.55,3.52,3.3,50.65,5.94,51.5l20.8-10.89c.91-2.12-9.54-18.15-11.23-21.13-.2-.36-2.09-3.44,0-2.97,1.75,2.89,13.97,22.08,13.87,23.44-.15,1.93-5.87,3.04-6.6,4.95-3.52,1.47-12.81,5.51-15.19,7.92-.08.08-1.61-.04-1.98.99,2.38,21.25,5.66,42.56,5.28,64.05-1.45,1.05-3.02,1.6-4.62,2.31-16.04,7.12-55.03,5.59-72.63,2.64l.33-1.98c-4.9,1.32-9.11-2.39-14.2-2.97,2.32-11.22,5.03-22.45,7.26-33.68,2.8-14.06,2.82-29.48,11.89-41.6,1.67-2.23,5.9-4.12,7.26-5.94,5.32-7.14,7.34-23.42,3.96-31.69-1.09-2.68-6.74-6.81-6.6-10.23,1.12-.18,6.6-1.45,6.93-1.32.92.36,1.98,6.04,2.97,7.59,6.09,9.54,21.24,16.48,31.36,9.57,5.95-4.06,2.96-8.37,4.29-12.55Z" fill="#e0416a"/>
      <path d="M179.04,317.68c-.75,3.92-1.1,7.97-1.98,11.89-1.93-2.54-19.19.56-19.81,2.31,3.13,8.33,8.58,15.6,12.55,23.44,15.98,31.62,24.63,64.03,38.96,95.08l-23.77,13.87c-11.6-17.57-19.88-41.65-30.37-60.42-.6-1.07-1.08-2.86-2.64-1.65.57-4.75-18.09-28.66-21.79-34.34-9.46-14.51-19.15-26.41-23.77-43.58l72.63-6.6Z" fill="#064379"/>
      <path d="M151.97,402.2c-.06.53-2.73,4.8-3.3,5.61-6.44,9.19-45.43,39.49-56.13,45.89l-18.49-19.15c19.23-21.65,50.39-35.94,56.13-66.69,3.7,5.68,22.36,29.59,21.79,34.34Z" fill="#002d5a"/>
      <path d="M108.39,311.08c-1.64-.28-2.95-1.36-4.62,0l-10.56-4.29,11.23-58.77c-.79-1.59-3.2-1.27-3.96-1.65-6.58-3.28-14.06-5.34-20.47-8.58-1.83-.93-3.66-1.97-5.61-2.64-1.24-2.02,15.29-33.29,18.16-37.31,7.09-9.93,13.75-12.88,25.75-14.86-.14,3.43,5.51,7.55,6.6,10.23,3.38,8.28,1.36,24.56-3.96,31.69-1.36,1.82-5.6,3.71-7.26,5.94-9.06,12.12-9.09,27.53-11.89,41.6-2.23,11.23-4.94,22.46-7.26,33.68,5.08.58,9.3,4.29,14.2,2.97l-.33,1.98Z" fill="#c92f5a"/>
      <path d="M181.02,308.44c-.12,3.16-1.4,6.22-1.98,9.24l-72.63,6.6c-1.19-4.43-2.07-8.65-2.64-13.21,1.67-1.36,2.98-.28,4.62,0,17.61,2.95,56.59,4.48,72.63-2.64Z" fill="#002d5a"/>
      <path d="M190.27,204.77c-2.09-.47-.2,2.62,0,2.97,1.68,2.98,12.13,19.01,11.23,21.13l-20.8,10.89c-2.64-.85,1.61-47.98-5.94-51.5-1.59-.74-8.67-1.47-10.89-1.98.6-1.87,14.51,1.15,16.18,1.98,3.6,1.79,8.02,12.85,10.23,16.51Z" fill="#c92f5a"/>
      <path d="M177.06,329.57c-1.95,8.63-4.33,17.39-7.26,25.75-3.97-7.85-9.41-15.11-12.55-23.44.62-1.75,17.88-4.85,19.81-2.31Z" fill="#002d5a"/>
      <g>
        <path d="M99.14,489.36c.6,1.7,1.08,3.48,1.32,5.28-19.7-10.55-34.97-27.08-48.86-44.24,1.19-1.83,10.18-12.18,11.56-11.89,1.27,1.8,9.33,11.67,10.56,11.89,2.14.37,2.43-2.03,3.96-1.98.45.01,7.01,4.91,7.26,5.28,2.1,3.13-1.63,6.34,2.97,8.91-2.38.34-5.92-4.54-7.92-1.32,3.14.99,7.41,1.45,8.58,5.28-1.51-.33-7.15-4.61-7.26-.66,1.33-.1,7.57,1.7,7.92,2.64,1.35,3.58-5.13-.66-5.94,1.32,8.6,1.73,13.15,11.8,15.85,19.48Z" fill="#fa4637"/>
        <path d="M50.94,453.7c3.42,1.88,27.31,29.07,35.66,35.66,4.44,3.5,8.59,7.44,14.2,9.24l-.66,1.32c-8.03-1.27-15.54-5.15-22.12-9.9-4.37-3.15-32.58-31.16-32.35-34.01.13-1.63,3.17-3.47,5.28-2.31Z" fill="#dbe0d6"/>
        <path d="M100.46,494.64c.02.12,1.27.99.66,2.31l-14.53-7.59c-8.35-6.58-32.24-33.78-35.66-35.66-1.25-2.97-.09-2.16.66-3.3,13.89,17.16,29.16,33.69,48.86,44.24Z" fill="#b92719"/>
      </g>
      <g>
        <path d="M253.65,453.04c-17.08,14.97-37.36,24.92-56.79,36.32-3.21-2.69-5.31-10.89-8.58-14.2.23-1.63,15.3-7.48,15.85-9.9.04-.17-1.78-1.04-1.32-2.64s5.29-3.61,5.94-5.61c.92-.21,1.09-.63,2.64-.66.56-.01,3.89,2.88,7.26.99-1.49,1.98-2.79,3.69-1.65,6.27.78-2.86,2.02-6.83,5.94-6.6l-1.98,6.6c1.58-2.92,2.72-8.01,6.93-6.93-1.17.91-4.32,4.5-1.65,5.61.09-1.96,3.9-6.73,5.28-7.26,1.26-.49,20.85-2.28,22.12-1.98Z" fill="#fa4637"/>
        <path d="M211.39,490.02c-2.25.96-10.66,5.02-12.22,4.62-1.07-.28-.9-1.92-.99-1.98,1.58-2.23,5.04-4.61,7.26-5.94,17.02-10.21,35.76-17.89,49.52-33.02,5.1,3.25-4.69,11.87-7.59,14.53-8.42,7.71-25.41,17.27-35.99,21.79Z" fill="#dbe0d6"/>
        <path d="M254.97,453.7c-13.76,15.12-32.51,22.81-49.52,33.02-1.23.42-7.8,4.04-8.25,3.96-.57-.1-.23-1.24-.33-1.32,19.43-11.4,39.7-21.34,56.79-36.32.44.1.95.42,1.32.66Z" fill="#b92719"/>
      </g>
      <path d="M211.39,456.34c-1.55.03-1.72.45-2.64.66-4.12.95-19.61,12.05-20.8,11.89-1.68-1.13-1.97-3.1-2.97-4.62l23.77-13.87c.62,1.34,3.2,2.23,2.64,5.94Z" fill="#18a9bd"/>
      <path d="M92.54,453.7c-.22.13-2.29,3.5-4.29,2.64l-18.16-18.16c0-.53,3.43-3.03,3.96-3.63l18.49,19.15Z" fill="#18a9bd"/>
      <path d="M263.56,186.28c.06,2.47.18,4.88-.66,7.26-.86-.37-2.95-1.92-3.3-1.98.8-.03,1-.77,1.32-1.32.72-1.25,1.07-3.98,2.64-3.96Z" fill="#b92719"/>
      <g>
        <path d="M62.17,30.45c-6.03,9.26-12.14,20.76-4.62,31.03-1.37-.5-1.93,3.73-1.98,4.29-.99,10.26-.61,31.52,1.32,41.6,4.6,24.06,35.04,40.23,15.85,69.99-12.72,19.73-37.96,18.78-49.85,37.31-7.54-5.04-15.21-19.79-13.54-28.72,1.72-9.16,22.36-16.06,23.77-27.07-10.95,10.03-26.85,15.51-32.35,30.37-5.05-12.89,16.5-20.39,23.11-30.37,12.93-19.54-10.88-39.52-15.19-58.11C3.12,76.78,14.13,31.8,43.35,28.47c7.01-.8,14.27,2.29,18.82,1.98Z" fill="#984c2d"/>
        <path d="M73.39,29.13c-6.39,8.66-11.98,23.66-13.21,34.34-1.5.21-1.95-1.04-2.64-1.98-7.51-10.27-1.41-21.77,4.62-31.03,3.83-.26,7.69-7.9,11.23-1.32Z" fill="#fc9900"/>
        <g>
          <path d="M234.51,122.89c-.52.75-.55,1.79-.66,1.98l-11.89-4.62c1.31-6.88-.65-14.94-8.91-15.19l-2.31,5.28c1.43-18.66,8.19-39.66-2.64-56.46-17.95-27.83-27.03.17-42.59,10.23-2.07,1.34-19.7,10.02-20.8,7.59,11.67-3.6,20.66-12.91,27.73-22.45,1.18-1.6,5.61-6.55,4.29-8.25-20.43,20.11-43.88,32.74-72.63,36.32l-5.28,27.73c-8.04-18.5-27.67-14.22-29.38,5.28-7.23-17.17-11.47-27.49-9.24-46.88,1.22-10.68,6.82-25.68,13.21-34.34C95.59-.98,140.64-6.82,173.43,7.34c34.45,14.88,53.06,24.24,51.17,66.36-.33,7.25-3.46,15.14-2.64,22.45,1.02,9.06,12.77,16.44,12.55,26.74Z" fill="#984c2d"/>
          <path d="M145.03,12.62c2.71-.08,5.29-.09,7.92.66,2.14,2.23-19.22,9.03-21.13,9.9-14.34,6.56-29.07,17.19-45.89,13.54,13.17-11.8,41.49-23.58,59.1-24.1Z" fill="#b57457"/>
        </g>
      </g>
      <g>
        <path d="M100.46,246.37c-6.48,10.86-11.21,25.02-14.53,37.31-3.85,14.28-5.16,26.51-9.9,40.28-.77,2.23-1.18,12.69-4.29,11.56-2.76-1.01-1.11-10.63-1.32-13.21l-5.28,14.53c-2.64-1.93-1.85-5.62-1.98-8.58l-3.3,5.28-.33-12.22-3.63,5.61c-3.55-10.17,8.5-19.76,10.89-26.74,3.87-11.27,4.04-33.06,7.26-46.22,1.34-5.46,3.8-10.99,5.94-16.18,6.41,3.25,13.89,5.3,20.47,8.58Z" fill="#ffbf9e"/>
        <path d="M157.91,192.22c-5.48,7.61-20.63,1.93-25.09-4.95-4.68-7.22-.88-12.62-1.32-20.14,7.45,8.55,14.67,15.87,26.74,14.53,2.69,1.19-.58,8.5-.33,10.56Z" fill="#ffbf9e"/>
        <path d="M173.1,171.75c-2.3.68-11.54,1.82-11.89,2.31-1.24,1.76.24,13.24-3.3,18.16-.25-2.07,3.02-9.38.33-10.56-12.07,1.34-19.3-5.97-26.74-14.53-.04-.63.14-1.51,0-1.98,14.67,4.39,25.78,10,41.6,6.6Z" fill="#eea382"/>
        <path d="M221.96,120.25c-1.08,5.69-7.14,9.65-9.9,13.21-2.19-.05-2.31.77-2.64-1.65-.55-4.02.94-16.46,1.32-21.46l2.31-5.28c8.27.25,10.22,8.31,8.91,15.19Z" fill="#ffbf9e"/>
        <g>
          <path d="M259.6,191.56c.35.06,2.44,1.61,3.3,1.98,11.76,5.1,3.41,4.02,3.96,7.59.02.14,2,1.03,1.98,1.98,0,.31-2.64,2.34-2.64,2.64,0,.42,2.11,1.39,1.98,2.64-.1.93-3.27,2.43-3.3,2.64-.06.37,2.77,2,2.64,3.3-.19,1.96-6.71,3.73-7.26,4.29-4.15-1.31-4.43-1.47-5.94-5.28-.03-.08,1.39-.57,1.32-.99-.09-.56-1.32-.26-1.32-.33,0-1.22-.73-.61,0-3.3.04-.15,3.02.03,0-1.32-.37-.17-.77-.23-.99-.66-1.84.88-3.77,15-4.29,17.83-19.15,9.62-48.88,48.36-66.69,16.51,2.37-2.41,11.67-6.45,15.19-7.92,12.33-5.17,30.99-10.63,41.27-20.47,8.28-7.92,1.62-24.24,20.8-21.13Z" fill="#ffbf9e"/>
          <path d="M253.32,199.49c.48-.35,2.13.05,1.65.99-.52,1.02-3.07.04-1.65-.99Z" fill="#924139"/>
          <path d="M253.98,202.13c.38-.18,2.75,2.06.66,1.98-1.48-.05-1.26-1.7-.66-1.98Z" fill="#5c324b"/>
          <path d="M254.31,208.73v-1.32c3.02,1.35.04,1.18,0,1.32Z" fill="#b16764"/>
          <path d="M254.31,213.35v-1.32c0,.07,1.23-.23,1.32.33.07.42-1.35.91-1.32.99Z" fill="#411917"/>
        </g>
        <g>
          <path d="M210.73,110.35c-.38,5-1.87,17.44-1.32,21.46.33,2.42.45,1.6,2.64,1.65-4.18,5.39-1.32,5.01-2.64,8.91-5.85,17.26-19.61,24.44-36.32,29.38-15.82,3.4-26.93-2.21-41.6-6.6-.55-1.83-18.91-10.67-22.78-13.87-3.54-2.92-11.03-14.12-11.89-14.53s-6.05-.45-7.92-1.32c-14.5-6.76-14.04-12.17-19.48-25.09,1.71-19.5,21.35-23.78,29.38-5.28l5.28-27.73c28.76-3.58,52.2-16.21,72.63-36.32,1.31,1.71-3.11,6.66-4.29,8.25-7.07,9.54-16.07,18.85-27.73,22.45,1.1,2.43,18.73-6.25,20.8-7.59,15.56-10.06,24.64-38.07,42.59-10.23,10.83,16.8,4.07,37.8,2.64,56.46Z" fill="#ffbf9e"/>
          <g>
            <path d="M151.31,137.42c2.85,1.37,5.05,4.58,9.57,5.28s12.95.51,16.18-3.3c8.02,2.29-.74,9.9-5.28,11.89-3.45-4.5-13.76-4.47-17.83-1.32-7.25-4.28-13.89-17.94-2.64-12.55Z" fill="#750f0a"/>
            <path d="M117.3,122.23c12.26-2.12,18.71,9.61,9.9,11.89-12.14,3.14-21.37-9.9-9.9-11.89Z" fill="#fa928d"/>
            <path d="M88.25,105.06c1.7-.12,14.46,27.33-.66,19.15-7.41-4.01-5.92-15.12.66-19.15Z" fill="#d48f55"/>
            <path d="M130.51,72.05c2.46-.29,17.6-.41,16.84,3.63l-1.65,1.65c-8.98-1.94-18.18-2-25.75,3.96-6.84-4.26,6.98-8.81,10.56-9.24Z" fill="#750f0a"/>
            <path d="M197.2,128.84c12.11-2.47,11.76,9.4,3.3,10.56s-11.45-8.9-3.3-10.56Z" fill="#fa928d"/>
            <path d="M191.92,76.01c4.88-1.16,25.82,4.14,18.49,10.56-4.87-7.06-15.47-4.38-19.81-5.94-2.95-1.06-1.75-3.89,1.32-4.62Z" fill="#750f0a"/>
            <path d="M177.06,139.4c-3.22,3.81-11.65,4.01-16.18,3.3s-6.72-3.91-9.57-5.28c7.39-.27,18.57-.07,25.75,1.98Z" fill="#fefefe"/>
            <path d="M171.78,151.29c-7.26,3.17-11.04,2.69-17.83-1.32,4.07-3.15,14.38-3.18,17.83,1.32Z" fill="#cb7464"/>
            <path d="M166.16,118.93c3.49-.39,6.46,2.07,6.93,5.61-5.05-5.05-6.33-6.01-11.56-.33-2.06-1.19,3.2-5.12,4.62-5.28Z" fill="#cd794d"/>
            <g>
              <path d="M146.69,96.48c4.74,5.21,10.14,18.61,1.65,21.79-10.44,3.92-30.59.67-29.38-13.87,1.04-12.55,19.57-16,27.73-7.92Z" fill="#fefefe"/>
              <path d="M146.69,96.48c-8.16-8.08-26.69-4.62-27.73,7.92-.28-14.38,18.4-18.19,27.73-7.92Z" fill="#833821"/>
              <path d="M134.47,97.14c8.18-1.29,15.17,6.1,12.22,14.2-4.25,11.66-24.55,5.24-19.81-7.92,2.46,2.4,7.83,2.11,6.6-1.98-.31-1.02-7.03-3.03.99-4.29Z" fill="#750f0a"/>
            </g>
            <g>
              <path d="M205.45,116.95c-4.69,9.18-24.47,6.65-25.75.33-.99-4.88,3.62-14.74,7.26-18.16,12.3-8.69,24.72,5.62,18.49,17.83Z" fill="#fefefe"/>
              <path d="M205.45,116.95c6.23-12.21-6.19-26.52-18.49-17.83,12.56-11.81,27.48,6.39,18.49,17.83Z" fill="#833821"/>
              <path d="M191.92,100.44c9.15-1.68,12.93,11.02,8.25,17.5-6.71,9.3-17.39-1.82-14.53-10.56,6,4.07,8.83-2.87,1.98-3.96.96-.59,3.5-2.83,4.29-2.97Z" fill="#750f0a"/>
            </g>
          </g>
        </g>
      </g>
      <g>
        <path d="M254.31,207.41v1.32c-.73,2.69,0,2.08,0,3.3v1.32c1.52,3.81,1.79,3.97,5.94,5.28-2.98,3.03-2.9,22.87-4.95,23.77-2.12.14-9.06-.24-9.57-2.31,1.15-5.15,2.34-10.34,3.3-15.52.52-2.82,2.46-16.95,4.29-17.83.23.43.62.49.99.66Z" fill="#413476"/>
        <g>
          <path d="M263.56,186.28c-1.57-.02-1.92,2.71-2.64,3.96-14.06-1.96-4.64-5.87-6.6-10.23-.31-.69-11-4.94-13.54-6.93-14.69-11.53-16.02-32.97-6.93-48.2.11-.19.14-1.23.66-1.98,13.78-19.88,46.33-20.74,59.43.33,15.23,24.5-1.66,57.69-30.7,58.44-2.79,2.09.32,4.35.33,4.62Z" fill="#305ea4"/>
          <path d="M279.41,171.75c-23.86,14.12-49.22-4.65-46.22-31.36.53-4.7,4.96-14.65,9.24-16.84.14-.07,2.79-.73,2.97-.66l36.32,38.3,2.31-.99c-3.13,4.69-6.94,9.28-12.22,11.56l-34.34-35.66-2.31,2.31c4.22,4.05,31,34.68,33.35,35.33,4.23,1.16,7.16-2.93,10.89-1.98Z" fill="#b6e7f7"/>
          <g>
            <path d="M279.41,171.75c-3.74-.95-6.66,3.14-10.89,1.98-2.35-.64-29.12-31.27-33.35-35.33l2.31-2.31,34.34,35.66c5.28-2.28,9.08-6.86,12.22-11.56l-2.31.99-36.32-38.3c-.18-.07-2.84.59-2.97.66,11.53-14.73,33.88-13.45,45.56.33,12.93,15.26,8.28,37.9-8.58,47.87Z" fill="#b6e7f7"/>
            <path d="M261.91,114.31c7.6.15,22.69,13.23,25.42,20.14.48,1.22,2.04,6.72.99,7.59l-26.41-27.73Z" fill="#b6e7f7"/>
          </g>
        </g>
      </g>
    </g>
  </g>
</svg>